<svg width="1045" height="252" viewBox="0 0 1045 252" fill="none" xmlns="http://www.w3.org/2000/svg">
<path d="M197.061 17.4609V90.459C184.528 75.1595 173.298 64.6615 163.369 58.9648C153.604 53.1055 142.129 50.1758 128.945 50.1758C108.275 50.1758 91.1035 57.4186 77.4316 71.9043C63.7598 86.39 56.9238 104.538 56.9238 126.348C56.9238 148.646 63.5156 166.956 76.6992 181.279C90.0456 195.602 107.054 202.764 127.725 202.764C140.908 202.764 152.546 199.915 162.637 194.219C172.402 188.685 183.877 177.943 197.061 161.992V234.502C174.762 246.058 152.464 251.836 130.166 251.836C93.3822 251.836 62.6204 239.954 37.8809 216.191C13.1413 192.266 0.771484 162.562 0.771484 127.08C0.771484 91.5983 13.304 61.6504 38.3691 37.2363C63.4342 12.8223 94.196 0.615234 130.654 0.615234C154.092 0.615234 176.227 6.23047 197.061 17.4609ZM239.053 124.395C239.053 90.0521 251.341 60.8366 275.918 36.748C300.495 12.6595 330.443 0.615234 365.762 0.615234C401.243 0.615234 431.354 12.7409 456.094 36.9922C480.508 61.2435 492.715 91.0286 492.715 126.348C492.715 161.992 480.426 191.859 455.85 215.947C431.11 239.873 400.755 251.836 364.785 251.836C329.141 251.836 299.274 239.629 275.186 215.215C251.097 191.126 239.053 160.853 239.053 124.395ZM295.205 125.371C295.205 149.134 301.553 167.933 314.248 181.768C327.269 195.765 344.44 202.764 365.762 202.764C387.246 202.764 404.417 195.846 417.275 182.012C430.133 168.177 436.562 149.704 436.562 126.592C436.562 103.48 430.133 85.0065 417.275 71.1719C404.255 57.1745 387.083 50.1758 365.762 50.1758C344.766 50.1758 327.757 57.1745 314.736 71.1719C301.715 85.1693 295.205 103.236 295.205 125.371ZM551.064 7.20703H606.24V29.1797C625.446 10.1367 647.093 0.615234 671.182 0.615234C698.851 0.615234 720.417 9.32292 735.879 26.7383C749.225 41.5495 755.898 65.7194 755.898 99.248V245H700.723V112.188C700.723 88.75 697.467 72.5553 690.957 63.6035C684.609 54.4889 673.053 49.9316 656.289 49.9316C638.06 49.9316 625.12 55.9538 617.471 67.998C609.984 79.8796 606.24 100.632 606.24 130.254V245H551.064V7.20703ZM1042.03 139.043H871.621C873.086 158.574 879.434 174.118 890.664 185.674C901.895 197.067 916.299 202.764 933.877 202.764C947.549 202.764 958.861 199.508 967.812 192.998C976.602 186.488 986.611 174.443 997.842 156.865L1044.23 182.744C1037.07 194.951 1029.5 205.449 1021.52 214.238C1013.55 222.865 1005 230.026 995.889 235.723C986.774 241.257 976.927 245.326 966.348 247.93C955.768 250.534 944.294 251.836 931.924 251.836C896.442 251.836 867.959 240.443 846.475 217.656C824.99 194.707 814.248 164.271 814.248 126.348C814.248 88.75 824.665 58.3138 845.498 35.0391C866.494 12.0898 894.326 0.615234 928.994 0.615234C963.988 0.615234 991.657 11.7643 1012 34.0625C1032.18 56.1979 1042.28 86.8783 1042.28 126.104L1042.03 139.043ZM985.635 94.1211C977.985 64.8242 959.512 50.1758 930.215 50.1758C923.542 50.1758 917.275 51.2337 911.416 53.3496C905.557 55.3027 900.186 58.2324 895.303 62.1387C890.583 65.8822 886.514 70.4395 883.096 75.8105C879.678 81.1816 877.074 87.2852 875.283 94.1211H985.635Z" fill="white"/>
</svg>
