<svg width="728" height="400" viewBox="0 0 728 400" fill="none" xmlns="http://www.w3.org/2000/svg">
<path d="M177.938 300.045C177.938 308.33 177.638 315.594 177.037 321.837C176.557 328.201 175.837 333.784 174.876 338.586C171.995 351.793 166.352 363.14 157.947 372.625C142.098 390.875 120.306 400 92.5709 400C69.158 400 49.8874 393.697 34.7591 381.09C19.1505 368.122 10.1456 350.173 7.74426 327.24H48.4466C50.0075 335.885 52.5889 342.548 56.1909 347.231C64.5955 358.157 76.8423 363.62 92.9311 363.62C122.587 363.62 137.416 345.43 137.416 309.05V284.556C121.327 301.006 102.777 309.23 81.765 309.23C57.8718 309.23 38.3011 300.585 23.0527 283.296C7.68423 265.766 0 243.854 0 217.56C0 191.986 7.14393 170.254 21.4318 152.364C36.8002 133.393 57.0914 123.908 82.3053 123.908C104.397 123.908 122.768 132.133 137.416 148.582V128.771H177.938V300.045ZM139.036 216.839C139.036 199.79 134.474 186.162 125.349 175.957C116.104 165.511 104.277 160.288 89.8694 160.288C74.501 160.288 62.3743 165.991 53.4894 177.398C45.445 187.603 41.4228 200.81 41.4228 217.019C41.4228 232.988 45.445 246.075 53.4894 256.281C62.2542 267.447 74.3809 273.03 89.8694 273.03C105.358 273.03 117.605 267.387 126.61 256.101C134.894 245.895 139.036 232.808 139.036 216.839Z" fill="#444444"/>
<path d="M288.05 0V304.187H247.528V0H288.05Z" fill="#444444"/>
<path d="M398.343 128.771V229.446C398.343 258.502 409.809 273.03 432.742 273.03C455.675 273.03 467.141 258.502 467.141 229.446V128.771H507.663V230.347C507.663 244.394 505.922 256.521 502.44 266.727C499.079 275.852 493.255 284.076 484.971 291.4C471.283 303.287 453.874 309.23 432.742 309.23C411.73 309.23 394.381 303.287 380.693 291.4C372.289 284.076 366.346 275.852 362.864 266.727C359.502 258.562 357.821 246.436 357.821 230.347V128.771H398.343Z" fill="#444444"/>
<path d="M617.776 128.771V229.446C617.776 258.502 629.242 273.03 652.175 273.03C675.107 273.03 686.574 258.502 686.574 229.446V128.771H727.096V230.347C727.096 244.394 725.355 256.521 721.873 266.727C718.511 275.852 712.688 284.076 704.403 291.4C690.716 303.287 673.306 309.23 652.175 309.23C631.163 309.23 613.814 303.287 600.126 291.4C591.721 284.076 585.778 275.852 582.296 266.727C578.934 258.562 577.254 246.436 577.254 230.347V128.771H617.776Z" fill="#444444"/>
</svg>
