<?xml version="1.0" encoding="UTF-8"?>
<svg width="580px" height="429px" viewBox="0 0 580 429" version="1.1" xmlns="http://www.w3.org/2000/svg" xmlns:xlink="http://www.w3.org/1999/xlink">
    <title>Generate Actionable Reports</title>
    <defs>
        <linearGradient x1="49.9831627%" y1="131.465286%" x2="49.9831627%" y2="6.54468168%" id="linearGradient-1">
            <stop stop-color="#CAD1E0" offset="0.289017%"/>
            <stop stop-color="#E6ECF5" stop-opacity="0" offset="100%"/>
        </linearGradient>
        <linearGradient x1="55.7027868%" y1="53.5402345%" x2="47.9465359%" y2="46.4995836%" id="linearGradient-2">
            <stop stop-color="#CAD1E0" offset="0.289017%"/>
            <stop stop-color="#E6ECF5" stop-opacity="0" offset="100%"/>
        </linearGradient>
        <linearGradient x1="35.9297092%" y1="29.5560153%" x2="76.8886613%" y2="68.2644446%" id="linearGradient-3">
            <stop stop-color="#EB8462" offset="0%"/>
            <stop stop-color="#EB8462" offset="100%"/>
        </linearGradient>
        <linearGradient x1="-0.000908342759%" y1="39.9075411%" x2="33.589641%" y2="73.4982603%" id="linearGradient-4">
            <stop stop-color="#9DC7EB" offset="0%"/>
            <stop stop-color="#5070D5" offset="100%"/>
        </linearGradient>
    </defs>
    <g id="Page-1" stroke="none" stroke-width="1" fill="none" fill-rule="evenodd">
        <g id="Generate-Actionable-Reports" transform="translate(0.000002, 0.000000)">
            <path d="M118.613998,174.346 C113.342998,174.352 108.080998,174.509 102.833998,174.954 C75.7115975,177.252 48.8535975,187.7 29.1521975,206.656 C9.45089752,225.611 -2.38187248,253.439 0.404297517,280.767 C2.21257752,298.505 9.96919752,315.375 21.2122975,329.127 C31.7759975,342.049 46.3247975,352.724 62.8596975,354.177 C87.7928975,356.369 109.140998,338.035 130.257998,324.475 C155.627998,308.182 186.735998,297.556 215.815998,305.284 C234.429998,310.231 250.316998,322.115 266.769998,332.2 C299.037998,351.954 334.726998,365.347 371.942998,371.666 C412.693998,378.563 455.686998,376.569 493.704998,360.233 C531.721998,343.896 564.170998,312.108 576.234998,272.218 C582.344998,252.015 582.135998,227.468 567.157998,212.716 C550.537998,196.346 524.097998,198.819 500.939998,197.097 C475.890998,195.236 448.531998,184.568 438.961998,161.127 C433.646998,148.107 434.778998,133.487 434.566998,119.408 C434.220998,97.8200998 430.523998,76.4208998 423.609998,55.9895998 C417.939998,39.2131998 409.270998,16.6781998 393.473998,6.80388984 C385.400998,1.75612984 375.552998,-0.561424164 366.097998,0.115000836 C348.541998,1.37103984 332.657998,11.0425998 318.934998,22.1667998 C295.960998,40.8188998 277.051998,64.0610998 263.393998,90.4360998 C253.256998,110.048 245.811998,131.689 230.617998,147.632 C216.994998,161.928 198.048998,170.356 178.627998,173.398 C158.832998,176.501 138.668998,174.325 118.613998,174.346 Z" id="bg" fill="#F2F8FF"/>
            <g id="leaf" transform="translate(6.833698, 252.718000)">
                <path d="M470.5783,149.767 C470.5783,149.767 460.3883,133.402 475.2333,116.77 C490.0773,100.138 500.9123,90.525 498.1853,74.776 C495.4593,59.027 497.2713,48.614 505.4823,41.177 C513.6943,33.741 511.7723,30.468 518.1213,24.785 C524.4713,19.101 537.2283,13.367 537.2283,13.367 C537.2283,13.367 520.8593,34.478 525.1033,49.381 C529.3473,64.285 528.0173,75.365 520.6943,85.77 C513.3723,96.175 516.5713,116.83 497.2603,127.702 C477.9483,138.574 470.5783,149.767 470.5783,149.767 Z" id="Path" fill="#E5ECF4"/>
                <path d="M471.0313,152.792 C470.6563,149.491 470.7123,146.154 471.1973,142.867 C471.6983,139.551 472.7113,136.334 474.2003,133.329 C474.6003,132.581 474.9783,131.824 475.4233,131.095 C475.8613,130.365 476.3343,129.651 476.8403,128.955 C477.8783,127.563 478.9943,126.231 480.1813,124.964 L487.2823,117.228 C489.6463,114.647 492.0083,112.063 494.3283,109.451 C495.4923,108.147 496.6413,106.832 497.7763,105.507 C498.9063,104.178 500.0223,102.838 501.0583,101.445 C503.0613,98.661 504.7633,95.673 506.1363,92.53 C506.3203,92.147 506.4613,91.749 506.6233,91.358 L507.0943,90.18 L507.5153,88.988 C507.6563,88.591 507.8003,88.194 507.9173,87.79 C508.1663,86.987 508.4233,86.186 508.6293,85.374 C508.7363,84.969 508.8543,84.566 508.9513,84.159 L509.2383,82.937 C509.9893,79.675 510.4433,76.37 510.8373,73.068 C511.2043,69.767 511.6093,66.457 511.6213,63.124 C511.6323,61.459 511.5513,59.794 511.3793,58.137 C511.2173,56.479 510.9653,54.834 510.8383,53.187 C510.5943,49.879 510.9413,46.555 511.8643,43.369 C512.7793,40.122 514.1403,37.017 515.9073,34.143 C517.7233,31.201 519.8273,28.445 522.1873,25.918 L523.0663,24.947 L523.9953,24.014 L524.9273,23.082 C525.2403,22.773 525.5413,22.454 525.8753,22.162 L527.8353,20.377 L528.3263,19.931 L528.8393,19.504 L529.8633,18.65 L530.8883,17.796 C531.0603,17.654 531.2283,17.509 531.4023,17.371 L531.9343,16.963 L534.0643,15.332 C534.7623,14.776 535.5123,14.275 536.2413,13.752 L538.4423,12.196 L536.2233,13.732 C535.4883,14.249 534.7313,14.744 534.0263,15.293 L531.8773,16.907 L531.3403,17.31 C531.1643,17.447 530.9943,17.591 530.8203,17.731 L529.7853,18.577 L528.7493,19.423 L528.2313,19.846 L527.7353,20.288 L525.7493,22.06 C525.4113,22.349 525.1063,22.666 524.7903,22.972 L523.8443,23.898 L522.9023,24.826 L522.0093,25.791 C519.6213,28.317 517.4903,31.074 515.6483,34.021 C513.8503,36.907 512.4593,40.027 511.5163,43.294 C510.5953,46.521 510.1553,49.879 510.4373,53.21 C510.5623,54.874 510.8113,56.521 510.9683,58.169 C511.1353,59.814 511.2123,61.468 511.1983,63.123 C511.1793,66.43 510.7693,69.728 510.3953,73.028 C509.9953,76.323 509.5343,79.615 508.7833,82.857 L508.5003,84.073 C508.4043,84.477 508.2883,84.879 508.1823,85.281 C507.9793,86.088 507.7253,86.884 507.4813,87.682 C507.3653,88.083 507.2223,88.477 507.0833,88.871 L506.6683,90.056 L506.2043,91.226 C506.0433,91.614 505.9043,92.01 505.7223,92.39 C504.3673,95.509 502.6853,98.476 500.7043,101.241 C499.6803,102.623 498.5713,103.963 497.4463,105.289 C496.3213,106.614 495.1723,107.928 494.0123,109.233 C491.6943,111.844 489.3493,114.437 487.0043,117.031 L479.9523,124.802 C478.7673,126.082 477.6553,127.427 476.6203,128.831 C476.1153,129.534 475.6443,130.255 475.2073,130.995 C474.7653,131.73 474.3853,132.493 473.9933,133.249 C472.5313,136.281 471.5503,139.521 471.0843,142.854 C470.6363,146.151 470.6183,149.491 471.0313,152.792 Z" id="Path" fill="#FFFFFF"/>
                <path d="M506.5583,125.376 C507.5843,116.996 513.5963,106.972 526.8773,102.057 C540.1583,97.142 543.9843,85.506 544.7913,76.382 C545.5973,67.257 552.4623,53.796 552.4623,53.796 C552.4623,53.796 552.3443,53.874 552.1013,54.021 C552.0543,54.052 552.0023,54.083 551.9443,54.117 C550.7773,54.822 547.5853,56.638 541.8823,59.106 C534.4733,62.311 532.7993,72.224 526.2813,75.333 C519.7633,78.442 515.0033,82.523 510.7183,88.523 C506.4323,94.523 502.8243,97.95 491.0253,101.848 C479.2263,105.747 474.2613,130.315 474.2613,130.315 C474.5313,130.992 474.8183,131.629 475.1213,132.225 C475.1293,132.244 475.1383,132.262 475.1483,132.279 C483.8953,149.396 505.5383,133.729 506.5583,125.376 Z" id="Path" fill="#CED7E2"/>
                <path d="M475.1503,132.28 C478.1683,130.402 481.0943,128.388 483.9283,126.236 C487.8363,123.251 491.5223,119.987 494.9583,116.47 C496.6783,114.715 498.3193,112.881 499.9153,111.016 C501.5133,109.156 503.1083,107.294 504.8153,105.544 C506.5173,103.786 508.3143,102.124 510.1803,100.538 C512.0323,98.941 513.9663,97.442 515.9733,96.047 C516.9863,95.363 518.0223,94.718 519.0783,94.101 C520.1343,93.485 521.2103,92.872 522.2263,92.161 C523.2393,91.452 524.2033,90.675 525.1103,89.835 C525.5703,89.421 526.0073,88.987 526.4513,88.561 L527.7373,87.236 C529.4233,85.434 530.9443,83.485 532.2843,81.413 C533.6303,79.35 534.8163,77.198 536.0683,75.091 C538.5603,70.87 541.3333,66.82 544.3673,62.97 C546.7953,59.863 549.3733,56.88 552.1013,54.021 C552.0543,54.052 552.0023,54.083 551.9453,54.117 C549.2213,56.888 546.6363,59.792 544.1913,62.828 C541.1133,66.661 538.2973,70.697 535.7633,74.91 L533.8753,78.07 L532.9293,79.645 C532.6053,80.164 532.2843,80.686 531.9493,81.195 C530.6163,83.242 529.1043,85.168 527.4313,86.948 L526.1503,88.259 C525.7083,88.681 525.2743,89.111 524.8203,89.516 C523.9243,90.341 522.9733,91.104 521.9733,91.8 C520.9763,92.492 519.9143,93.094 518.8513,93.712 C517.7893,94.33 516.7373,94.977 515.7143,95.666 C513.6963,97.077 511.7533,98.591 509.8913,100.203 C508.0243,101.801 506.2203,103.479 504.5123,105.252 C502.7973,107.021 501.2003,108.893 499.6103,110.757 C498.0193,112.621 496.3973,114.461 494.6993,116.226 C491.3023,119.76 487.6573,123.046 483.7903,126.058 C481.0023,128.25 478.1123,130.307 475.1203,132.226 C475.1293,132.245 475.1393,132.263 475.1503,132.28 Z" id="Path" fill="#FFFFFF"/>
                <path d="M125.5003,117.105 C125.5003,117.105 138.0213,95.455 117.5343,75.936 C97.0483,56.416 99.4583,56.148 95.3483,44.215 C91.2383,32.281 84.6952,19.805 72.4269,15.276 C60.1585,10.748 63.9763,2.491 47.9752,0.575 C47.9752,0.575 62.5281,19.96 61.7308,29.195 C60.9335,38.429 66.9724,55.92 76.2201,63.909 C85.4677,71.897 98.7213,83.342 101.0693,96.184 C103.4173,109.027 119.1573,116.745 125.5003,117.105 Z" id="Path" fill="#E6EDF5"/>
                <path d="M124.8063,123.738 C124.7573,118.503 123.6733,113.019 121.5963,107.5 C120.5493,104.751 119.2173,102.01 117.6193,99.314 L117.0203,98.304 C116.8223,97.967 116.5863,97.638 116.3723,97.305 L115.7133,96.31 L115.3823,95.811 C115.2723,95.646 115.1453,95.485 115.0273,95.322 L113.5903,93.367 C113.1023,92.724 112.5803,92.094 112.0253,91.48 C111.4693,90.871 110.8723,90.271 110.2823,89.664 C109.6923,89.057 109.1033,88.449 108.5213,87.837 C107.3553,86.614 106.2173,85.373 105.0833,84.136 C102.8143,81.661 100.5503,79.183 98.2933,76.701 C96.0443,74.214 93.8093,71.718 91.6353,69.187 C89.4403,66.66 87.3713,64.074 85.4356,61.441 L84.7244,60.446 C84.4873,60.115 84.2721,59.776 84.0452,59.441 C83.8238,59.105 83.5905,58.771 83.3783,58.432 L82.7492,57.413 L82.4341,56.904 L82.1438,56.389 L81.5634,55.361 C81.3761,55.016 81.2074,54.67 81.0295,54.325 C80.8563,53.979 80.6678,53.634 80.5191,53.286 C79.1852,50.506 78.2806,47.703 77.8327,44.961 C77.6375,43.597 77.5646,42.257 77.6145,40.952 C77.6488,39.647 77.7804,38.383 77.7925,37.094 C77.8013,36.454 77.7682,35.802 77.6936,35.142 C77.6097,34.483 77.4704,33.814 77.2769,33.141 C77.0762,32.466 76.8234,31.789 76.5203,31.114 C76.2065,30.437 75.8516,29.763 75.4572,29.096 C73.9085,26.407 71.6978,23.891 69.4082,21.446 C67.1083,18.999 64.6961,16.61 62.2912,14.219 C59.8862,11.828 57.4809,9.433 55.0483,7.061 C52.6157,4.689 50.1482,2.335 47.6595,0 C50.1993,2.297 52.7052,4.62 55.1772,6.97 C57.6506,9.319 60.0893,11.689 62.5374,14.055 C63.7565,15.241 64.969,16.432 66.1751,17.628 C67.3801,18.824 68.5757,20.028 69.7433,21.253 C70.9109,22.478 72.0513,23.72 73.1169,25.005 C74.1927,26.292 75.1474,27.629 75.9673,28.997 C76.3813,29.683 76.7548,30.376 77.0859,31.073 C77.4094,31.774 77.6804,32.478 77.8972,33.18 C78.1049,33.882 78.254,34.58 78.3435,35.267 C78.423,35.949 78.4599,36.621 78.4541,37.282 C78.4475,38.6 78.3211,39.866 78.2932,41.154 C78.2503,42.433 78.3269,43.746 78.5225,45.082 C78.974,47.768 79.8714,50.513 81.1875,53.233 C82.5022,55.958 84.1335,58.645 86.0516,61.245 C87.9623,63.859 90.0063,66.427 92.1753,68.937 C94.3303,71.46 96.5513,73.955 98.7903,76.444 C101.0333,78.929 103.2873,81.41 105.5513,83.886 C106.6803,85.126 107.8133,86.36 108.9633,87.584 C109.5373,88.198 110.1163,88.806 110.6993,89.414 C111.2823,90.022 111.8753,90.628 112.4443,91.262 C113.0063,91.894 113.5363,92.543 114.0293,93.206 L115.4623,95.19 C115.5793,95.356 115.7053,95.52 115.8153,95.687 L116.1443,96.193 L116.7993,97.203 C117.0123,97.54 117.2463,97.872 117.4433,98.214 L118.0373,99.236 C119.6203,101.961 120.9303,104.728 121.9493,107.5 C122.9553,110.268 123.6953,113.027 124.1593,115.748 L124.3283,116.765 C124.3843,117.104 124.4163,117.439 124.4643,117.777 C124.5603,118.453 124.6173,119.12 124.6763,119.788 C124.7763,121.119 124.8263,122.439 124.8063,123.738 Z" id="Path" fill="#FFFFFF"/>
                <path d="M151.7093,146.004 C151.7093,146.004 149.0953,128.783 125.1063,117.211 C101.1163,105.639 85.3438,99.483 76.834,84.575 C68.3242,69.667 59.6411,60.662 47.581,55.859 C35.521,51.056 34.9012,47.639 25.6234,43.985 C16.3456,40.332 1.6085,38.14 1.6085,38.14 C1.6085,38.14 29.9631,53.41 36.6072,67.907 C43.2513,82.404 51.9857,92.128 65.3309,99.83 C78.6762,107.532 90.1533,126.993 113.9683,132.296 C137.7833,137.599 151.7093,146.004 151.7093,146.004 Z" id="Path" fill="#CED7E2"/>
                <path d="M152.7183,148.119 C150.7823,145.091 148.4653,142.139 145.8133,139.321 C143.1563,136.508 140.1143,133.883 136.7763,131.524 C135.9293,130.951 135.0933,130.364 134.2223,129.819 C133.3533,129.27 132.4683,128.744 131.5673,128.241 C129.7553,127.248 127.9053,126.32 126.0273,125.461 L114.7633,120.219 C111.0093,118.469 107.2563,116.716 103.5183,114.928 C101.6463,114.037 99.7813,113.132 97.9203,112.215 C96.0613,111.294 94.2073,110.359 92.3833,109.359 C88.7573,107.319 85.2864,105.055 82.0213,102.598 C81.6044,102.299 81.2143,101.978 80.8114,101.667 L79.6115,100.728 L78.4439,99.764 C78.0538,99.443 77.6625,99.123 77.2881,98.791 C76.5305,98.134 75.7684,97.48 75.0408,96.805 C74.6734,96.468 74.3,96.137 73.9408,95.798 L72.8655,94.776 C70.0079,92.046 67.3722,89.209 64.7892,86.36 C62.2298,83.507 59.6312,80.653 57.3485,77.688 C56.1985,76.211 55.1444,74.705 54.1532,73.192 C53.1619,71.678 52.2506,70.155 51.2339,68.659 C49.1908,65.664 46.6393,62.794 43.6735,60.155 C40.7232,57.503 37.464,55.057 33.9738,52.878 C30.4771,50.701 26.8259,48.736 23.0695,47.009 L21.6666,46.348 L20.2459,45.733 L18.8245,45.119 C18.35,44.915 17.8784,44.703 17.3978,44.52 L14.5259,43.384 L13.8079,43.101 L13.0848,42.84 L11.6385,42.317 L10.1921,41.794 C9.9503,41.708 9.7097,41.617 9.4679,41.534 L8.7412,41.295 L5.8326,40.335 C4.8646,40.003 3.8897,39.73 2.9186,39.434 L2.84217094e-14,38.558 L2.9195,39.412 C3.8928,39.702 4.8676,39.967 5.8373,40.294 L8.7488,41.232 L9.4791,41.466 C9.7207,41.548 9.9619,41.636 10.2041,41.721 L11.6536,42.234 L13.1038,42.748 L13.8293,43.004 L14.55,43.282 L17.4318,44.399 C17.9144,44.579 18.3878,44.79 18.865,44.99 L20.2928,45.595 L21.721,46.203 L23.1317,46.855 C26.9114,48.574 30.5872,50.534 34.1089,52.709 C37.6342,54.892 40.9292,57.344 43.9154,60.007 C46.9289,62.664 49.5189,65.561 51.5864,68.587 C52.6152,70.097 53.5275,71.62 54.5187,73.125 C55.5099,74.63 56.5559,76.121 57.7018,77.589 C59.973,80.53 62.5673,83.371 65.1328,86.223 C67.7158,89.064 70.3477,91.887 73.1931,94.6 L74.2609,95.617 C74.6175,95.955 74.989,96.285 75.3522,96.619 C76.0739,97.291 76.8309,97.941 77.581,98.595 C77.9522,98.925 78.3413,99.243 78.7265,99.562 L79.8842,100.52 L81.0743,101.453 C81.4736,101.762 81.8609,102.081 82.2739,102.379 C85.5087,104.819 88.9473,107.069 92.5413,109.096 C94.3473,110.09 96.1953,111.025 98.0483,111.945 C99.9023,112.865 101.7663,113.768 103.6343,114.661 C107.3703,116.449 111.1163,118.215 114.8633,119.981 L126.1103,125.266 C127.9943,126.137 129.8503,127.076 131.6673,128.08 C132.5723,128.589 133.4613,129.122 134.3353,129.679 C135.2093,130.232 136.0493,130.822 136.8963,131.405 C140.2283,133.794 143.2583,136.446 145.8983,139.283 C148.5253,142.118 150.8143,145.082 152.7183,148.119 Z" id="Path" fill="#FFFFFF"/>
                <path d="M102.9243,139.451 C97.0883,133.409 86.1121,127.227 72.1027,126.458 C58.0932,125.69 47.9839,117.824 41.8877,111.175 C35.7915,104.527 22.0616,95.962 22.0616,95.962 C22.0616,95.962 22.2065,95.994 22.4971,96.05 C22.5543,96.063 22.6157,96.075 22.6842,96.088 C24.0777,96.359 27.8223,97.019 34.0503,97.617 C42.1404,98.391 49.4285,105.439 56.718,106.338 C64.0075,107.236 70.4069,109.247 77.5501,112.796 C84.6933,116.346 89.7423,118.119 101.9103,118.452 C114.0773,118.784 132.8223,136.075 132.8223,136.075 C132.9993,136.64 133.1383,137.179 133.2393,137.692 C133.2443,137.707 133.2473,137.723 133.2493,137.738 C136.1213,152.456 108.7403,145.475 102.9243,139.451 Z" id="Path" fill="#E6EDF5"/>
                <path d="M132.0753,134.797 C128.5203,134.149 124.9583,133.402 121.4013,132.543 C116.4793,131.354 111.5763,129.948 106.7313,128.337 C104.3093,127.534 101.9063,126.667 99.5223,125.773 C97.1393,124.881 94.7583,123.989 92.3493,123.187 C89.9403,122.379 87.5093,121.648 85.0661,120.979 C82.6282,120.3 80.1798,119.698 77.7309,119.174 C76.5064,118.923 75.2864,118.7 74.0669,118.499 C72.8475,118.297 71.6121,118.102 70.3702,117.834 C69.1317,117.567 67.8941,117.248 66.6661,116.879 C66.0511,116.7 65.4426,116.503 64.8329,116.312 L63.0143,115.704 C60.5934,114.865 58.2217,113.904 55.9274,112.832 C53.6339,111.767 51.4185,110.617 49.175,109.508 C44.6944,107.282 40.084,105.214 35.3748,103.321 C31.5917,101.788 27.758,100.362 23.8736,99.041 C23.9296,99.052 23.989,99.062 24.0566,99.073 C27.8872,100.34 31.6804,101.715 35.4362,103.198 C40.1708,105.074 44.8086,107.125 49.3181,109.338 L52.6903,111.001 L54.3753,111.828 C54.9411,112.099 55.5036,112.371 56.0737,112.634 C58.3487,113.691 60.6991,114.639 63.0973,115.467 L64.9036,116.067 C65.508,116.255 66.1114,116.449 66.7168,116.624 C67.9271,116.986 69.1466,117.299 70.3668,117.56 C71.5821,117.82 72.799,118.01 74.0257,118.211 C75.2523,118.412 76.4856,118.633 77.7205,118.885 C80.1864,119.417 82.6514,120.028 85.1056,120.715 C87.5563,121.391 90.0033,122.131 92.4253,122.948 C94.8503,123.76 97.2393,124.659 99.6193,125.554 C101.9983,126.449 104.3883,127.323 106.7983,128.137 C111.6203,129.765 116.5023,131.192 121.4063,132.406 C124.9563,133.295 128.5143,134.076 132.0663,134.758 C132.0703,134.771 132.0733,134.785 132.0753,134.797 Z" id="Path" fill="#FFFFFF"/>
            </g>
            <g id="setting" transform="translate(268.000998, 82.915000)" fill="#EAF1FA">
                <path d="M30.481,5.1971 C32.47,5.4473 34.417,5.9616 36.27,6.7264 L40.521,3.1611 L47.829,8.7234 L45.526,13.7738 C46.757,15.356 47.772,17.096 48.543,18.947 L54.071,19.433 L55.304,28.535 L50.107,30.477 C49.858,32.466 49.343,34.414 48.578,36.267 L52.143,40.517 L46.582,47.825 L41.53,45.523 C39.948,46.753 38.208,47.767 36.358,48.538 L35.871,54.065 L26.769,55.301 L24.827,50.103 C22.838,49.854 20.891,49.339 19.038,48.573 L14.783,52.14 L7.475,46.577 L9.778,41.525 C8.547,39.943 7.533,38.204 6.762,36.353 L1.235,35.866 L0,26.765 L5.198,24.823 C5.447,22.833 5.961,20.886 6.727,19.033 L3.161,14.7827 L8.722,7.4751 L13.775,9.7782 C15.357,8.5468 17.096,7.5324 18.947,6.762 L19.434,1.2345 L28.534,0 L30.478,5.1971 L30.481,5.1971 Z M27.751,17.748 C25.718,17.813 23.754,18.507 22.131,19.734 C20.507,20.96 19.303,22.659 18.684,24.597 C18.064,26.536 18.06,28.618 18.672,30.559 C19.284,32.499 20.481,34.203 22.1,35.436 C23.719,36.668 25.68,37.37 27.713,37.443 C29.746,37.517 31.753,36.959 33.457,35.847 C35.16,34.735 36.478,33.122 37.229,31.231 C37.979,29.34 38.126,27.262 37.648,25.284 C37.116,23.082 35.841,21.13 34.039,19.758 C32.236,18.385 30.016,17.675 27.751,17.748 Z" id="Shape"/>
            </g>
            <g id="piechart" transform="translate(52.000998, 140.915000)" fill-rule="nonzero">
                <path d="M35.0754,35.796 L35.0754,7.592 C40.6259,7.592 46.053,9.23 50.677,12.3 C55.301,15.37 58.916,19.737 61.07,24.852 C63.224,29.968 63.82,35.605 62.784,41.058 C61.749,46.511 59.127,51.538 55.248,55.507 C51.369,59.477 46.405,62.214 40.9771,63.376 C35.5494,64.537 29.8998,64.071 24.7357,62.037 C19.5717,60.002 15.1228,56.488 11.9464,51.937 C8.77,47.385 7.0072,41.997 6.8789,36.448 L35.0754,35.796 Z" id="Path" fill="#CED7E2"/>
                <path d="M28.2035,28.193 L0,28.828 C0,21.484 2.8684,13.785 7.9907,8.522 C13.2439,3.248 20.3243,0.197 27.7655,0 L28.2035,28.193 Z" id="cutPath" fill="#EAF1FA"/>
            </g>
            <g id="windowframe" transform="translate(105.757998, 130.523000)" fill-rule="nonzero">
                <polygon id="Path" fill="#FFFFFF" points="399.071 0 0 0 0 275.878 399.071 275.878"/>
                <polygon id="Path" fill="#CED7E2" points="399.071 -2.84217094e-14 0 -2.84217094e-14 0 16.009 399.071 16.009"/>
                <path d="M11.382,7.701 C11.382,8.187 11.237,8.663 10.967,9.067 C10.697,9.471 10.313,9.786 9.864,9.972 C9.415,10.158 8.92,10.207 8.443,10.112 C7.967,10.017 7.529,9.783 7.185,9.439 C6.841,9.096 6.607,8.658 6.512,8.181 C6.417,7.704 6.466,7.209 6.652,6.76 C6.838,6.311 7.153,5.927 7.557,5.657 C7.962,5.387 8.437,5.243 8.923,5.243 C9.575,5.243 10.2,5.502 10.661,5.963 C11.122,6.424 11.382,7.049 11.382,7.701 Z" id="Path" fill="#FFFFFF"/>
                <path d="M20.247,7.701 C20.247,8.187 20.103,8.662 19.832,9.066 C19.562,9.47 19.178,9.785 18.729,9.971 C18.28,10.157 17.786,10.205 17.31,10.11 C16.833,10.016 16.395,9.782 16.052,9.438 C15.708,9.094 15.474,8.656 15.379,8.18 C15.284,7.703 15.333,7.209 15.519,6.76 C15.705,6.311 16.02,5.927 16.424,5.657 C16.828,5.387 17.303,5.243 17.789,5.243 C18.441,5.243 19.066,5.502 19.527,5.963 C19.988,6.424 20.247,7.049 20.247,7.701 Z" id="Path" fill="#FFFFFF"/>
                <path d="M29.116,7.701 C29.116,8.187 28.972,8.663 28.702,9.067 C28.431,9.471 28.047,9.786 27.598,9.972 C27.149,10.158 26.654,10.207 26.178,10.112 C25.701,10.017 25.263,9.783 24.919,9.439 C24.575,9.095 24.341,8.657 24.246,8.18 C24.151,7.703 24.2,7.209 24.386,6.76 C24.573,6.31 24.888,5.927 25.292,5.657 C25.697,5.386 26.172,5.242 26.658,5.24299483 C26.981,5.24299483 27.301,5.306 27.599,5.43 C27.897,5.553 28.168,5.734 28.396,5.963 C28.625,6.191 28.806,6.462 28.929,6.76 C29.053,7.059 29.116,7.378 29.116,7.701 Z" id="Path" fill="#FFFFFF"/>
                <path d="M384.789,258.537 C384.789,257.539 384.74,225.603 384.655,168.927 L384.789,169.061 L16.372,169.153 L16.351,169.153 L16.576,168.927 C16.576,199.624 16.576,229.614 16.572,258.537 L16.351,258.316 L384.786,258.537 L16.354,258.758 L16.133,258.758 L16.133,258.536 C16.133,229.614 16.133,199.624 16.129,168.926 L16.129,168.701 L16.377,168.701 L384.793,168.793 L384.927,168.793 L384.927,168.926 C384.838,225.604 384.79,257.544 384.789,258.537 Z" id="Path" fill="#E0E0E0"/>
            </g>
            <g id="card4" transform="translate(122.714998, 166.258000)" fill-rule="nonzero">
                <path d="M178.361,125.67 C178.361,125.67 178.348,124.889 178.341,123.388 C178.334,121.886 178.33,119.658 178.321,116.755 C178.31,110.943 178.295,102.403 178.275,91.484 C178.252,69.662 178.219,38.323 178.179,0.225 L178.361,0.408 L0.24,0.451 L0.226,0.451 L0.452,0.225 C0.445,45.1 0.438,87.697 0.432,125.662 L0.226,125.457 L128.694,125.558 L165.285,125.614 L175.001,125.638 L177.505,125.65 C178.069,125.654 178.361,125.662 178.361,125.662 C178.361,125.662 178.085,125.67 177.529,125.674 L175.048,125.686 L165.372,125.711 L128.828,125.766 L0.225,125.868 L0.02,125.868 L0.02,125.662 C0.014,87.693 0.007,45.095 0,0.225 L0,0 L0.24,0 L178.361,0.043 L178.544,0.043 L178.544,0.225 C178.504,38.367 178.472,69.745 178.449,91.595 C178.428,102.496 178.413,111.02 178.402,116.824 C178.393,119.715 178.386,121.927 178.381,123.423 C178.376,124.92 178.361,125.67 178.361,125.67 Z" id="Path" fill="#E0E0E0"/>
                <path d="M19.48,101.946 L32.309,83.389 C32.929,82.493 33.721,81.729 34.64,81.141 C35.558,80.554 36.583,80.155 37.657,79.968 C38.731,79.781 39.831,79.809 40.894,80.051 C41.956,80.294 42.96,80.745 43.847,81.379 L45.649,82.668 C46.691,83.413 47.893,83.904 49.159,84.102 C50.424,84.3 51.718,84.2 52.938,83.808 C54.158,83.417 55.269,82.746 56.184,81.849 C57.098,80.952 57.79,79.854 58.204,78.642 L64.434,60.417 C64.988,58.795 66.036,57.387 67.43,56.39 C68.824,55.393 70.495,54.857 72.209,54.857 C73.923,54.857 75.594,55.393 76.988,56.39 C78.382,57.387 79.43,58.795 79.984,60.417 L82.998,69.236 C83.532,70.799 84.525,72.165 85.848,73.156 C87.171,74.146 88.762,74.715 90.412,74.787 C92.063,74.86 93.697,74.433 95.102,73.562 C96.506,72.692 97.616,71.418 98.285,69.907 L100.9,64.008 C101.493,62.67 102.432,61.515 103.621,60.662 C104.81,59.808 106.206,59.288 107.663,59.155 C109.12,59.021 110.587,59.28 111.911,59.903 C113.235,60.526 114.369,61.492 115.195,62.7 C116.055,63.959 117.249,64.953 118.643,65.572 C120.036,66.191 121.574,66.41 123.085,66.204 C124.596,65.999 126.02,65.377 127.197,64.409 C128.375,63.44 129.26,62.163 129.753,60.72 L132.668,52.194 C135.345,44.362 146.615,44.956 148.456,53.026 L159.604,101.952 C159.604,101.952 19.872,101.556 19.48,101.946 Z" id="wave3" fill="#52B297"/>
                <path d="M19.285,102.657 L29.728,67.854 C30.265,66.064 31.275,64.508 32.62,63.399 C33.965,62.289 35.578,61.681 37.238,61.658 C38.899,61.634 40.524,62.197 41.893,63.268 C43.261,64.34 44.305,65.867 44.88,67.641 L49.883,83.061 C50.376,84.581 51.214,85.924 52.312,86.955 C53.41,87.985 54.728,88.665 56.132,88.926 C57.536,89.187 58.975,89.019 60.303,88.439 C61.632,87.859 62.801,86.889 63.693,85.626 L67.745,79.884 C69.042,78.048 70.911,76.852 72.962,76.544 C75.013,76.236 77.09,76.841 78.76,78.232 L88.198,86.095 C89.575,87.243 91.238,87.862 92.945,87.862 L104.956,87.862 C106.663,87.862 108.326,88.48 109.704,89.628 L118.641,97.074 C119.511,97.799 120.5,98.318 121.549,98.599 C122.598,98.881 123.686,98.919 124.748,98.712 C125.81,98.505 126.825,98.057 127.733,97.395 C128.64,96.732 129.421,95.869 130.03,94.856 L138.418,80.88 C138.525,80.702 138.635,80.53 138.751,80.364 C142.119,75.513 148.865,76.534 151.31,82.058 L160.285,102.333 C160.285,102.333 19.285,102 19.285,102.657 Z" id="wave2" fill="#5FC6A4"/>
                <path d="M159.345,102.318 L148.457,93.451 C133.517,82.463 126.433,103.378 114.688,87.684 L110.643,82.653 C109.349,81.044 107.485,79.995 105.438,79.726 C103.39,79.456 101.318,79.986 99.652,81.205 L94.967,84.629 C90.513,87.887 85.138,89.643 79.62,89.643 L73.502,89.643 C71.799,89.643 70.139,90.185 68.764,91.19 L59.845,97.715 C56.186,100.39 53.635,100.751 47.779,95.835 C47.779,95.835 41.423,90.668 41.273,90.485 C38.157,86.691 31.644,86.692 28.84,90.485 C28.17,91.374 27.456,92.229 26.7,93.046 L18.285,102.317 C18.285,102.317 159.345,101.742 159.345,102.318 Z" id="wave1" fill="#55B79A"/>
                <g id="Group" opacity="0.3" transform="translate(18.285000, 109.657113)" fill="#FFFFFF">
                    <path d="M141.06,22.6608867 L130.172,13.7938867 C115.232,2.80588674 108.148,23.7208867 96.403,8.02688674 L92.358,2.99588674 C91.064,1.38688674 89.2,0.337886744 87.153,0.0688867439 C85.105,-0.201113256 83.033,0.328886744 81.367,1.54788674 L76.682,4.97188674 C72.228,8.22988674 66.853,9.98588674 61.335,9.98588674 L55.217,9.98588674 C53.514,9.98588674 51.854,10.5278867 50.479,11.5328867 L41.56,18.0578867 C37.901,20.7328867 35.35,21.0938867 29.494,16.1778867 C29.494,16.1778867 23.138,11.0108867 22.988,10.8278867 C19.872,7.03388674 13.359,7.03488674 10.555,10.8278867 C9.885,11.7168867 9.171,12.5718867 8.415,13.3888867 L0,22.6598867 C0,22.6598867 141.06,22.0848867 141.06,22.6608867 Z" id="Path"/>
                </g>
                <path d="M57.812,31.72 C57.812,31.845 52.828,31.946 46.681,31.946 C40.534,31.946 35.548,31.845 35.548,31.72 C35.548,31.595 40.531,31.494 46.681,31.494 C52.83,31.494 57.812,31.595 57.812,31.72 Z" id="Path" fill="#263238"/>
                <polygon id="Path" fill="#58BA9C" points="33.115 29.814 29.306 29.814 29.306 33.624 33.115 33.624"/>
                <path d="M99.812,31.719 C99.812,31.844 94.828,31.945 88.681,31.945 C82.534,31.945 77.548,31.844 77.548,31.719 C77.548,31.594 82.531,31.493 88.681,31.493 C94.83,31.493 99.812,31.594 99.812,31.719 Z" id="Path" fill="#263238"/>
                <polygon id="Path" fill="#58BA9C" points="75.115 29.814 71.306 29.814 71.306 33.624 75.115 33.624"/>
                <path d="M141.812,31.719 C141.812,31.844 136.828,31.945 130.681,31.945 C124.534,31.945 119.548,31.844 119.548,31.719 C119.548,31.594 124.531,31.493 130.681,31.493 C136.83,31.493 141.812,31.594 141.812,31.719 Z" id="Path" fill="#263238"/>
                <polygon id="Path" fill="#58BA9C" points="117.115 29.814 113.306 29.814 113.306 33.624 117.115 33.624"/>
            </g>
            <g id="card3" transform="translate(265.069998, 312.515584)" fill-rule="nonzero">
                <path d="M0,61.2244161 L9.17,48.1514161 C9.423,47.7894161 9.746,47.4834161 10.12,47.2494161 C10.495,47.0164161 10.912,46.8604161 11.348,46.7924161 C11.783,46.7234161 12.229,46.7434161 12.656,46.8504161 C13.084,46.9574161 13.486,47.1494161 13.838,47.4154161 L18.661,51.0584161 C19.033,51.3394161 19.46,51.5374161 19.914,51.6404161 C20.368,51.7434161 20.839,51.7484161 21.295,51.6554161 C21.751,51.5634161 22.182,51.3744161 22.56,51.1024161 C22.938,50.8304161 23.254,50.4814161 23.486,50.0784161 L37.399,25.9814161 C37.667,25.5164161 38.045,25.1244161 38.5,24.8394161 C38.955,24.5554161 39.472,24.3864161 40.007,24.3474161 C40.542,24.3084161 41.079,24.4014161 41.57,24.6184161 C42.061,24.8354161 42.491,25.1684161 42.823,25.5894161 L51.511,36.6064161 C51.836,37.0184161 52.255,37.3464161 52.733,37.5634161 C53.21,37.7804161 53.733,37.8794161 54.257,37.8524161 C54.781,37.8264161 55.291,37.6744161 55.744,37.4104161 C56.197,37.1464161 56.581,36.7774161 56.862,36.3354161 L63.21,26.3594161 C63.513,25.8824161 63.933,25.4924161 64.431,25.2254161 C64.929,24.9584161 65.487,24.8254161 66.052,24.8374161 C66.617,24.8494161 67.169,25.0064161 67.655,25.2944161 C68.141,25.5824161 68.544,25.9904161 68.827,26.4794161 L74.068,35.5584161 C74.35,36.0464161 74.753,36.4544161 75.239,36.7414161 C75.725,37.0294161 76.276,37.1874161 76.84,37.1994161 C77.404,37.2114161 77.962,37.0784161 78.46,36.8134161 C78.958,36.5474161 79.379,36.1574161 79.682,35.6824161 L97.604,7.59341608 C97.898,7.13241608 98.302,6.75241608 98.779,6.48741608 C99.257,6.22241608 99.793,6.08041608 100.339,6.07541608 C100.885,6.06941608 101.424,6.19941608 101.907,6.45441608 C102.39,6.70941608 102.801,7.08041608 103.105,7.53441608 L132.714,51.8254161 C132.992,52.2404161 133.36,52.5864161 133.791,52.8384161 C134.222,53.0894161 134.705,53.2394161 135.202,53.2764161 C135.7,53.3134161 136.199,53.2364161 136.663,53.0514161 C137.126,52.8664161 137.541,52.5784161 137.877,52.2094161 L155.866,32.4074161 C156.165,32.0774161 156.528,31.8124161 156.933,31.6274161 C157.338,31.4424161 157.776,31.3424161 158.221,31.3314161 C158.667,31.3214161 159.109,31.4014161 159.522,31.5674161 C159.935,31.7334161 160.31,31.9814161 160.625,32.2974161 L174.934,46.6584161 C175.29,47.0154161 175.723,47.2854161 176.201,47.4484161 C176.678,47.6114161 177.186,47.6614161 177.687,47.5964161 C178.187,47.5314161 178.665,47.3514161 179.084,47.0714161 C179.504,46.7914161 179.853,46.4184161 180.105,45.9814161 L205.705,1.64341608 C206.066,1.01641608 206.624,0.527416082 207.293,0.250416082 C207.961,-0.0265839177 208.702,-0.0755839177 209.4,0.112416082 C210.099,0.299416082 210.716,0.711416082 211.157,1.28541608 C211.597,1.85941608 211.835,2.56241608 211.835,3.28641608 L211.835,61.2334161 L0,61.2244161 Z" id="Path" fill="#EAF1FA"/>
                <path d="M211.296,68.4694161 C211.284,68.3844161 211.279,68.2994161 211.281,68.2144161 C211.281,68.0294161 211.272,67.7744161 211.266,67.4334161 C211.259,66.7164161 211.249,65.6534161 211.236,64.2004161 L211.296,64.2594161 C199.065,64.3554161 156.505,64.4254161 105.962,64.4254161 C55.403,64.4254161 12.85,64.3554161 0.619,64.2594161 L0.678,64.2004161 C0.665,65.6544161 0.655,66.7154161 0.649,67.4334161 C0.642,67.7724161 0.637,68.0274161 0.634,68.2144161 C0.635,68.2994161 0.63,68.3844161 0.619,68.4694161 C0.607,68.3844161 0.601,68.2994161 0.603,68.2144161 C0.603,68.0294161 0.594,67.7744161 0.588,67.4334161 C0.581,66.7174161 0.572,65.6544161 0.559,64.2004161 L0.559,64.1414161 L0.619,64.1414161 C12.85,64.0454161 55.403,63.9744161 105.962,63.9744161 C156.505,63.9744161 199.063,64.0454161 211.296,64.1414161 L211.356,64.1414161 L211.356,64.2004161 C211.343,65.6534161 211.334,66.7154161 211.328,67.4334161 C211.321,67.7724161 211.315,68.0274161 211.312,68.2144161 C211.313,68.2994161 211.308,68.3844161 211.296,68.4694161 Z" id="Path" fill="#CED7E2"/>
                <path d="M24.035,68.1294161 C23.91,68.1294161 23.809,67.7284161 23.809,67.2314161 C23.809,66.7354161 23.91,66.3344161 24.035,66.3344161 C24.16,66.3344161 24.261,66.7354161 24.261,67.2314161 C24.261,67.7284161 24.16,68.1294161 24.035,68.1294161 Z" id="Path" fill="#263238"/>
                <path d="M47.441,68.1294161 C47.316,68.1294161 47.215,67.7284161 47.215,67.2314161 C47.215,66.7354161 47.316,66.3344161 47.441,66.3344161 C47.566,66.3344161 47.667,66.7354161 47.667,67.2314161 C47.667,67.7284161 47.566,68.1294161 47.441,68.1294161 Z" id="Path" fill="#263238"/>
                <path d="M70.851,68.1294161 C70.726,68.1294161 70.625,67.7284161 70.625,67.2314161 C70.625,66.7354161 70.726,66.3344161 70.851,66.3344161 C70.976,66.3344161 71.076,66.7354161 71.076,67.2314161 C71.076,67.7284161 70.976,68.1294161 70.851,68.1294161 Z" id="Path" fill="#263238"/>
                <path d="M94.258,68.1294161 C94.133,68.1294161 94.032,67.7284161 94.032,67.2314161 C94.032,66.7354161 94.133,66.3344161 94.258,66.3344161 C94.383,66.3344161 94.484,66.7354161 94.484,67.2314161 C94.484,67.7284161 94.383,68.1294161 94.258,68.1294161 Z" id="Path" fill="#263238"/>
                <path d="M117.672,68.1294161 C117.547,68.1294161 117.446,67.7284161 117.446,67.2314161 C117.446,66.7354161 117.547,66.3344161 117.672,66.3344161 C117.797,66.3344161 117.898,66.7354161 117.898,67.2314161 C117.898,67.7284161 117.792,68.1294161 117.672,68.1294161 Z" id="Path" fill="#263238"/>
                <path d="M141.073,68.1294161 C140.949,68.1294161 140.848,67.7284161 140.848,67.2314161 C140.848,66.7354161 140.949,66.3344161 141.073,66.3344161 C141.198,66.3344161 141.3,66.7354161 141.3,67.2314161 C141.3,67.7284161 141.198,68.1294161 141.073,68.1294161 Z" id="Path" fill="#263238"/>
                <path d="M164.479,68.1294161 C164.354,68.1294161 164.253,67.7284161 164.253,67.2314161 C164.253,66.7354161 164.354,66.3344161 164.479,66.3344161 C164.604,66.3344161 164.704,66.7354161 164.704,67.2314161 C164.704,67.7284161 164.604,68.1294161 164.479,68.1294161 Z" id="Path" fill="#263238"/>
                <path d="M187.888,68.1294161 C187.763,68.1294161 187.661,67.7284161 187.661,67.2314161 C187.661,66.7354161 187.763,66.3344161 187.888,66.3344161 C188.013,66.3344161 188.113,66.7354161 188.113,67.2314161 C188.113,67.7284161 188.013,68.1294161 187.888,68.1294161 Z" id="Path" fill="#263238"/>
            </g>
            <g id="card2" transform="translate(313.347998, 177.809000)" fill-rule="nonzero">
                <path d="M178.36,85.383 C178.36,85.383 178.349,84.862 178.343,83.863 C178.337,82.863 178.333,81.377 178.325,79.439 C178.315,75.551 178.301,69.83 178.283,62.467 C178.262,47.754 178.232,26.484 178.196,0.226 L178.362,0.392 L0.238,0.452 L0.226,0.452 L0.452,0.226 C0.447,30.208 0.443,59.017 0.439,85.384 L0.226,85.171 L128.171,85.272 L165.086,85.331 L174.942,85.358 L177.489,85.371 C178.063,85.376 178.362,85.384 178.362,85.384 C178.362,85.384 178.08,85.393 177.515,85.397 L174.993,85.41 L165.182,85.437 L128.314,85.495 L0.226,85.598 L0.012,85.598 L0.012,85.384 C0.012,59.017 0.004,30.208 0,0.226 L0,0 L0.238,0 L178.362,0.059 L178.528,0.059 L178.528,0.225 C178.49,26.526 178.46,47.83 178.441,62.567 C178.423,69.914 178.409,75.623 178.399,79.502 C178.392,81.429 178.385,82.9 178.381,83.897 C178.377,84.895 178.36,85.383 178.36,85.383 Z" id="Path" fill="#E0E0E0"/>
                <path d="M138.046,37.357 L15.336,37.357 C14.793,37.357 14.273,37.142 13.89,36.758 C13.506,36.375 13.291,35.855 13.291,35.312 C13.291,34.77 13.506,34.25 13.89,33.866 C14.273,33.483 14.793,33.267 15.336,33.267 L138.046,33.267 C138.589,33.267 139.109,33.483 139.492,33.866 C139.876,34.25 140.091,34.77 140.091,35.312 C140.091,35.855 139.876,36.375 139.492,36.758 C139.109,37.142 138.589,37.357 138.046,37.357 Z" id="Path" fill="#EAF1FA"/>
                <path d="M138.046,21.161 L15.335,21.161 C14.793,21.161 14.272,20.945 13.889,20.562 C13.505,20.178 13.29,19.658 13.29,19.115 C13.29,18.573 13.505,18.053 13.889,17.669 C14.272,17.285 14.793,17.07 15.335,17.07 L138.046,17.07 C138.588,17.07 139.108,17.285 139.492,17.669 C139.876,18.053 140.091,18.573 140.091,19.115 C140.091,19.658 139.876,20.178 139.492,20.562 C139.108,20.945 138.588,21.161 138.046,21.161 Z" id="Path" fill="#EAF1FA"/>
                <path d="M70.785,37.357 L15.336,37.357 C14.793,37.357 14.273,37.142 13.89,36.758 C13.506,36.375 13.291,35.855 13.291,35.312 C13.291,34.77 13.506,34.25 13.89,33.866 C14.273,33.483 14.793,33.267 15.336,33.267 L70.785,33.267 C71.327,33.267 71.847,33.483 72.231,33.866 C72.614,34.25 72.83,34.77 72.83,35.312 C72.83,35.855 72.614,36.375 72.231,36.758 C71.847,37.142 71.327,37.357 70.785,37.357 Z" id="Path" fill="#CED7E2"/>
                <polygon id="Path" fill="#CED7E2" points="153.604 36.184 152.697 36.184 152.697 37.356 152.035 37.356 152.035 36.184 149.383 36.184 149.383 35.706 151.825 32.584 152.561 32.584 150.219 35.596 152.053 35.596 152.053 34.561 152.694 34.561 152.694 35.596 153.6 35.596"/>
                <path d="M157.339,35.925 C157.339,36.75 156.754,37.412 155.533,37.412 C154.9,37.428 154.281,37.223 153.782,36.833 L154.095,36.293 C154.494,36.633 155.003,36.815 155.526,36.805 C156.249,36.805 156.658,36.471 156.658,35.953 C156.658,35.414 156.318,35.08 155.213,35.08 L154.129,35.08 L154.381,32.586 L157.07,32.586 L157.07,33.179 L154.95,33.179 L154.821,34.487 L155.353,34.487 C156.781,34.487 157.339,35.08 157.339,35.925 Z" id="Path" fill="#CED7E2"/>
                <path d="M157.764,33.846 C157.743,33.686 157.757,33.524 157.803,33.369 C157.849,33.215 157.926,33.072 158.031,32.949 C158.135,32.827 158.265,32.727 158.41,32.658 C158.555,32.588 158.713,32.549 158.874,32.545 C159.536,32.545 159.979,33.065 159.979,33.846 C159.979,34.626 159.536,35.147 158.874,35.147 C158.713,35.142 158.555,35.103 158.41,35.034 C158.265,34.964 158.136,34.865 158.031,34.742 C157.927,34.62 157.849,34.476 157.803,34.322 C157.757,34.168 157.744,34.006 157.764,33.846 Z M159.542,33.846 C159.542,33.273 159.29,32.931 158.874,32.931 C158.459,32.931 158.206,33.278 158.206,33.846 C158.206,34.413 158.467,34.758 158.874,34.758 C159.282,34.758 159.542,34.421 159.542,33.846 Z M161.751,32.584 L162.277,32.584 L159.017,37.356 L158.497,37.356 L161.751,32.584 Z M160.791,36.095 C160.825,35.883 160.919,35.686 161.062,35.526 C161.205,35.366 161.391,35.25 161.597,35.192 C161.804,35.135 162.023,35.138 162.228,35.201 C162.433,35.264 162.616,35.384 162.755,35.548 C162.894,35.711 162.983,35.911 163.011,36.124 C163.04,36.337 163.007,36.553 162.916,36.748 C162.826,36.942 162.681,37.107 162.5,37.222 C162.319,37.337 162.109,37.397 161.894,37.3960123 C161.733,37.391 161.576,37.352 161.431,37.283 C161.286,37.213 161.157,37.113 161.054,36.991 C160.95,36.868 160.872,36.725 160.827,36.571 C160.782,36.416 160.769,36.254 160.791,36.095 Z M162.563,36.095 C162.563,35.529 162.303,35.182 161.894,35.182 C161.485,35.182 161.227,35.523 161.227,36.095 C161.227,36.668 161.479,37.009 161.894,37.009 C162.31,37.009 162.565,36.661 162.565,36.095 L162.563,36.095 Z" id="Shape" fill="#CED7E2"/>
                <path d="M138.044,52.355 L15.334,52.355 C14.791,52.355 14.271,52.14 13.888,51.756 C13.504,51.373 13.289,50.853 13.289,50.31 C13.289,49.768 13.504,49.248 13.888,48.864 C14.271,48.481 14.791,48.265 15.334,48.265 L138.044,48.265 C138.587,48.265 139.107,48.481 139.49,48.864 C139.874,49.248 140.089,49.768 140.089,50.31 C140.089,50.853 139.874,51.373 139.49,51.756 C139.107,52.14 138.587,52.355 138.044,52.355 Z" id="Path" fill="#EAF1FA"/>
                <path d="M88.846,52.355 L15.458,52.355 C15.175,52.391 14.888,52.364 14.617,52.276 C14.346,52.187 14.098,52.04 13.891,51.845 C13.684,51.649 13.522,51.41 13.418,51.145 C13.314,50.88 13.27,50.595 13.289,50.31 C13.289,49.183 13.935,48.265 14.734,48.265 L88.122,48.265 C88.412,48.235 88.706,48.265 88.985,48.353 C89.263,48.441 89.521,48.585 89.741,48.777 C89.961,48.969 90.14,49.204 90.266,49.468 C90.391,49.732 90.461,50.018 90.4712243,50.31 C90.478,50.787 90.321,51.251 90.024,51.623 C89.728,51.996 89.312,52.255 88.846,52.355 Z" id="Path" fill="#CED7E2"/>
                <polygon id="Path" fill="#CED7E2" points="152.921 47.583 152.921 48.047 150.993 52.355 150.27 52.355 152.158 48.176 149.979 48.176 149.979 49.028 149.324 49.028 149.324 47.583"/>
                <path d="M153.386,49.969 C153.386,48.415 154.218,47.529 155.336,47.529 C156.455,47.529 157.279,48.415 157.279,49.969 C157.279,51.524 156.447,52.409 155.336,52.409 C154.226,52.409 153.386,51.524 153.386,49.969 Z M156.596,49.969 C156.596,48.749 156.076,48.135 155.336,48.135 C154.596,48.135 154.067,48.749 154.067,49.969 C154.067,51.19 154.588,51.802 155.336,51.802 C156.083,51.802 156.597,51.189 156.597,49.969 L156.596,49.969 Z" id="Shape" fill="#CED7E2"/>
                <path d="M157.86,48.844 C157.839,48.684 157.852,48.522 157.898,48.367 C157.944,48.213 158.022,48.07 158.127,47.947 C158.231,47.825 158.36,47.725 158.505,47.656 C158.651,47.586 158.809,47.547 158.97,47.543 C159.632,47.543 160.075,48.063 160.075,48.844 C160.075,49.625 159.632,50.145 158.97,50.145 C158.809,50.14 158.651,50.102 158.505,50.032 C158.36,49.962 158.231,49.863 158.127,49.74 C158.022,49.618 157.944,49.475 157.898,49.32 C157.852,49.166 157.839,49.004 157.86,48.844 Z M159.639,48.844 C159.639,48.271 159.386,47.93 158.97,47.93 C158.554,47.93 158.303,48.277 158.303,48.844 C158.303,49.41 158.563,49.757 158.97,49.757 C159.377,49.757 159.639,49.416 159.639,48.844 Z M161.847,47.582 L162.372,47.582 L159.113,52.354 L158.593,52.354 L161.847,47.582 Z M160.886,51.094 C160.92,50.882 161.015,50.685 161.158,50.525 C161.301,50.365 161.486,50.249 161.693,50.191 C161.9,50.134 162.118,50.137 162.324,50.2 C162.529,50.262 162.711,50.383 162.85,50.546 C162.989,50.71 163.078,50.91 163.107,51.122 C163.136,51.335 163.103,51.551 163.012,51.746 C162.922,51.941 162.778,52.105 162.596,52.22 C162.415,52.335 162.205,52.396 161.991,52.3950121 C161.83,52.39 161.672,52.352 161.527,52.282 C161.382,52.212 161.254,52.112 161.149,51.99 C161.045,51.867 160.968,51.724 160.923,51.57 C160.878,51.416 160.865,51.253 160.886,51.094 Z M162.659,51.094 C162.659,50.528 162.398,50.18 161.991,50.18 C161.583,50.18 161.323,50.521 161.323,51.094 C161.323,51.667 161.574,52.007 161.991,52.007 C162.407,52.007 162.659,51.659 162.659,51.094 Z" id="Shape" fill="#CED7E2"/>
                <path d="M138.045,66.997 L15.335,66.997 C14.792,66.997 14.272,66.782 13.889,66.398 C13.505,66.014 13.29,65.494 13.29,64.952 C13.29,64.41 13.505,63.889 13.889,63.506 C14.272,63.122 14.792,62.907 15.335,62.907 L138.045,62.907 C138.588,62.907 139.108,63.122 139.491,63.506 C139.875,63.889 140.09,64.41 140.09,64.952 C140.09,65.494 139.875,66.014 139.491,66.398 C139.108,66.782 138.588,66.997 138.045,66.997 Z" id="Path" fill="#EAF1FA"/>
                <path d="M60.914,66.997 L15.335,66.997 C14.792,66.997 14.272,66.782 13.889,66.398 C13.505,66.014 13.29,65.494 13.29,64.952 C13.29,64.41 13.505,63.889 13.889,63.506 C14.272,63.122 14.792,62.907 15.335,62.907 L60.914,62.907 C61.456,62.907 61.976,63.122 62.36,63.506 C62.743,63.889 62.959,64.41 62.959,64.952 C62.959,65.494 62.743,66.014 62.36,66.398 C61.976,66.782 61.456,66.997 60.914,66.997 Z" id="Path" fill="#CED7E2"/>
                <path d="M152.796,65.564 C152.796,66.389 152.21,67.05 150.99,67.05 C150.357,67.066 149.737,66.861 149.238,66.471 L149.552,65.932 C149.951,66.272 150.46,66.454 150.983,66.443 C151.706,66.443 152.111,66.11 152.111,65.591 C152.111,65.053 151.769,64.724 150.666,64.724 L149.581,64.724 L149.834,62.228 L152.523,62.228 L152.523,62.821 L150.404,62.821 L150.275,64.13 L150.806,64.13 C152.239,64.128 152.796,64.721 152.796,65.564 Z" id="Path" fill="#CED7E2"/>
                <path d="M153.359,64.61 C153.359,63.055 154.191,62.17 155.309,62.17 C156.427,62.17 157.252,63.055 157.252,64.61 C157.252,66.164 156.42,67.05 155.309,67.05 C154.198,67.05 153.359,66.166 153.359,64.61 Z M156.569,64.61 C156.569,63.389 156.048,62.776 155.308,62.776 C154.568,62.776 154.04,63.389 154.04,64.61 C154.04,65.83 154.56,66.443 155.308,66.443 C156.056,66.443 156.573,65.831 156.573,64.61 L156.569,64.61 Z" id="Shape" fill="#CED7E2"/>
                <path d="M157.834,63.482 C157.814,63.323 157.827,63.16 157.873,63.006 C157.919,62.851 157.997,62.708 158.101,62.586 C158.206,62.463 158.335,62.364 158.48,62.294 C158.625,62.225 158.784,62.186 158.945,62.181 C159.606,62.181 160.049,62.702 160.049,63.482 C160.049,64.263 159.606,64.784 158.945,64.784 C158.784,64.779 158.625,64.74 158.48,64.671 C158.335,64.601 158.206,64.502 158.101,64.379 C157.997,64.256 157.919,64.113 157.873,63.959 C157.827,63.805 157.814,63.642 157.834,63.482 Z M159.613,63.482 C159.613,62.91 159.36,62.569 158.945,62.569 C158.529,62.569 158.277,62.916 158.277,63.482 C158.277,64.049 158.537,64.396 158.945,64.396 C159.352,64.396 159.611,64.059 159.611,63.482 L159.613,63.482 Z M161.821,62.221 L162.347,62.221 L159.088,66.992 L158.563,66.992 L161.821,62.221 Z M160.861,65.738 C160.895,65.526 160.989,65.328 161.132,65.168 C161.275,65.008 161.461,64.893 161.668,64.835 C161.875,64.778 162.093,64.781 162.299,64.844 C162.504,64.906 162.686,65.027 162.825,65.191 C162.964,65.354 163.053,65.554 163.082,65.767 C163.11,65.98 163.077,66.196 162.987,66.391 C162.896,66.585 162.752,66.75 162.57,66.864 C162.389,66.979 162.179,67.04 161.964,67.0390121 C161.804,67.034 161.646,66.995 161.501,66.925 C161.356,66.855 161.228,66.756 161.124,66.633 C161.02,66.511 160.943,66.368 160.897,66.213 C160.852,66.059 160.84,65.897 160.861,65.738 Z M162.633,65.738 C162.633,65.172 162.373,64.824 161.964,64.824 C161.556,64.824 161.297,65.165 161.297,65.738 C161.297,66.31 161.549,66.651 161.964,66.651 C162.38,66.651 162.633,66.302 162.633,65.738 Z" id="Shape" fill="#CED7E2"/>
                <path d="M96.574,21.161 L15.335,21.161 C14.793,21.161 14.272,20.945 13.889,20.562 C13.505,20.178 13.29,19.658 13.29,19.115 C13.29,18.573 13.505,18.053 13.889,17.669 C14.272,17.285 14.793,17.07 15.335,17.07 L96.574,17.07 C97.117,17.07 97.637,17.285 98.021,17.669 C98.404,18.053 98.62,18.573 98.62,19.115 C98.62,19.658 98.404,20.178 98.021,20.562 C97.637,20.945 97.117,21.161 96.574,21.161 Z" id="Path" fill="#EC9D66"/>
                <path d="M153.144,19.708 C153.14,19.92 153.092,20.13 153.004,20.323 C152.915,20.516 152.787,20.689 152.628,20.83 C152.469,20.972 152.283,21.079 152.081,21.145 C151.879,21.211 151.665,21.235 151.454,21.215 C150.172,21.215 149.45,20.355 149.45,18.835 C149.45,17.206 150.37,16.333 151.705,16.333 C152.118,16.318 152.528,16.414 152.891,16.613 L152.631,17.144 C152.355,16.983 152.038,16.905 151.718,16.92 C150.75,16.92 150.13,17.527 150.13,18.719 C150.129,18.777 150.131,18.835 150.137,18.892 C150.295,18.682 150.503,18.515 150.742,18.406 C150.982,18.296 151.244,18.248 151.507,18.265 C151.711,18.242 151.918,18.263 152.114,18.324 C152.31,18.386 152.49,18.488 152.645,18.624 C152.799,18.76 152.923,18.926 153.009,19.113 C153.095,19.3 153.141,19.502 153.144,19.708 Z M152.483,19.735 C152.483,19.176 152.06,18.814 151.393,18.814 C151.259,18.799 151.124,18.812 150.995,18.851 C150.867,18.89 150.747,18.955 150.645,19.042 C150.542,19.129 150.458,19.235 150.398,19.356 C150.338,19.476 150.303,19.607 150.295,19.742 C150.295,20.233 150.69,20.662 151.422,20.662 C151.554,20.678 151.688,20.667 151.816,20.628 C151.943,20.589 152.06,20.523 152.16,20.436 C152.261,20.348 152.341,20.24 152.397,20.12 C152.452,19.999 152.482,19.868 152.483,19.735 Z" id="Shape" fill="#EC9D66"/>
                <path d="M153.657,18.774 C153.657,17.22 154.489,16.334 155.607,16.334 C156.725,16.334 157.549,17.22 157.549,18.774 C157.549,20.327 156.718,21.215 155.607,21.215 C154.496,21.215 153.657,20.328 153.657,18.774 Z M156.867,18.774 C156.867,17.553 156.346,16.94 155.606,16.94 C154.866,16.94 154.338,17.553 154.338,18.774 C154.338,19.994 154.858,20.608 155.606,20.608 C156.354,20.608 156.867,19.994 156.867,18.774 L156.867,18.774 Z" id="Shape" fill="#EC9D66"/>
                <path d="M158.127,17.65 C158.107,17.491 158.12,17.328 158.166,17.174 C158.212,17.019 158.29,16.876 158.395,16.754 C158.499,16.631 158.628,16.532 158.774,16.462 C158.919,16.393 159.077,16.354 159.238,16.349 C159.899,16.349 160.343,16.87 160.343,17.65 C160.343,18.431 159.899,18.952 159.238,18.952 C159.077,18.947 158.919,18.908 158.774,18.839 C158.628,18.769 158.499,18.67 158.395,18.547 C158.29,18.425 158.212,18.281 158.166,18.127 C158.12,17.973 158.107,17.81 158.127,17.65 Z M159.906,17.65 C159.906,17.078 159.654,16.737 159.238,16.737 C158.823,16.737 158.57,17.084 158.57,17.65 C158.57,18.217 158.831,18.564 159.238,18.564 C159.646,18.564 159.906,18.223 159.906,17.65 Z M162.115,16.389 L162.641,16.389 L159.381,21.16 L158.861,21.16 L162.115,16.389 Z M161.155,19.9 C161.189,19.688 161.283,19.491 161.426,19.331 C161.569,19.172 161.755,19.056 161.961,18.999 C162.168,18.941 162.386,18.944 162.591,19.007 C162.796,19.07 162.979,19.19 163.117,19.354 C163.256,19.517 163.345,19.717 163.373,19.93 C163.402,20.142 163.369,20.358 163.279,20.552 C163.188,20.747 163.044,20.911 162.863,21.026 C162.682,21.141 162.472,21.202 162.258,21.2010121 C162.097,21.196 161.939,21.157 161.795,21.087 C161.65,21.018 161.521,20.918 161.417,20.796 C161.313,20.673 161.236,20.53 161.191,20.376 C161.146,20.221 161.133,20.059 161.155,19.9 Z M162.927,19.9 C162.927,19.334 162.667,18.986 162.258,18.986 C161.849,18.986 161.591,19.327 161.591,19.9 C161.591,20.472 161.843,20.813 162.258,20.813 C162.674,20.813 162.927,20.465 162.927,19.9 Z" id="Shape" fill="#EC9D66"/>
                <path d="M135.185,94.104 C135.185,94.229 105.151,94.33 68.109,94.33 C31.067,94.33 1.026,94.229 1.026,94.104 C1.026,93.979 31.055,93.879 68.109,93.879 C105.163,93.879 135.185,93.983 135.185,94.104 Z" id="Path" fill="#E0E0E0"/>
                <path d="M135.185,102.061 C135.185,102.186 105.151,102.287 68.109,102.287 C31.067,102.287 1.026,102.186 1.026,102.061 C1.026,101.936 31.055,101.836 68.109,101.836 C105.163,101.836 135.185,101.937 135.185,102.061 Z" id="Path" fill="#E0E0E0"/>
                <path d="M135.185,109.256 C135.185,109.381 105.151,109.482 68.109,109.482 C31.067,109.482 1.026,109.381 1.026,109.256 C1.026,109.131 31.055,109.031 68.109,109.031 C105.163,109.031 135.185,109.131 135.185,109.256 Z" id="Path" fill="#E0E0E0"/>
            </g>
            <g id="card1" transform="translate(143.744998, 311.498000)" fill-rule="nonzero">
                <path d="M2.88,57.051 C2.24,57.051 1.627,56.797 1.175,56.345 C0.723,55.893 0.469,55.28 0.469,54.64 L0.469,9.398 C0.469,8.759 0.723,8.146 1.175,7.693 C1.627,7.241 2.24,6.987 2.88,6.987 C3.196,6.987 3.51,7.05 3.802,7.171 C4.095,7.292 4.361,7.469 4.585,7.693 C4.809,7.917 4.986,8.183 5.108,8.475 C5.229,8.768 5.29101191,9.081 5.29101191,9.398 L5.29101191,54.636 C5.292,54.953 5.23,55.267 5.109,55.56 C4.988,55.853 4.81,56.119 4.586,56.344 C4.362,56.568 4.096,56.746 3.803,56.867 C3.511,56.989 3.197,57.051 2.88,57.051 Z" id="Path" fill="#EAF1FA"/>
                <path d="M2.88,57.26 C2.24,57.26 1.627,57.006 1.175,56.554 C0.723,56.102 0.469,55.488 0.469,54.849 L0.469,25.686 C0.469,25.047 0.723,24.433 1.175,23.981 C1.627,23.529 2.24,23.275 2.88,23.274 C3.519,23.274 4.133,23.529 4.585,23.981 C5.037,24.433 5.291,25.046 5.291,25.686 L5.291,54.849 C5.291,55.488 5.037,56.102 4.585,56.554 C4.133,57.006 3.519,57.26 2.88,57.26 Z" id="Path" fill="#CED7E2"/>
                <polygon id="Path" fill="#CED7E2" points="1.366 59.147 1.366 63.168 0.954 63.168 0.954 59.514 0 59.514 0 59.147"/>
                <path d="M2.324,61.158 C2.324,59.877 2.997,59.112 3.927,59.112 C4.856,59.112 5.536,59.877 5.536,61.158 C5.536,62.439 4.857,63.203 3.927,63.203 C2.996,63.203 2.324,62.439 2.324,61.158 Z M5.111,61.158 C5.111,60.083 4.627,59.491 3.927,59.491 C3.226,59.491 2.743,60.083 2.743,61.158 C2.743,62.233 3.227,62.823 3.927,62.823 C4.627,62.823 5.111,62.233 5.111,61.158 Z" id="Shape" fill="#CED7E2"/>
                <path d="M12.526,57.051 C11.887,57.051 11.273,56.797 10.821,56.345 C10.369,55.893 10.115,55.28 10.114,54.64 L10.114,9.398 C10.115,8.759 10.369,8.145 10.821,7.693 C11.273,7.241 11.887,6.987 12.526,6.987 C13.165,6.987 13.778,7.241 14.231,7.693 C14.683,8.146 14.937,8.759 14.937,9.398 L14.937,54.636 C14.937,54.953 14.875,55.267 14.754,55.56 C14.634,55.853 14.456,56.119 14.232,56.343 C14.008,56.568 13.742,56.746 13.449,56.867 C13.157,56.989 12.843,57.051 12.526,57.051 Z" id="Path" fill="#EAF1FA"/>
                <path d="M12.526,57.261 C11.886,57.261 11.273,57.007 10.821,56.554 C10.368,56.102 10.114,55.489 10.114,54.849 L10.114,16.501 C10.115,15.861 10.369,15.248 10.821,14.796 C11.273,14.344 11.887,14.09 12.526,14.09 C13.165,14.09 13.778,14.344 14.231,14.796 C14.683,15.248 14.937,15.861 14.937,16.501 L14.937,54.849 C14.937,55.488 14.683,56.102 14.231,56.554 C13.779,57.006 13.165,57.26 12.526,57.261 Z" id="Path" fill="#CED7E2"/>
                <path d="M11.953,62.802 L11.953,63.17 L9.132,63.17 L9.132,62.876 L10.804,61.239 C11.258,60.791 11.344,60.521 11.344,60.245 C11.344,59.779 11.017,59.492 10.402,59.492 C10.197,59.48 9.992,59.513 9.802,59.591 C9.612,59.669 9.442,59.788 9.305,59.941 L9.012,59.688 C9.192,59.494 9.414,59.341 9.66,59.242 C9.906,59.142 10.171,59.098 10.436,59.113 C11.252,59.113 11.769,59.527 11.769,60.199 C11.759,60.445 11.695,60.685 11.58,60.903 C11.466,61.12 11.305,61.31 11.109,61.457 L9.741,62.802 L11.953,62.802 Z" id="Path" fill="#CED7E2"/>
                <path d="M12.445,61.159 C12.445,59.878 13.118,59.113 14.048,59.113 C14.978,59.113 15.657,59.878 15.657,61.159 C15.657,62.44 14.978,63.204 14.048,63.204 C13.117,63.204 12.445,62.44 12.445,61.159 Z M15.232,61.159 C15.232,60.084 14.749,59.492 14.048,59.492 C13.346,59.492 12.864,60.084 12.864,61.159 C12.864,62.234 13.348,62.824 14.048,62.824 C14.748,62.824 15.232,62.234 15.232,61.159 Z" id="Shape" fill="#CED7E2"/>
                <path d="M22.163,57.051 C21.523,57.051 20.91,56.797 20.458,56.345 C20.006,55.893 19.752,55.28 19.752,54.64 L19.752,9.398 C19.752,8.759 20.006,8.146 20.458,7.693 C20.91,7.241 21.523,6.987 22.163,6.987 C22.802,6.987 23.415,7.241 23.868,7.693 C24.32,8.145 24.5740119,8.759 24.5740119,9.398 L24.5740119,54.636 C24.575,54.953 24.513,55.267 24.392,55.56 C24.271,55.853 24.093,56.119 23.869,56.343 C23.645,56.568 23.379,56.746 23.086,56.867 C22.794,56.989 22.48,57.051 22.163,57.051 Z" id="Path" fill="#EAF1FA"/>
                <path d="M22.162,57.261 C21.522,57.26 20.909,57.006 20.457,56.554 C20.005,56.102 19.751,55.488 19.751,54.849 L19.751,32.575 C19.751,31.935 20.005,31.322 20.457,30.87 C20.909,30.418 21.522,30.164 22.162,30.164 C22.801,30.164 23.415,30.418 23.867,30.87 C24.319,31.322 24.573,31.935 24.573,32.575 L24.573,54.849 C24.573,55.489 24.319,56.102 23.867,56.554 C23.415,57.006 22.801,57.261 22.162,57.261 Z" id="Path" fill="#CED7E2"/>
                <path d="M21.537,62.015 C21.537,62.687 21.049,63.204 20.077,63.204 C19.546,63.221 19.029,63.035 18.63,62.684 L18.83,62.357 C19.169,62.669 19.617,62.836 20.077,62.822 C20.744,62.822 21.111,62.512 21.111,62.013 C21.111,61.529 20.773,61.214 20.026,61.214 L19.739,61.214 L19.739,60.909 L20.853,59.513 L18.796,59.513 L18.796,59.146 L21.382,59.146 L21.382,59.439 L20.244,60.868 C21.106,60.918 21.537,61.371 21.537,62.015 Z" id="Path" fill="#CED7E2"/>
                <path d="M22.115,61.159 C22.115,59.878 22.788,59.113 23.718,59.113 C24.649,59.113 25.327,59.878 25.327,61.159 C25.327,62.44 24.649,63.204 23.718,63.204 C22.788,63.204 22.115,62.44 22.115,61.159 Z M24.902,61.159 C24.902,60.084 24.419,59.492 23.718,59.492 C23.018,59.492 22.535,60.084 22.535,61.159 C22.535,62.234 23.018,62.824 23.718,62.824 C24.419,62.824 24.901,62.234 24.901,61.159 L24.902,61.159 Z" id="Shape" fill="#CED7E2"/>
                <path d="M31.801,57.051 C31.162,57.051 30.549,56.797 30.096,56.345 C29.644,55.893 29.39,55.28 29.39,54.64 L29.39,9.398 C29.39,8.759 29.644,8.145 30.096,7.693 C30.549,7.241 31.162,6.987 31.801,6.987 C32.441,6.987 33.054,7.241 33.506,7.693 C33.958,8.146 34.2120119,8.759 34.2120119,9.398 L34.2120119,54.636 C34.213,54.953 34.151,55.267 34.03,55.56 C33.909,55.853 33.731,56.119 33.508,56.343 C33.284,56.568 33.018,56.746 32.725,56.867 C32.432,56.989 32.118,57.051 31.801,57.051 Z" id="Path" fill="#EAF1FA"/>
                <path d="M31.801,57.261 C31.162,57.261 30.548,57.007 30.096,56.554 C29.644,56.102 29.39,55.489 29.39,54.849 L29.39,16.501 C29.39,15.861 29.644,15.248 30.096,14.796 C30.549,14.344 31.162,14.09 31.801,14.09 C32.441,14.09 33.054,14.344 33.506,14.796 C33.958,15.248 34.212,15.861 34.212,16.501 L34.212,54.849 C34.212,55.488 33.958,56.102 33.506,56.554 C33.054,57.006 32.441,57.26 31.801,57.261 Z" id="Path" fill="#CED7E2"/>
                <polygon id="Path" fill="#CED7E2" points="31.822 62.113 31.018 62.113 31.018 63.17 30.605 63.17 30.605 62.113 28.336 62.113 28.336 61.814 30.467 59.148 30.926 59.148 28.87 61.745 30.616 61.745 30.616 60.815 31.018 60.815 31.018 61.745 31.822 61.745"/>
                <path d="M32.2,61.159 C32.2,59.878 32.873,59.113 33.803,59.113 C34.734,59.113 35.412,59.878 35.412,61.159 C35.412,62.44 34.734,63.204 33.803,63.204 C32.873,63.204 32.2,62.44 32.2,61.159 Z M34.987,61.159 C34.987,60.084 34.504,59.492 33.803,59.492 C33.102,59.492 32.62,60.084 32.62,61.159 C32.62,62.234 33.102,62.824 33.803,62.824 C34.504,62.824 34.987,62.234 34.987,61.159 Z" id="Shape" fill="#CED7E2"/>
                <path d="M41.447,57.051 C40.808,57.051 40.194,56.797 39.742,56.345 C39.29,55.893 39.036,55.28 39.036,54.64 L39.036,9.398 C39.036,8.759 39.29,8.146 39.742,7.693 C40.194,7.241 40.808,6.987 41.447,6.987 C42.086,6.987 42.699,7.241 43.152,7.693 C43.604,8.146 43.858,8.759 43.858,9.398 L43.858,54.636 C43.858,54.953 43.796,55.267 43.675,55.56 C43.555,55.853 43.377,56.119 43.153,56.343 C42.929,56.568 42.663,56.746 42.371,56.867 C42.078,56.989 41.764,57.051 41.447,57.051 Z" id="Path" fill="#EAF1FA"/>
                <path d="M41.447,57.26 C40.808,57.26 40.194,57.006 39.742,56.553 C39.29,56.101 39.036,55.488 39.036,54.848 L39.036,23.848 C39.036,23.209 39.29,22.596 39.742,22.144 C40.194,21.692 40.808,21.438 41.447,21.438 C42.086,21.438 42.699,21.692 43.152,22.144 C43.604,22.596 43.858,23.209 43.858,23.848 L43.858,54.848 C43.858,55.488 43.604,56.101 43.152,56.553 C42.7,57.006 42.086,57.26 41.447,57.26 Z" id="Path" fill="#CED7E2"/>
                <path d="M41.233,61.986 C41.233,62.671 40.757,63.201 39.774,63.201 C39.245,63.217 38.729,63.031 38.332,62.68 L38.533,62.353 C38.868,62.665 39.311,62.832 39.768,62.818 C40.451,62.818 40.813,62.485 40.813,61.996 C40.813,61.476 40.492,61.158 39.469,61.158 L38.612,61.158 L38.82,59.142 L41.02,59.142 L41.02,59.509 L39.181,59.509 L39.043,60.79 L39.564,60.79 C40.773,60.797 41.233,61.274 41.233,61.986 Z" id="Path" fill="#CED7E2"/>
                <path d="M41.749,61.159 C41.749,59.878 42.421,59.113 43.352,59.113 C44.283,59.113 44.961,59.878 44.961,61.159 C44.961,62.44 44.283,63.204 43.352,63.204 C42.421,63.204 41.749,62.44 41.749,61.159 Z M44.535,61.159 C44.535,60.084 44.053,59.492 43.352,59.492 C42.651,59.492 42.169,60.084 42.169,61.159 C42.169,62.234 42.652,62.824 43.352,62.824 C44.052,62.824 44.535,62.234 44.535,61.159 Z" id="Shape" fill="#CED7E2"/>
                <path d="M51.079,57.051 C50.439,57.051 49.826,56.797 49.374,56.345 C48.922,55.893 48.668,55.28 48.668,54.64 L48.668,9.398 C48.668,8.759 48.922,8.146 49.374,7.693 C49.826,7.241 50.439,6.987 51.079,6.987 C51.718,6.987 52.332,7.241 52.784,7.693 C53.236,8.145 53.4900119,8.759 53.4900119,9.398 L53.4900119,54.636 C53.491,54.953 53.429,55.267 53.308,55.56 C53.187,55.853 53.009,56.119 52.785,56.343 C52.561,56.568 52.295,56.746 52.002,56.867 C51.71,56.989 51.396,57.051 51.079,57.051 Z" id="Path" fill="#EAF1FA"/>
                <path d="M51.081,57.052 C50.475,57.062 49.887,56.84 49.439,56.432 C48.991,56.023 48.716,55.459 48.67,54.854 L48.67,32.575 C48.649,32.243 48.695,31.91 48.806,31.596 C48.917,31.282 49.09,30.994 49.315,30.748 C49.54,30.503 49.813,30.306 50.117,30.169 C50.42,30.032 50.748,29.958 51.081,29.951 C51.721,29.951 52.334,30.205 52.786,30.658 C53.238,31.11 53.493,31.723 53.493,32.363 L53.493,54.637 C53.493,54.954 53.431,55.268 53.31,55.561 C53.189,55.854 53.011,56.12 52.787,56.344 C52.563,56.569 52.297,56.747 52.005,56.868 C51.712,56.989 51.398,57.052 51.081,57.052 Z" id="Path" fill="#CED7E2"/>
                <path d="M50.76,61.97 C50.758,62.143 50.721,62.315 50.649,62.473 C50.578,62.631 50.474,62.773 50.345,62.889 C50.216,63.005 50.065,63.093 49.9,63.148 C49.735,63.202 49.56,63.221 49.388,63.205 C48.319,63.205 47.739,62.463 47.739,61.193 C47.739,59.826 48.485,59.111 49.578,59.111 C49.91,59.097 50.239,59.172 50.532,59.33 L50.365,59.663 C50.129,59.525 49.858,59.46 49.584,59.474 C48.717,59.474 48.159,60.03 48.159,61.122 C48.159,61.214 48.165,61.328 48.177,61.449 C48.292,61.227 48.47,61.043 48.688,60.921 C48.907,60.799 49.156,60.743 49.406,60.76 C49.576,60.741 49.749,60.757 49.912,60.809 C50.076,60.861 50.226,60.947 50.354,61.061 C50.482,61.175 50.585,61.315 50.655,61.472 C50.724,61.628 50.76,61.798 50.76,61.97 Z M50.352,61.981 C50.352,61.452 49.962,61.113 49.341,61.113 C49.214,61.099 49.086,61.111 48.965,61.148 C48.843,61.185 48.73,61.247 48.634,61.329 C48.537,61.411 48.458,61.513 48.402,61.627 C48.345,61.741 48.313,61.865 48.307,61.992 C48.307,62.434 48.675,62.853 49.369,62.853 C49.493,62.868 49.618,62.856 49.736,62.819 C49.855,62.782 49.964,62.72 50.057,62.638 C50.149,62.555 50.224,62.454 50.275,62.341 C50.326,62.228 50.352,62.105 50.352,61.981 Z" id="Shape" fill="#CED7E2"/>
                <path d="M51.232,61.159 C51.232,59.878 51.904,59.113 52.835,59.113 C53.765,59.113 54.444,59.878 54.444,61.159 C54.444,62.44 53.765,63.204 52.835,63.204 C51.904,63.204 51.232,62.44 51.232,61.159 Z M54.018,61.159 C54.018,60.084 53.536,59.492 52.835,59.492 C52.134,59.492 51.651,60.084 51.651,61.159 C51.651,62.234 52.134,62.824 52.835,62.824 C53.536,62.824 54.018,62.234 54.018,61.159 Z" id="Shape" fill="#CED7E2"/>
                <path d="M60.72,57.05 C60.081,57.05 59.468,56.796 59.015,56.344 C58.563,55.892 58.309,55.279 58.309,54.639 L58.309,9.397 C58.309,8.758 58.563,8.144 59.015,7.692 C59.468,7.24 60.081,6.986 60.72,6.986 C61.36,6.986 61.973,7.24 62.425,7.692 C62.877,8.145 63.1310119,8.758 63.1310119,9.397 L63.1310119,54.635 C63.132,54.952 63.07,55.266 62.949,55.559 C62.828,55.852 62.65,56.118 62.426,56.342 C62.203,56.567 61.937,56.745 61.644,56.866 C61.351,56.988 61.037,57.05 60.72,57.05 Z" id="Path" fill="#EAF1FA"/>
                <path d="M60.721,57.26 C60.082,57.26 59.468,57.006 59.016,56.554 C58.564,56.101 58.31,55.488 58.31,54.848 L58.31,14.204 C58.31,13.564 58.564,12.951 59.016,12.499 C59.469,12.047 60.082,11.793 60.721,11.793 C61.361,11.793 61.974,12.047 62.426,12.499 C62.878,12.951 63.132,13.564 63.132,14.204 L63.132,54.848 C63.132,55.488 62.878,56.101 62.426,56.553 C61.974,57.006 61.361,57.26 60.721,57.26 Z" id="Path" fill="#CED7E2"/>
                <polygon id="Path" fill="#CED7E2" points="60.206 59.148 60.206 59.441 58.523 63.171 58.075 63.171 59.73 59.517 57.662 59.517 57.662 60.269 57.254 60.269 57.254 59.149"/>
                <path d="M60.633,61.158 C60.633,59.877 61.305,59.112 62.236,59.112 C63.167,59.112 63.844,59.877 63.844,61.158 C63.844,62.439 63.166,63.203 62.236,63.203 C61.306,63.203 60.633,62.439 60.633,61.158 Z M63.419,61.158 C63.419,60.083 62.937,59.491 62.236,59.491 C61.535,59.491 61.052,60.083 61.052,61.158 C61.052,62.233 61.535,62.823 62.236,62.823 C62.937,62.823 63.416,62.233 63.416,61.158 L63.419,61.158 Z" id="Shape" fill="#CED7E2"/>
                <path d="M70.355,57.051 C69.716,57.051 69.103,56.797 68.651,56.345 C68.198,55.893 67.944,55.28 67.944,54.64 L67.944,9.398 C67.944,8.759 68.198,8.146 68.651,7.693 C69.103,7.241 69.716,6.987 70.355,6.987 C70.995,6.987 71.608,7.241 72.06,7.693 C72.512,8.145 72.767,8.759 72.767,9.398 L72.767,54.636 C72.767,54.953 72.705,55.267 72.584,55.56 C72.463,55.853 72.286,56.119 72.062,56.343 C71.838,56.568 71.572,56.746 71.279,56.867 C70.986,56.989 70.672,57.051 70.355,57.051 Z" id="Path" fill="#EAF1FA"/>
                <path d="M70.356,57.261 C69.717,57.261 69.104,57.007 68.651,56.554 C68.199,56.102 67.945,55.489 67.945,54.849 L67.945,37.168 C67.946,36.529 68.2,35.916 68.652,35.464 C69.104,35.012 69.717,34.758 70.356,34.758 C70.996,34.758 71.609,35.012 72.061,35.464 C72.513,35.916 72.767,36.529 72.768,37.169 L72.768,54.85 C72.767,55.49 72.513,56.103 72.061,56.555 C71.609,57.007 70.996,57.261 70.356,57.261 Z" id="Path" fill="#CED7E2"/>
                <path d="M69.8740095,62.05 C69.8740095,62.762 69.267,63.204 68.313,63.204 C67.359,63.204 66.762,62.762 66.762,62.05 C66.759,61.821 66.835,61.599 66.976,61.419 C67.117,61.239 67.315,61.113 67.537,61.061 C67.351,61.001 67.188,60.883 67.074,60.724 C66.96,60.564 66.901,60.372 66.905,60.176 C66.905,59.522 67.463,59.113 68.313,59.113 C69.163,59.113 69.732,59.522 69.732,60.176 C69.735,60.373 69.674,60.566 69.558,60.726 C69.442,60.885 69.277,61.003 69.088,61.061 C69.312,61.112 69.512,61.238 69.654,61.418 C69.797,61.597 69.875,61.82 69.8740095,62.05 Z M69.449,62.044 C69.449,61.549 69.024,61.239 68.312,61.239 C67.6,61.239 67.184,61.549 67.184,62.044 C67.184,62.538 67.604,62.853 68.312,62.853 C69.02,62.853 69.449,62.543 69.449,62.044 Z M68.312,60.912 C68.938,60.912 69.311,60.631 69.311,60.193 C69.311,59.741 68.915,59.464 68.312,59.464 C67.709,59.464 67.318,59.741 67.318,60.188 C67.318,60.636 67.686,60.912 68.312,60.912 Z" id="Shape" fill="#CED7E2"/>
                <path d="M70.444,61.159 C70.444,59.878 71.117,59.113 72.048,59.113 C72.978,59.113 73.656,59.878 73.656,61.159 C73.656,62.44 72.977,63.204 72.048,63.204 C71.118,63.204 70.444,62.44 70.444,61.159 Z M73.231,61.159 C73.231,60.084 72.748,59.492 72.048,59.492 C71.347,59.492 70.863,60.084 70.863,61.159 C70.863,62.234 71.347,62.824 72.048,62.824 C72.748,62.824 73.231,62.234 73.231,61.159 Z" id="Shape" fill="#CED7E2"/>
                <path d="M79.997,57.05 C79.68,57.05 79.366,56.988 79.074,56.867 C78.781,56.746 78.515,56.568 78.291,56.344 C78.068,56.12 77.89,55.855 77.769,55.562 C77.647,55.27 77.585,54.956 77.585,54.639 L77.585,9.397 C77.585,9.08 77.647,8.767 77.769,8.474 C77.89,8.182 78.068,7.916 78.291,7.692 C78.515,7.468 78.781,7.291 79.074,7.17 C79.366,7.049 79.68,6.986 79.997,6.986 C80.636,6.986 81.249,7.24 81.701,7.692 C82.153,8.145 82.4070119,8.758 82.4070119,9.397 L82.4070119,54.635 C82.408,54.952 82.346,55.266 82.225,55.559 C82.104,55.852 81.927,56.118 81.703,56.342 C81.479,56.567 81.213,56.745 80.92,56.866 C80.627,56.988 80.314,57.05 79.997,57.05 Z" id="Path" fill="#EAF1FA"/>
                <path d="M79.995,57.05 C79.388,57.061 78.801,56.839 78.352,56.431 C77.904,56.022 77.629,55.457 77.583,54.852 L77.583,48.652 C77.562,48.32 77.608,47.987 77.719,47.673 C77.83,47.359 78.003,47.07 78.228,46.825 C78.454,46.58 78.726,46.383 79.03,46.246 C79.334,46.109 79.662,46.035 79.995,46.028 C80.634,46.028 81.248,46.282 81.7,46.734 C82.152,47.187 82.406,47.8 82.406,48.439 L82.406,54.64 C82.406,55.279 82.152,55.892 81.7,56.344 C81.248,56.796 80.634,57.05 79.995,57.05 Z" id="Path" fill="#CED7E2"/>
                <path d="M79.266,61.127 C79.266,62.494 78.519,63.209 77.428,63.209 C77.096,63.224 76.766,63.148 76.474,62.991 L76.64,62.658 C76.876,62.794 77.147,62.86 77.42,62.847 C78.288,62.847 78.845,62.29 78.845,61.198 C78.845,61.112 78.84,60.992 78.828,60.871 C78.713,61.094 78.535,61.277 78.316,61.399 C78.098,61.522 77.848,61.578 77.598,61.56 C77.428,61.58 77.255,61.564 77.092,61.512 C76.928,61.461 76.778,61.375 76.65,61.261 C76.522,61.148 76.419,61.008 76.349,60.852 C76.279,60.695 76.242,60.526 76.242,60.354 C76.244,60.181 76.282,60.009 76.353,59.851 C76.425,59.693 76.528,59.551 76.657,59.435 C76.787,59.319 76.938,59.231 77.103,59.176 C77.268,59.122 77.443,59.102 77.615,59.119 C78.686,59.112 79.266,59.853 79.266,61.127 Z M78.698,60.328 C78.698,59.887 78.33,59.467 77.635,59.467 C77.511,59.453 77.386,59.465 77.268,59.502 C77.15,59.539 77.041,59.601 76.948,59.684 C76.855,59.766 76.781,59.867 76.73,59.981 C76.679,60.094 76.653,60.216 76.653,60.34 C76.653,60.869 77.043,61.208 77.663,61.208 C77.79,61.222 77.918,61.21 78.04,61.173 C78.162,61.135 78.275,61.073 78.372,60.991 C78.47,60.908 78.548,60.806 78.605,60.691 C78.661,60.576 78.692,60.451 78.698,60.324 L78.698,60.328 Z" id="Shape" fill="#CED7E2"/>
                <path d="M79.863,61.158 C79.863,59.877 80.536,59.112 81.466,59.112 C82.397,59.112 83.076,59.877 83.076,61.158 C83.076,62.439 82.397,63.203 81.466,63.203 C80.536,63.203 79.863,62.439 79.863,61.158 Z M82.65,61.158 C82.65,60.083 82.167,59.491 81.466,59.491 C80.766,59.491 80.283,60.083 80.283,61.158 C80.283,62.233 80.766,62.823 81.466,62.823 C82.167,62.823 82.65,62.233 82.65,61.158 Z" id="Shape" fill="#CED7E2"/>
                <path d="M89.629,57.051 C88.99,57.051 88.377,56.797 87.925,56.345 C87.472,55.893 87.218,55.28 87.218,54.64 L87.218,9.398 C87.218,8.759 87.472,8.145 87.925,7.693 C88.377,7.241 88.99,6.987 89.629,6.987 C90.269,6.987 90.882,7.241 91.334,7.693 C91.786,8.146 92.0400119,8.759 92.0400119,9.398 L92.0400119,54.636 C92.041,54.953 91.979,55.267 91.858,55.56 C91.737,55.853 91.56,56.119 91.336,56.343 C91.112,56.568 90.846,56.746 90.553,56.867 C90.26,56.989 89.946,57.051 89.629,57.051 Z" id="Path" fill="#EAF1FA"/>
                <path d="M89.631,57.051 C89.024,57.061 88.437,56.84 87.988,56.431 C87.54,56.022 87.265,55.458 87.219,54.853 L87.219,32.574 C87.198,32.242 87.244,31.909 87.355,31.595 C87.466,31.281 87.639,30.993 87.865,30.747 C88.09,30.502 88.363,30.305 88.666,30.168 C88.97,30.031 89.298,29.957 89.631,29.95 C90.27,29.95 90.883,30.205 91.335,30.657 C91.787,31.109 92.0410119,31.722 92.0410119,32.362 L92.0410119,54.636 C92.042,54.953 91.98,55.267 91.859,55.56 C91.738,55.853 91.561,56.119 91.337,56.343 C91.113,56.568 90.847,56.746 90.554,56.867 C90.261,56.989 89.948,57.051 89.631,57.051 Z" id="Path" fill="#CED7E2"/>
                <polygon id="Path" fill="#CED7E2" points="86.182 59.148 86.182 63.17 85.769 63.17 85.769 59.516 84.82 59.516 84.82 59.148"/>
                <path d="M87.141,61.159 C87.141,59.878 87.813,59.113 88.743,59.113 C89.673,59.113 90.352,59.878 90.352,61.159 C90.352,62.44 89.674,63.204 88.743,63.204 C87.812,63.204 87.141,62.44 87.141,61.159 Z M89.927,61.159 C89.927,60.084 89.444,59.492 88.743,59.492 C88.042,59.492 87.56,60.084 87.56,61.159 C87.56,62.234 88.043,62.824 88.743,62.824 C89.443,62.824 89.927,62.234 89.927,61.159 Z" id="Shape" fill="#CED7E2"/>
                <path d="M90.939,61.159 C90.939,59.878 91.611,59.113 92.542,59.113 C93.472,59.113 94.15,59.878 94.15,61.159 C94.15,62.44 93.472,63.204 92.542,63.204 C91.612,63.204 90.939,62.44 90.939,61.159 Z M93.725,61.159 C93.725,60.084 93.243,59.492 92.542,59.492 C91.841,59.492 91.358,60.084 91.358,61.159 C91.358,62.234 91.841,62.824 92.542,62.824 C93.243,62.824 93.725,62.234 93.725,61.159 Z" id="Shape" fill="#CED7E2"/>
                <path d="M109.614,66.502 C109.489,66.502 109.389,51.614 109.389,33.253 C109.389,14.892 109.489,-5.68434189e-14 109.614,-5.68434189e-14 C109.739,-5.68434189e-14 109.84,14.885 109.84,33.253 C109.84,51.621 109.739,66.502 109.614,66.502 Z" id="Path" fill="#E0E0E0"/>
            </g>
            <g id="doccard3" transform="translate(431.999998, 333.915000)" fill-rule="nonzero">
                <path d="M91.124,23.112 L91.971,89.912 C91.971,92.167 89.996,94.14 87.739,94.14 L22.569,94.14 C20.312,94.14 18.337,92.167 18.337,89.912 L18.337,4.228 C18.337,1.973 20.312,0 22.569,0 L69.965,0 L91.124,23.112 Z" id="Path" fill="#FFFFFF"/>
                <path d="M50.219,80.894 L47.962,80.894 C47.397,80.894 47.115,80.33 47.115,80.048 C47.115,79.483 47.679,79.201 47.962,79.201 L50.219,79.201 C50.783,79.201 51.065,79.765 51.065,80.048 C51.347,80.33 50.783,80.894 50.219,80.894 Z" id="Path" fill="#E3EAF2"/>
                <path d="M43.728,80.894 L29.904,80.894 C29.34,80.894 29.058,80.33 29.058,80.048 C29.058,79.483 29.622,79.201 29.904,79.201 L43.728,79.201 C44.292,79.201 44.574,79.765 44.574,80.048 C44.574,80.33 44.292,80.894 43.728,80.894 Z" id="Path" fill="#E3EAF2"/>
                <path d="M61.784,14.096 L30.468,14.096 C29.622,14.096 29.058,13.531 29.058,12.685 C29.058,11.839 29.622,11.274 30.468,11.274 L61.784,11.274 C62.63,11.274 63.194,11.839 63.194,12.685 C62.912,13.531 62.348,14.096 61.784,14.096 Z" id="Path" fill="#CED7E2"/>
                <path d="M42.317,21.424 L30.468,21.424 C29.622,21.424 29.058,20.86 29.058,20.013 C29.058,19.167 29.622,18.603 30.468,18.603 L42.317,18.603 C43.164,18.603 43.728,19.167 43.728,20.013 C43.728,20.86 43.164,21.424 42.317,21.424 Z" id="Path" fill="#CED7E2"/>
                <path d="M69.963,0 L69.963,18.321 C69.963,20.857 72.22,23.112 74.759,23.112 L91.122,23.112" id="Path" fill="#CED7E2"/>
                <path d="M80.692,35.515 L64.328,35.515 L47.401,35.515 L31.602,35.515 C29.91,35.515 28.499,36.924 28.499,38.615 L28.499,67.083 C28.499,68.774 29.91,70.183 31.602,70.183 L80.692,70.183 C82.384,70.183 83.795,68.774 83.795,67.083 L83.795,38.897 C84.077,36.924 82.666,35.515 80.692,35.515 Z M48.53,60.6 L48.53,54.117 L63.482,54.117 L63.482,60.6 L48.53,60.6 Z M63.482,62.573 L63.482,68.492 L48.53,68.492 L48.53,62.573 L63.482,62.573 Z M63.482,45.943 L63.482,52.426 L48.53,52.426 L48.53,45.943 L63.482,45.943 Z M48.53,43.97 L48.53,37.488 L63.482,37.488 L63.482,43.97 L48.53,43.97 Z M82.102,52.426 L65.457,52.426 L65.457,45.943 L82.102,45.943 L82.102,52.426 Z M46.555,52.426 L30.474,52.426 L30.474,45.943 L46.555,45.943 L46.555,52.426 Z M30.474,54.399 L46.555,54.399 L46.555,60.882 L30.474,60.882 L30.474,54.399 Z M65.457,54.399 L82.102,54.399 L82.102,60.882 L65.457,60.882 L65.457,54.399 Z M82.102,38.897 L82.102,44.252 L65.457,44.252 L65.457,37.77 L80.692,37.77 C81.538,37.488 82.102,38.051 82.102,38.897 Z M31.602,37.488 L46.555,37.488 L46.555,43.97 L30.474,43.97 L30.474,38.615 C30.474,38.051 31.038,37.488 31.602,37.488 Z M30.474,67.083 L30.474,62.573 L46.555,62.573 L46.555,68.492 L31.602,68.492 C31.038,68.492 30.474,67.928 30.474,67.083 Z M80.692,68.492 L65.457,68.492 L65.457,62.573 L82.102,62.573 L82.102,67.083 C82.102,67.928 81.538,68.492 80.692,68.492 Z" id="Shape" fill="#E3EAF2"/>
                <g id="xls" transform="translate(0.000000, 31.849000)">
                    <path d="M38.369,22.548 L3.385,22.548 C1.693,22.548 0,21.139 0,19.166 L0,3.382 C0,1.691 1.411,0 3.385,0 L38.369,0 C40.061,0 41.754,1.409 41.754,3.382 L41.754,19.166 C41.754,21.139 40.061,22.548 38.369,22.548 Z" id="Path" fill="#65CFAA"/>
                    <polygon id="Path" fill="#FFFFFF" points="10.718 11.274 7.614 6.482 9.871 6.482 11.846 9.864 13.821 6.482 16.078 6.482 12.975 11.274 16.078 16.065 13.821 16.065 11.846 12.683 9.871 16.065 7.896 16.065"/>
                    <polygon id="Path" fill="#FFFFFF" points="25.111 16.065 18.904 16.065 18.904 6.482 20.879 6.482 20.879 14.374 25.111 14.374"/>
                    <path d="M29.054,13.529 C29.054,14.375 29.9,14.939 31.029,14.939 C32.157,14.939 32.722,14.375 32.722,13.811 C32.722,13.247 32.157,12.966 31.029,12.684 L29.9,12.402 C28.208,12.12 27.361,10.993 27.361,9.865 C27.361,8.174 28.772,7.047 31.029,7.047 C33.286,7.047 34.696,8.174 34.696,9.865 L32.722,9.865 C32.722,9.02 31.875,8.456 31.029,8.456 C29.9,8.456 29.336,9.02 29.336,9.583 C29.336,10.147 29.9,10.429 31.029,10.711 L32.157,10.993 C34.132,11.274 34.978,12.12 34.978,13.811 C34.978,15.784 33.568,16.912 31.029,16.912 C28.772,16.912 27.361,15.784 27.079,14.093 L29.054,14.093 L29.054,13.529 Z" id="Path" fill="#FFFFFF"/>
                </g>
            </g>
            <g id="doccard2" transform="translate(66.999998, 332.915000)" fill-rule="nonzero">
                <path d="M91.124,23.394 L91.971,90.476 C91.971,92.731 89.996,94.704 87.739,94.704 L22.5687,94.704 C20.3118,94.704 18.3369,92.731 18.3369,90.476 L18.3369,4.228 C18.3369,1.973 20.3118,-5.68434189e-14 22.5687,-5.68434189e-14 L69.965,-5.68434189e-14 L91.124,23.394 Z" id="Path" fill="#FFFFFF"/>
                <path d="M79.84,69.621 L40.625,69.621 C40.06,69.621 39.778,69.057 39.778,68.775 C39.778,68.211 40.343,67.929 40.625,67.929 L79.84,67.929 C80.404,67.929 80.686,68.493 80.686,68.775 C80.686,69.057 80.404,69.621 79.84,69.621 Z" id="Path" fill="#E3EAF2"/>
                <path d="M35.826,69.621 L29.055,69.621 C28.491,69.621 28.209,69.057 28.209,68.775 C28.209,68.211 28.773,67.929 29.055,67.929 L35.826,67.929 C36.391,67.929 36.673,68.493 36.673,68.775 C36.673,69.057 36.391,69.621 35.826,69.621 Z" id="Path" fill="#E3EAF2"/>
                <path d="M79.557,59.192 L62.065,59.192 C61.501,59.192 61.219,58.628 61.219,58.345 C61.219,58.063 61.783,57.499 62.065,57.499 L79.557,57.499 C80.121,57.499 80.403,58.063 80.403,58.345 C80.403,58.628 80.121,59.192 79.557,59.192 Z" id="Path" fill="#E3EAF2"/>
                <path d="M54.728,59.192 L29.055,59.192 C28.491,59.192 28.209,58.628 28.209,58.345 C28.209,58.063 28.773,57.499 29.055,57.499 L54.728,57.499 C55.293,57.499 55.575,58.063 55.575,58.345 C55.575,58.628 55.293,59.192 54.728,59.192 Z" id="Path" fill="#E3EAF2"/>
                <path d="M80.127,48.481 L73.356,48.481 C72.792,48.481 72.51,47.917 72.51,47.634 C72.51,47.352 73.074,46.788 73.356,46.788 L80.127,46.788 C80.691,46.788 80.973,47.352 80.973,47.634 C80.973,47.917 80.691,48.481 80.127,48.481 Z" id="Path" fill="#E3EAF2"/>
                <path d="M66.865,48.481 L29.625,48.481 C29.06,48.481 28.778,47.917 28.778,47.634 C28.778,47.352 29.343,46.788 29.625,46.788 L66.865,46.788 C67.429,46.788 67.711,47.352 67.711,47.634 C67.711,47.917 67.429,48.481 66.865,48.481 Z" id="Path" fill="#E3EAF2"/>
                <path d="M50.221,81.176 L47.682,81.176 C47.118,81.176 46.836,80.612 46.836,80.33 C46.836,79.766 47.4,79.483 47.682,79.483 L49.939,79.483 C50.504,79.483 50.786,80.048 50.786,80.33 C51.068,80.612 50.786,81.176 50.221,81.176 Z" id="Path" fill="#E3EAF2"/>
                <path d="M43.449,81.176 L29.625,81.176 C29.06,81.176 28.778,80.612 28.778,80.33 C28.778,79.766 29.343,79.483 29.625,79.483 L43.449,79.483 C44.013,79.483 44.295,80.048 44.295,80.33 C44.577,80.612 44.013,81.176 43.449,81.176 Z" id="Path" fill="#E3EAF2"/>
                <path d="M80.41,38.052 L56.147,38.052 C55.583,38.052 55.301,37.488 55.301,37.206 C55.301,36.924 55.865,36.359 56.147,36.359 L80.127,36.359 C80.692,36.359 80.974,36.924 80.974,37.206 C80.974,37.488 80.974,38.052 80.41,38.052 Z" id="Path" fill="#E3EAF2"/>
                <path d="M48.524,38.052 L29.904,38.052 C29.34,38.052 29.058,37.488 29.058,37.206 C29.058,36.924 29.622,36.359 29.904,36.359 L48.524,36.359 C49.088,36.359 49.37,36.924 49.37,37.206 C49.37,37.488 49.088,38.052 48.524,38.052 Z" id="Path" fill="#E3EAF2"/>
                <path d="M61.504,14.095 L30.189,14.095 C29.343,14.095 28.778,13.53 28.778,12.684 C28.778,11.838 29.343,11.273 30.189,11.273 L61.504,11.273 C62.351,11.273 62.915,11.838 62.915,12.684 C62.915,13.53 62.351,14.095 61.504,14.095 Z" id="Path" fill="#CED7E2"/>
                <path d="M42.317,21.705 L30.468,21.705 C29.622,21.705 29.058,21.141 29.058,20.294 C29.058,19.448 29.622,18.884 30.468,18.884 L42.317,18.884 C43.164,18.884 43.728,19.448 43.728,20.294 C43.446,21.141 42.882,21.705 42.317,21.705 Z" id="Path" fill="#CED7E2"/>
                <path d="M69.684,0 L69.684,18.603 C69.684,21.139 71.941,23.394 74.48,23.394 L90.843,23.394" id="Path" fill="#CED7E2"/>
                <g id="pdf" transform="translate(0.000000, 32.132000)">
                    <path d="M38.369,22.548 L3.3855,22.548 C1.6927,22.548 0,21.139 0,19.166 L0,3.382 C0,1.691 1.4106,0 3.3855,0 L38.369,0 C40.061,0 41.754,1.409 41.754,3.382 L41.754,19.166 C41.472,21.139 40.061,22.548 38.369,22.548 Z" id="Path" fill="#E25653"/>
                    <path d="M12.1333,6.482 C14.1082,6.482 15.5188,7.892 15.5188,9.865 C15.5188,11.838 14.1082,13.247 12.1333,13.247 L10.1584,13.247 L10.1584,16.065 L8.1836,16.065 L8.1836,6.482 L12.1333,6.482 Z M10.1584,11.556 L11.5691,11.556 C12.6975,11.556 13.2618,10.992 13.2618,9.865 C13.2618,8.737 12.6975,8.173 11.5691,8.173 L10.1584,8.173 L10.1584,11.556 Z" id="Shape" fill="#FFFFFF"/>
                    <path d="M21.4439,6.482 C24.2652,6.482 25.9579,8.173 25.9579,11.274 C25.9579,14.374 24.5473,16.065 21.4439,16.065 L17.7764,16.065 L17.7764,6.482 L21.4439,6.482 Z M19.7512,14.374 L21.1618,14.374 C22.8545,14.374 23.983,13.247 23.983,11.274 C23.983,9.301 22.8545,8.173 21.1618,8.173 L19.7512,8.173 L19.7512,14.374 Z" id="Shape" fill="#FFFFFF"/>
                    <polygon id="Path" fill="#FFFFFF" points="28.497 16.065 28.497 6.482 34.704 6.482 34.704 8.173 30.754 8.173 30.754 10.71 34.704 10.71 34.704 12.401 30.754 12.401 30.754 16.065"/>
                </g>
            </g>
            <g id="doccard1" transform="translate(249.999998, 332.915000)" fill-rule="nonzero">
                <path d="M91.124,23.394 L91.971,90.476 C91.971,92.731 89.996,94.704 87.739,94.704 L22.569,94.704 C20.312,94.704 18.337,92.731 18.337,90.476 L18.337,4.228 C18.337,1.973 20.312,-5.68434189e-14 22.569,-5.68434189e-14 L69.965,-5.68434189e-14 L91.124,23.394 Z" id="Path" fill="#FFFFFF"/>
                <path d="M79.84,69.621 L40.625,69.621 C40.06,69.621 39.778,69.057 39.778,68.775 C39.778,68.211 40.343,67.929 40.625,67.929 L79.84,67.929 C80.404,67.929 80.686,68.493 80.686,68.775 C80.686,69.057 80.404,69.621 79.84,69.621 Z" id="Path" fill="#E3EAF2"/>
                <path d="M35.826,69.621 L29.055,69.621 C28.491,69.621 28.209,69.057 28.209,68.775 C28.209,68.211 28.773,67.929 29.055,67.929 L35.826,67.929 C36.391,67.929 36.673,68.493 36.673,68.775 C36.673,69.057 36.391,69.621 35.826,69.621 Z" id="Path" fill="#E3EAF2"/>
                <path d="M79.557,58.911 L62.065,58.911 C61.501,58.911 61.219,58.346 61.219,58.064 C61.219,57.5 61.783,57.218 62.065,57.218 L79.557,57.218 C80.121,57.218 80.403,57.782 80.403,58.064 C80.685,58.628 80.121,58.911 79.557,58.911 Z" id="Path" fill="#E3EAF2"/>
                <path d="M54.736,58.911 L29.345,58.911 C28.781,58.911 28.499,58.346 28.499,58.064 C28.499,57.5 29.063,57.218 29.345,57.218 L54.736,57.218 C55.301,57.218 55.583,57.782 55.583,58.064 C55.865,58.628 55.301,58.911 54.736,58.911 Z" id="Path" fill="#E3EAF2"/>
                <path d="M79.836,48.481 L73.065,48.481 C72.501,48.481 72.219,47.917 72.219,47.634 C72.219,47.352 72.783,46.788 73.065,46.788 L79.836,46.788 C80.4,46.788 80.682,47.352 80.682,47.634 C80.682,47.917 80.4,48.481 79.836,48.481 Z" id="Path" fill="#E3EAF2"/>
                <path d="M66.865,48.481 L29.625,48.481 C29.06,48.481 28.778,47.917 28.778,47.634 C28.778,47.352 29.343,46.788 29.625,46.788 L66.865,46.788 C67.429,46.788 67.711,47.352 67.711,47.634 C67.711,47.917 67.429,48.481 66.865,48.481 Z" id="Path" fill="#E3EAF2"/>
                <path d="M50.219,81.176 L47.962,81.176 C47.397,81.176 47.115,80.612 47.115,80.33 C47.115,80.048 47.679,79.483 47.962,79.483 L50.219,79.483 C50.783,79.483 51.065,80.048 51.065,80.33 C51.065,80.612 50.783,81.176 50.219,81.176 Z" id="Path" fill="#E3EAF2"/>
                <path d="M43.449,81.176 L29.625,81.176 C29.06,81.176 28.778,80.612 28.778,80.33 C28.778,80.048 29.343,79.483 29.625,79.483 L43.449,79.483 C44.013,79.483 44.295,80.048 44.295,80.33 C44.295,80.612 44.013,81.176 43.449,81.176 Z" id="Path" fill="#E3EAF2"/>
                <path d="M80.407,38.052 L56.426,38.052 C55.862,38.052 55.58,37.488 55.58,37.206 C55.58,36.924 56.144,36.359 56.426,36.359 L80.407,36.359 C80.971,36.359 81.253,36.924 81.253,37.206 C81.253,37.488 80.971,38.052 80.407,38.052 Z" id="Path" fill="#E3EAF2"/>
                <path d="M48.524,38.052 L29.904,38.052 C29.34,38.052 29.058,37.488 29.058,37.206 C29.058,36.924 29.622,36.359 29.904,36.359 L48.524,36.359 C49.088,36.359 49.37,36.924 49.37,37.206 C49.37,37.488 49.088,38.052 48.524,38.052 Z" id="Path" fill="#E3EAF2"/>
                <path d="M61.504,14.095 L30.189,14.095 C29.343,14.095 28.778,13.53 28.778,12.684 C28.778,11.838 29.343,11.273 30.189,11.273 L61.504,11.273 C62.351,11.273 62.915,11.838 62.915,12.684 C62.915,13.53 62.351,14.095 61.504,14.095 Z" id="Path" fill="#CED7E2"/>
                <path d="M42.317,21.705 L30.468,21.705 C29.622,21.705 29.058,21.141 29.058,20.294 C29.058,19.448 29.622,18.884 30.468,18.884 L42.317,18.884 C43.164,18.884 43.728,19.448 43.728,20.294 C43.446,21.141 42.882,21.705 42.317,21.705 Z" id="Path" fill="#CED7E2"/>
                <path d="M69.684,0 L69.684,18.603 C69.684,21.139 71.941,23.394 74.48,23.394 L90.843,23.394" id="Path" fill="#CED7E2"/>
                <g id="doc" transform="translate(0.000000, 32.132000)">
                    <path d="M38.369,22.548 L3.385,22.548 C1.693,22.548 0,21.139 0,19.166 L0,3.382 C0,1.691 1.411,0 3.385,0 L38.369,0 C40.061,0 41.754,1.409 41.754,3.382 L41.754,19.166 C41.472,21.139 40.061,22.548 38.369,22.548 Z" id="Path" fill="#7BA0E1"/>
                    <path d="M9.878,6.482 C12.699,6.482 14.391,8.173 14.391,11.274 C14.391,14.374 12.699,16.065 9.878,16.065 L6.21,16.065 L6.21,6.482 L9.878,6.482 Z M8.185,14.374 L9.595,14.374 C11.288,14.374 12.417,13.247 12.417,11.274 C12.417,9.301 11.288,8.173 9.595,8.173 L8.185,8.173 L8.185,14.374 Z" id="Shape" fill="#FFFFFF"/>
                    <path d="M25.679,11.273 C25.679,14.373 23.987,16.346 21.165,16.346 C18.344,16.346 16.651,14.373 16.651,11.273 C16.651,8.172 18.344,6.199 21.165,6.199 C23.987,6.199 25.679,8.172 25.679,11.273 Z M18.626,11.273 C18.626,13.246 19.755,14.655 21.165,14.655 C22.858,14.655 23.704,13.527 23.704,11.273 C23.704,9.3 22.576,7.89 21.165,7.89 C19.473,7.89 18.626,9.3 18.626,11.273 Z" id="Shape" fill="#FFFFFF"/>
                    <path d="M27.931,11.273 C27.931,8.172 29.623,6.199 32.445,6.199 C34.702,6.199 36.394,7.608 36.676,9.863 L34.702,9.863 C34.419,8.736 33.573,7.89 32.445,7.89 C31.034,7.89 29.906,9.018 29.906,11.273 C29.906,13.246 30.752,14.655 32.445,14.655 C33.573,14.655 34.419,14.091 34.702,12.964 L36.676,12.964 C36.394,15.219 34.702,16.346 32.445,16.346 C29.623,16.346 27.931,14.373 27.931,11.273 Z" id="Path" fill="#FFFFFF"/>
                </g>
            </g>
            <g id="flygrp" transform="translate(410.999998, 100.914611)">
                <g id="envlope" transform="translate(0.000000, 16.407389)">
                    <path d="M120.415,45.407 L120.415,105.045 C120.415,105.316 120.415,105.452 120.415,105.723 C120.279,109.111 118.648,112.093 116.338,114.262 C114.163,116.16 111.445,117.244 108.455,117.244 L12.096,117.244 C10.057,117.244 8.019,116.702 6.252,115.753 C5.436,115.346 4.757,114.804 4.077,114.262 C2.718,113.042 1.631,111.551 0.951,109.925 C0.408,108.705 0.136,107.349 0,105.994 L0,45.407 C0,45.407 5.029,41.205 12.232,35.241 C19.707,29.006 29.492,20.874 38.19,13.69 C43.219,9.488 42.675,10.03 50.286,3.66 C56.13,-1.22 64.557,-1.22 70.401,3.66 C71.896,4.88 73.527,6.235 75.022,7.455 C78.147,10.03 81.681,13.012 85.351,15.994 C93.097,22.5 101.524,29.548 108.183,35.106 C114.979,40.663 119.871,44.865 120.415,45.407 Z" id="Path" fill="#CAD1E0" fill-rule="nonzero"/>
                    <path d="M108.052,35.106 L108.052,56.522 L86.986,68.992 L80.734,72.787 L67.551,80.648 L61.299,84.443 L58.717,85.934 L56.271,84.308 L50.291,80.513 L37.787,72.651 L31.807,68.992 L12.372,56.793 L12.372,35.106 C19.847,28.871 29.632,20.739 38.331,13.555 L85.219,15.995 C92.966,22.501 101.392,29.549 108.052,35.106 Z" id="Path" fill="#B2B9CA" fill-rule="nonzero"/>
                    <path d="M103.84,18.027 L103.84,55.572 L84.677,66.957 L78.969,70.346 L66.873,77.665 L61.165,81.054 L58.719,82.545 L56.544,81.054 L51.108,77.665 L39.691,70.481 L34.255,67.093 L16.587,55.978 L16.587,18.027 C16.587,14.096 19.849,10.843 23.79,10.843 L96.773,10.843 C100.714,10.843 103.84,14.096 103.84,18.027 Z" id="Path" fill="#FFFFFF" fill-rule="nonzero"/>
                    <path d="M86.44,41.746 L34.931,41.746 C34.115,41.746 33.436,41.069 33.436,40.12 C33.436,39.171 34.115,38.493 34.931,38.493 L86.44,38.493 C87.255,38.493 87.935,39.171 87.935,40.12 C87.935,40.933 87.255,41.746 86.44,41.746 Z" id="Path" fill="#E7EBF2" fill-rule="nonzero"/>
                    <path d="M86.44,51.777 L34.931,51.777 C34.115,51.777 33.436,51.099 33.436,50.15 C33.436,49.201 34.115,48.524 34.931,48.524 L86.44,48.524 C87.255,48.524 87.935,49.201 87.935,50.15 C87.935,51.099 87.255,51.777 86.44,51.777 Z" id="Path" fill="#E7EBF2" fill-rule="nonzero"/>
                    <path d="M86.44,61.943 L34.931,61.943 C34.115,61.943 33.436,61.265 33.436,60.316 C33.436,59.367 34.115,58.69 34.931,58.69 L86.44,58.69 C87.255,58.69 87.935,59.367 87.935,60.316 C87.935,61.265 87.255,61.943 86.44,61.943 Z" id="Path" fill="#E7EBF2" fill-rule="nonzero"/>
                    <path d="M83.039,68.856 L77.603,72.109 L40.092,72.109 L34.928,68.856 C34.928,68.856 34.928,68.856 35.064,68.856 L83.039,68.856 Z" id="Path" fill="#E7EBF2" fill-rule="nonzero"/>
                    <polygon id="Path" fill="#E7EBF2" fill-rule="nonzero" points="66.055 78.885 60.618 82.138 56.133 82.138 50.969 78.885"/>
                    <path d="M75.293,30.09 L46.073,30.09 C45.258,30.09 44.578,29.412 44.578,28.464 C44.578,27.515 45.258,26.837 46.073,26.837 L75.293,26.837 C76.109,26.837 76.788,27.515 76.788,28.464 C76.788,29.412 76.109,30.09 75.293,30.09 Z" id="Path" fill="#E7EBF2" fill-rule="nonzero"/>
                    <path d="M0.542,45.135 L58.303,48.93 L119.326,45.135 L117.016,56.114 C117.016,56.114 59.526,86.069 59.934,86.069 C60.342,86.069 0.542,50.557 0.542,50.557 L0.542,45.135 Z" id="Path" fill="url(#linearGradient-1)" fill-rule="nonzero"/>
                    <path d="M120.415,45.407 L120.415,105.587 C120.279,108.976 118.648,111.958 116.338,114.126 C114.163,116.024 111.445,117.108 108.455,117.108 L12.096,117.108 C10.057,117.108 8.019,116.566 6.252,115.617 C5.436,115.211 4.757,114.668 4.077,114.126 C2.718,112.906 1.631,111.415 0.951,109.789 C0.408,108.569 0.136,107.214 0,105.858 L0,105.723 L0,45.407 L53.82,79.021 L58.441,81.867 L60.072,80.918 L61.567,79.97 L120.415,45.407 Z" id="Path" fill="#CED7E2" fill-rule="nonzero"/>
                    <path d="M116.202,113.991 C114.027,115.888 111.309,116.973 108.319,116.973 L12.096,116.973 C10.057,116.973 8.019,116.43 6.252,115.482 C5.436,115.075 4.757,114.533 4.077,113.991 C2.718,112.771 1.631,111.28 0.951,109.653 C0.408,108.433 0.136,107.078 0,105.723 L0,105.587 L0,45.407 L6.252,49.202 L60.072,81.054 L61.567,82.003 L61.702,82.138 L109.95,110.602 L116.202,113.991 Z" id="Path" fill="#E6ECF5" fill-rule="nonzero"/>
                    <path d="M61.705,79.97 L61.705,84.172 L6.255,115.482 C5.439,115.075 4.76,114.533 4.08,113.991 C2.721,112.771 1.634,111.28 0.954,109.653 L54.91,77.801 L59.531,80.647 L60.074,80.783 L61.705,79.97 Z" id="Path" fill="url(#linearGradient-2)" fill-rule="nonzero"/>
                    <line x1="0" y1="45.407" x2="60.207" y2="80.918" id="Path" stroke="#FFFFFF" stroke-width="0.5"/>
                    <path d="M120.419,45.407 L120.419,105.587 C120.283,108.976 118.652,111.958 116.342,114.126 C114.167,116.024 111.449,117.108 108.459,117.108 L12.1,117.108 C10.061,117.108 8.022,116.566 6.256,115.617 C5.44,115.211 4.761,114.668 4.081,114.126 L10.197,110.467 L58.444,82.003 L60.075,81.054 L61.57,80.105 L113.895,49.202 L120.419,45.407 Z" id="Path" fill="#FFFFFF" fill-rule="nonzero"/>
                    <polyline id="Path" fill="#FFFFFF" fill-rule="nonzero" points="120.419 45.407 61.706 79.97 60.211 80.918 58.58 81.867 4.081 113.991"/>
                    <polyline id="Path" stroke="#FFFFFF" stroke-width="0.5" points="120.419 45.407 61.706 79.97 60.211 80.918 58.58 81.867 4.081 113.991"/>
                    <path d="M105.877,87.424 L73.938,87.424 C73.123,87.424 72.579,86.746 72.579,86.069 C72.579,85.391 73.259,84.713 73.938,84.713 L105.877,84.713 C106.692,84.713 107.236,85.391 107.236,86.069 C107.236,86.746 106.692,87.424 105.877,87.424 Z" id="Path" fill="#E7EBF2" fill-rule="nonzero"/>
                    <path d="M105.877,96.641 L73.938,96.641 C73.123,96.641 72.579,95.963 72.579,95.285 C72.579,94.608 73.259,93.93 73.938,93.93 L105.877,93.93 C106.692,93.93 107.236,94.608 107.236,95.285 C107.236,95.963 106.692,96.641 105.877,96.641 Z" id="Path" fill="#E7EBF2" fill-rule="nonzero"/>
                    <path d="M114.027,49.067 L114.027,55.302 L120.279,52.049 L120.279,45.272 L114.027,49.067 Z M114.027,80.106 L114.027,90.272 L120.279,87.019 L120.279,76.853 L114.027,80.106 Z M112.532,115.753 L110.63,116.702 C112.668,116.296 114.571,115.347 116.202,113.991 C116.202,113.991 116.202,113.991 116.338,113.991 C116.474,113.991 116.474,113.856 116.61,113.856 L112.532,115.753 Z M0,45.407 L0,54.895 L6.252,51.642 L6.252,49.067 L0,45.407 Z M0,79.699 L0,89.865 L6.252,86.612 L6.252,76.446 L0,79.699 Z M12.096,110.738 C11.552,110.738 10.873,110.603 10.329,110.467 C10.057,110.332 9.65,110.196 9.378,110.061 C9.378,110.061 9.378,110.061 9.242,110.061 L3.126,113.178 C3.398,113.585 3.805,113.856 4.213,114.127 C4.893,114.669 5.572,115.211 6.388,115.618 C6.931,115.889 7.611,116.16 8.155,116.431 L19.979,110.874 L12.096,110.874 L12.096,110.738 Z M65.78,110.738 L52.597,116.973 L66.867,116.973 L80.05,110.738 L65.78,110.738 Z" id="Shape" fill="#BCC7D6" fill-rule="nonzero" opacity="0.3"/>
                    <path d="M112.531,115.752 L116.473,113.719 C116.337,113.855 116.337,113.855 116.201,113.855 C116.201,113.855 116.201,113.855 116.065,113.855 L112.531,115.752 Z" id="Path" fill="#CED7E2" fill-rule="nonzero"/>
                    <path d="M114.026,97.59 L114.026,105.452 C114.026,106.401 113.618,107.349 113.075,108.163 C112.939,108.298 112.939,108.434 112.803,108.434 L120.278,104.639 L120.278,94.473 L114.026,97.59 Z" id="Path" fill="#CED7E2" fill-rule="nonzero" opacity="0.3"/>
                    <path d="M0,97.048 L0,105.452 L0,105.587 C0,106.129 0.136,106.536 0.136,107.078 L6.252,103.961 L6.252,93.795 L0,97.048 Z" id="Path" fill="#CED7E2" fill-rule="nonzero" opacity="0.3"/>
                    <polygon id="Path" fill="#CED7E2" fill-rule="nonzero" opacity="0.3" points="0 62.214 0 72.38 6.252 69.127 6.252 58.961"/>
                    <polygon id="Path" fill="#CED7E2" fill-rule="nonzero" opacity="0.3" points="35.606 110.739 22.423 116.973 36.693 116.973 50.012 110.739"/>
                    <polygon id="Path" fill="#CED7E2" fill-rule="nonzero" opacity="0.3" points="95.953 110.739 82.634 116.973 94.186 116.973 107.505 110.739"/>
                    <polygon id="Path" fill="#CED7E2" fill-rule="nonzero" opacity="0.3" points="114.028 62.62 114.028 72.785 120.416 69.668 120.416 59.502"/>
                </g>
                <g id="flyicon" transform="translate(90.648000, 101.120389)" fill-rule="nonzero">
                    <path d="M50.015,24.94 C50.015,26.295 49.879,27.515 49.743,28.871 C48.384,37.816 42.268,45.136 33.978,48.253 C31.123,49.337 28.134,49.88 25.008,49.88 C16.309,49.88 8.563,45.407 4.078,38.63 C1.495,34.699 0,29.955 0,24.94 C0,11.115 11.145,0 25.008,0 C38.734,0 50.015,11.25 50.015,24.94 Z" id="Path" fill="#EDB06A"/>
                    <path d="M49.743,28.871 C48.384,37.816 42.268,45.136 33.978,48.253 L20.251,34.563 L20.387,34.021 L12.64,26.295 L29.765,19.789 L34.25,13.283 L49.743,28.871 Z" id="Path" fill-opacity="0.5" fill="url(#linearGradient-3)"/>
                    <path d="M19.91,32.585 C19.91,31.907 20.182,31.094 20.589,30.552 C23.036,27.57 25.346,24.724 27.657,21.742 C28.336,20.929 27.521,20.522 26.977,20.929 C26.162,21.606 19.094,27.57 18.143,28.519 C18.007,28.654 17.735,28.654 17.599,28.654 C16.104,28.112 14.745,27.57 13.25,27.028 C12.571,26.892 12.163,26.215 12.299,25.537 C12.435,25.13 12.707,24.724 13.114,24.588 C14.609,23.775 31.326,14.423 32.821,13.474 C33.229,13.203 33.637,13.203 34.044,13.338 C34.452,13.609 34.588,14.016 34.452,14.423 C34.18,17.811 33.093,28.79 32.685,32.314 C32.549,33.263 32.142,33.805 31.326,33.669 C31.19,33.669 30.918,33.669 30.782,33.534 C29.016,32.856 27.113,32.179 25.346,31.501 C25.074,31.365 24.803,31.365 24.667,31.636 C21.677,34.618 21.405,34.618 20.997,34.754 C20.318,34.889 19.774,34.483 19.638,33.941 C19.638,33.805 19.638,33.805 19.638,33.669 C19.91,33.398 19.91,32.992 19.91,32.585 Z" id="Path" fill="#FFFFFF"/>
                </g>
                <path d="M60.476,95.292389 C49.06,86.211389 43.08,70.759389 45.254,56.391389 C47.7,39.991389 59.117,36.873389 65.369,39.584389 C69.582,41.482389 72.164,47.174389 69.989,51.512389 C66.048,59.238389 50.419,55.849389 47.429,42.973389 C46.341,38.229389 47.429,32.943389 50.283,29.147389 C55.039,22.641389 63.738,20.473389 71.62,19.117389 C73.387,18.846389 75.154,18.575389 77.057,18.304389 C81.27,17.762389 86.434,17.084389 92.143,16.542389" id="roundedline" stroke="#90B8E8" stroke-width="2" stroke-linecap="round" stroke-linejoin="round"/>
                <g id="fly" transform="translate(92.614530, 0.000000)" fill-rule="nonzero">
                    <path d="M10.9554697,19.118389 L5.79146966,21.558389 C4.83946966,21.965389 3.88846966,21.287389 3.88846966,20.203389 L4.83946966,9.90138905" id="Path" fill="#6083CC"/>
                    <path d="M58.3854697,3.80238905 L54.9874697,5.69938905 L19.3794697,25.759389 C17.7484697,26.708389 15.7104697,26.166389 14.6224697,24.675389 L6.46846966,12.612389 L4.83746966,10.172389 L0.35246966,3.39538905 C-0.59853034,1.90438905 0.48846966,-0.128610951 2.25546966,0.00638904919 L51.9974697,3.53138905 L58.3854697,3.80238905 Z" id="Path" fill="url(#linearGradient-4)"/>
                    <polygon id="Path" fill="#6E92DE" points="58.3824697 3.80238905 54.9844697 5.70038905 6.60146966 12.477389 4.83446966 10.037389 52.1304697 3.39638905"/>
                </g>
            </g>
        </g>
    </g>
</svg>