<svg width="728" height="448" viewBox="0 0 728 448" fill="none" xmlns="http://www.w3.org/2000/svg">
<g filter="url(#filter0_d)">
<rect x="24" y="152" width="120" height="120" rx="6" fill="white"/>
</g>
<path d="M101.908 221.121C101.902 221.976 101.208 222.665 100.353 222.665H67.4638C66.6066 222.669 65.908 221.978 65.9023 221.121V188.848C65.908 187.993 66.6024 187.304 67.4568 187.304H100.346C101.203 187.3 101.902 187.991 101.908 188.848V221.121Z" fill="#0C9D58"/>
<path opacity="0.2" fill-rule="evenodd" clip-rule="evenodd" d="M65.8359 197.323L84.5067 188.987C85.2716 188.671 86.1482 189.031 86.4698 189.793V189.814L65.8359 197.323ZM89.5859 194.014L101.914 195.6V197.324L89.5859 194.014Z" fill="#004D40"/>
<path opacity="0.2" d="M100.353 187.304H67.4638C66.6066 187.3 65.908 187.991 65.9023 188.848V189.194C65.908 188.34 66.6024 187.65 67.4568 187.65H100.346C101.203 187.646 101.902 188.337 101.908 189.194V188.848C101.902 187.993 101.208 187.304 100.353 187.304V187.304Z" fill="white"/>
<path d="M73.8953 220.131C73.6514 220.923 74.0922 221.762 74.882 222.011L105.348 230.206C106.156 230.385 106.957 229.877 107.141 229.07L114.318 202.281C114.563 201.493 114.127 200.654 113.342 200.401L82.8759 192.207C82.0675 192.028 81.2666 192.535 81.0825 193.342L73.8953 220.131Z" fill="#EA4335"/>
<path opacity="0.2" fill-rule="evenodd" clip-rule="evenodd" d="M91.1633 194.799L89.7266 194.411L92.0564 200.806L91.1633 194.799ZM109.052 221.578L107.449 211.843V227.56L109.052 221.578Z" fill="#3E2723"/>
<path opacity="0.2" d="M113.334 200.401L82.868 192.207C82.0597 192.028 81.2588 192.535 81.0747 193.342L73.8875 220.131C73.8875 220.176 73.8875 220.221 73.8633 220.266L80.9881 193.678C81.1723 192.871 81.9731 192.364 82.7815 192.542L113.247 200.737C113.978 200.969 114.414 201.718 114.255 202.468L114.31 202.264C114.544 201.481 114.111 200.655 113.334 200.401H113.334Z" fill="white"/>
<path d="M97.8856 216.831C98.1983 217.598 97.8333 218.473 97.0686 218.791L64.9165 230.493C64.1272 230.742 63.2844 230.308 63.0297 229.52L53.5438 203.454C53.2337 202.687 53.6001 201.814 54.3643 201.498L86.5162 189.796C87.3068 189.542 88.154 189.976 88.41 190.766L97.8856 216.831V216.831Z" fill="#FFC107"/>
<path opacity="0.2" d="M53.6631 203.783C53.3529 203.018 53.7173 202.145 54.4803 201.827L86.6322 190.125C87.4106 189.881 88.242 190.302 88.5052 191.074L88.4082 190.766C88.1537 189.978 87.3109 189.544 86.5215 189.793L54.3624 201.498C53.5978 201.816 53.2329 202.691 53.5454 203.458L63.0315 229.52V229.544L53.6631 203.783Z" fill="white"/>
<rect x="60.3672" y="200.807" width="47.0838" height="36.3514" rx="1.71463" fill="#4285F4"/>
<path fill-rule="evenodd" clip-rule="evenodd" d="M85.8986 210.5H99.0543C99.4367 210.5 99.7467 210.81 99.7467 211.192V213.27C99.7467 213.652 99.4367 213.962 99.0543 213.962H85.8984V210.5H85.8986ZM85.8986 223.656H99.0543C99.4367 223.656 99.7467 223.966 99.7467 224.348V226.426C99.7467 226.808 99.4367 227.118 99.0543 227.118H85.8984V223.656H85.8986ZM101.131 217.078H85.8984V220.541H101.131C101.514 220.541 101.824 220.231 101.824 219.848V217.771C101.824 217.388 101.514 217.078 101.131 217.078Z" fill="white"/>
<path opacity="0.2" d="M105.893 236.812H61.9251C61.0655 236.81 60.3691 236.114 60.3672 235.254V235.6C60.3691 236.46 61.0655 237.156 61.9251 237.158H105.893C106.753 237.156 107.449 236.46 107.451 235.6V235.254C107.449 236.114 106.753 236.81 105.893 236.812Z" fill="#1A237E"/>
<path opacity="0.2" d="M61.9251 201.153H105.893C106.753 201.155 107.449 201.851 107.451 202.711V202.364C107.449 201.505 106.753 200.808 105.893 200.807H61.9251C61.0655 200.808 60.3691 201.505 60.3672 202.364V202.711C60.3691 201.851 61.0655 201.155 61.9251 201.153Z" fill="white"/>
<path d="M74.1335 217.424V220.54H78.6133C78.2429 222.444 76.5708 223.822 74.1335 223.822C71.361 223.822 69.1136 221.574 69.1136 218.802C69.1136 216.029 71.361 213.782 74.1335 213.782C75.3248 213.759 76.4764 214.21 77.3358 215.035L79.7074 212.664C78.2011 211.246 76.202 210.47 74.1335 210.5C71.1575 210.489 68.4027 212.07 66.9114 214.645C65.4201 217.221 65.4201 220.397 66.9114 222.972C68.4027 225.548 71.1575 227.129 74.1335 227.118C78.9319 227.118 82.0962 223.746 82.0962 218.999C82.0945 218.471 82.0505 217.945 81.9646 217.424H74.1335Z" fill="white"/>
<path opacity="0.2" d="M74.2148 220.54V220.886H78.6117C78.644 220.773 78.6718 220.657 78.6948 220.54H74.215H74.2148Z" fill="#1A237E"/>
<path opacity="0.2" fill-rule="evenodd" clip-rule="evenodd" d="M74.2125 213.788C75.3955 213.767 76.5391 214.213 77.3956 215.029L79.7482 212.677C79.7754 212.701 79.8033 212.724 79.831 212.747L79.831 212.747L79.831 212.747L79.8311 212.747C79.8667 212.776 79.902 212.805 79.9352 212.836L77.3906 215.381C76.5334 214.561 75.3875 214.113 74.202 214.134C71.5318 214.177 69.367 216.312 69.2859 218.981V218.808C69.2781 216.069 71.4734 213.832 74.2125 213.788ZM74.2112 227.117C69.6892 227.118 65.9966 223.502 65.9023 218.981V219.154C65.9023 223.743 69.6223 227.463 74.2113 227.463C79.0097 227.463 82.174 224.091 82.174 219.344V219.234C82.0596 223.855 78.93 227.117 74.2113 227.117H74.2112ZM99.7389 213.269V213.615C99.7388 213.997 99.4288 214.307 99.0465 214.307H85.8906V213.961H99.0465C99.4289 213.961 99.7389 213.651 99.7389 213.269ZM99.0465 227.117H85.8906V227.463H99.0465C99.4289 227.463 99.7389 227.153 99.7389 226.77V226.424C99.7388 226.807 99.4288 227.117 99.0465 227.117ZM85.8906 220.539H101.124H101.124C101.506 220.539 101.816 220.229 101.816 219.847V220.193C101.816 220.575 101.506 220.885 101.124 220.885H85.8906V220.539Z" fill="#1A237E"/>
<path d="M113.335 200.401L101.91 197.344V188.848C101.905 187.993 101.21 187.304 100.356 187.304H67.4664C66.6092 187.3 65.9106 187.991 65.905 188.848V197.295L54.3624 201.498C53.5978 201.816 53.2329 202.691 53.5454 203.458L60.3656 222.201V235.599C60.3676 236.459 61.064 237.155 61.9236 237.157H105.892C106.751 237.155 107.448 236.459 107.45 235.599V227.907L114.315 202.288C114.564 201.496 114.126 200.652 113.335 200.401H113.335Z" fill="url(#paint0_radial)"/>
<g filter="url(#filter1_d)">
<rect x="164" y="12" width="120" height="120" rx="6" fill="white"/>
</g>
<path d="M246.817 69.6773C246.817 67.7822 246.663 66.3994 246.331 64.9653H224.691V73.5185H237.393C237.137 75.6441 235.754 78.8451 232.681 80.9961L232.638 81.2825L239.48 86.5828L239.954 86.6301C244.307 82.6096 246.817 76.694 246.817 69.6773Z" fill="#4285F4"/>
<path d="M224.687 92.213C230.91 92.213 236.134 90.1642 239.95 86.6303L232.677 80.9963C230.731 82.3536 228.118 83.3011 224.687 83.3011C218.592 83.3011 213.419 79.2807 211.575 73.7236L211.305 73.7466L204.191 79.2524L204.098 79.5111C207.888 87.0399 215.673 92.213 224.687 92.213Z" fill="#34A853"/>
<path d="M211.577 73.7234C211.09 72.2894 210.808 70.7527 210.808 69.1651C210.808 67.5772 211.09 66.0408 211.551 64.6067L211.538 64.3013L204.335 58.707L204.099 58.8191C202.537 61.9434 201.641 65.4519 201.641 69.1651C201.641 72.8783 202.537 76.3866 204.099 79.5108L211.577 73.7234Z" fill="#FBBC05"/>
<path d="M224.687 55.0299C229.015 55.0299 231.934 56.8993 233.599 58.4615L240.103 52.1106C236.108 48.3973 230.91 46.1182 224.687 46.1182C215.673 46.1182 207.888 51.291 204.098 58.8199L211.55 64.6075C213.419 59.0505 218.592 55.0299 224.687 55.0299Z" fill="#EB4335"/>
<g filter="url(#filter2_d)">
<rect x="164" y="152" width="120" height="120" rx="6" fill="white"/>
</g>
<path d="M253.336 212.507C253.336 228.374 240.474 241.237 224.606 241.237C208.739 241.237 195.875 228.374 195.875 212.507C195.875 196.64 208.739 183.776 224.606 183.776C240.474 183.776 253.336 196.64 253.336 212.507Z" fill="#1A1918"/>
<path fill-rule="evenodd" clip-rule="evenodd" d="M226.871 196.381L238.307 223.903C238.433 224.24 238.503 224.553 238.503 224.751C238.503 225.963 237.524 226.803 236.404 226.803C235.844 226.803 235.414 226.585 234.818 226.102L219.989 214.123L215.02 226.57H210.727L223.279 196.381C223.605 195.587 224.305 195.167 225.099 195.167C225.892 195.167 226.544 195.587 226.871 196.381ZM232.527 219.676L225.092 201.326V201.326L221.297 210.83L232.527 219.676Z" fill="white"/>
<g filter="url(#filter3_d)">
<rect x="304" y="12" width="120" height="120" rx="6" fill="white"/>
</g>
<circle cx="364.2" cy="72.1828" r="23.7082" fill="#3C5A9A"/>
<path d="M371.91 55.752H366.658C363.541 55.752 360.074 57.0628 360.074 61.5805C360.09 63.1547 360.074 64.6623 360.074 66.359H356.469V72.0965H360.186V88.6139H367.016V71.9875H371.525L371.933 66.3429H366.899C366.899 66.3429 366.91 63.8319 366.899 63.1027C366.899 61.3174 368.756 61.4196 368.868 61.4196C369.752 61.4196 371.471 61.4222 371.912 61.4196V55.752H371.91Z" fill="white"/>
<g filter="url(#filter4_d)">
<rect x="304" y="152" width="120" height="120" rx="6" fill="white"/>
</g>
<path d="M364.042 237.22L374.021 206.508H354.062L364.041 237.22H364.042Z" fill="#E24329"/>
<path d="M364.046 237.22L354.067 206.508H340.082L364.046 237.22Z" fill="#FC6D26"/>
<path d="M340.083 206.508L337.05 215.841C336.774 216.692 337.077 217.625 337.801 218.151L364.047 237.22L340.083 206.508L340.083 206.508Z" fill="#FCA326"/>
<path d="M340.082 206.508H354.067L348.057 188.01C347.748 187.058 346.401 187.059 346.092 188.01L340.082 206.508Z" fill="#E24329"/>
<path d="M364.043 237.22L374.022 206.508H388.007L364.043 237.22H364.043Z" fill="#FC6D26"/>
<path d="M388.011 206.508L391.043 215.841C391.32 216.692 391.017 217.625 390.293 218.151L364.047 237.22L388.011 206.508V206.508Z" fill="#FCA326"/>
<path d="M388.013 206.508H374.027L380.038 188.01C380.347 187.058 381.693 187.059 382.002 188.01L388.013 206.508Z" fill="#E24329"/>
<g filter="url(#filter5_d)">
<rect x="164" y="292" width="120" height="120" rx="6" fill="white"/>
</g>
<path d="M246.884 351.268C246.884 364.497 236.396 375.232 223.45 375.232C210.504 375.232 200.016 364.497 200.016 351.268C200.016 338.039 210.504 327.304 223.45 327.304C236.396 327.304 246.885 338.039 246.885 351.268" fill="#D33833"/>
<path d="M200.982 357.202C200.982 357.202 199.282 332.218 222.319 331.5L220.713 328.816L208.221 333.012L204.649 337.113L201.531 343.085L199.754 350.04L200.283 354.689" fill="#EF3D3A"/>
<path fill-rule="evenodd" clip-rule="evenodd" d="M199.297 351.363C199.297 358.166 202 364.346 206.365 368.806C210.731 373.285 216.778 376.045 223.449 376.045C230.121 376.045 236.168 373.285 240.534 368.806C244.9 364.346 247.602 358.166 247.602 351.363C247.602 344.54 244.9 338.36 240.534 333.9C236.168 329.44 230.121 326.662 223.45 326.662C216.778 326.662 210.731 329.44 206.365 333.9C202 338.379 199.297 344.559 199.297 351.363ZM200.754 351.363C200.754 344.937 203.306 339.135 207.407 334.921C211.527 330.706 217.196 328.117 223.452 328.117C229.726 328.117 235.377 330.725 239.497 334.921C243.598 339.135 246.149 344.937 246.149 351.363C246.149 357.788 243.598 363.59 239.497 367.805C235.377 372.019 229.726 374.608 223.452 374.608C217.177 374.608 211.527 372.019 207.407 367.804C203.306 363.59 200.754 357.788 200.754 351.363Z" fill="#231F20"/>
<path d="M233.318 351.4L229.746 351.929L224.927 352.477L221.808 352.552L218.766 352.458L216.441 351.74L214.381 349.51L212.775 344.955L212.416 343.972L210.28 343.254L209.033 341.194L208.145 338.246L209.127 335.657L211.452 334.844L213.323 335.733L214.211 337.698L215.288 337.528L215.647 337.074L215.288 335.014L215.194 332.425L215.723 328.853L215.704 326.812L217.329 324.204L220.183 322.144L225.172 320.009L230.71 320.821L235.529 324.299L237.759 327.871L239.195 330.46L239.554 336.885L238.477 342.423L236.511 347.336L234.66 349.963" fill="#F0D6B7"/>
<path d="M230.294 366.841L217.537 367.37V369.506L218.614 377.009L218.085 377.632L209.165 374.59L208.541 373.513L207.653 363.421L205.555 357.373L205.102 355.937L212.245 351.023L214.475 350.135L216.441 352.554L218.142 354.066L220.107 354.689L220.995 354.954L222.073 359.603L222.885 360.586L224.945 359.868L223.509 362.646L231.257 366.312L230.294 366.841" fill="#335061"/>
<path d="M209.125 335.695L211.449 334.882L213.32 335.77L214.208 337.736L215.286 337.566L215.55 336.489L215.021 334.429L215.55 329.515L215.097 326.831L216.703 324.96L220.18 322.201L219.198 320.859L214.284 323.278L212.224 324.885L211.071 327.379L209.295 329.798L208.766 332.652L209.125 335.695Z" fill="#6D6B6D"/>
<path fill-rule="evenodd" clip-rule="evenodd" d="M219.492 322.391C214.144 323.997 212.802 327.304 212.802 327.304L210.742 327.474L211.725 325.698L213.955 323.468L219.757 321.238C219.757 321.238 224.841 320.784 219.492 322.391ZM215.388 327.928C208.244 328.816 210.115 335.072 210.115 335.072L209.132 335.695L208.773 332.653L210.21 328.003L215.123 326.851L215.388 327.928Z" fill="#DCD9D8"/>
<path fill-rule="evenodd" clip-rule="evenodd" d="M215.475 332.029L215.475 332.028C215.475 332.027 215.476 332.025 215.478 332.016C215.55 331.658 217.169 324.131 224.66 322.655C230.972 321.408 234.298 322.92 235.545 324.356C235.545 324.356 229.913 317.666 224.565 319.707C219.217 321.767 215.286 325.509 215.38 327.909C215.509 331.424 215.487 331.94 215.478 332.016L215.475 332.028L215.475 332.029L215.475 332.029ZM235.187 333.371C235.319 332.066 236.793 331.764 236.793 331.764L237.058 333.541C237.021 333.554 236.955 333.586 236.869 333.627C236.343 333.88 235.073 334.492 235.187 333.371ZM229.394 341.667C229.394 341.667 229.397 341.628 229.403 341.56C229.39 341.599 229.386 341.635 229.394 341.667ZM229.403 341.56C229.451 341.06 229.69 338.99 230.338 339.173C231.076 339.381 231.076 340.117 231.076 340.117C231.076 340.117 229.561 341.085 229.403 341.56ZM212.973 343.368L214.144 342.234C214.144 342.234 214.674 342.291 214.768 342.915C214.776 342.967 214.785 343.054 214.797 343.172L214.797 343.173L214.797 343.173L214.797 343.173C214.932 344.464 215.449 349.424 218.964 352.194C219.323 352.478 216.11 351.74 216.11 351.74L213.256 347.28L212.973 343.368ZM226.009 331.858C226.009 331.858 224.043 332.123 224.043 333.37C224.043 334.617 226.273 334.523 226.897 333.994L226.009 331.858ZM210.13 337.566C210.489 335.6 213.872 337.66 213.872 337.66H213.872L213.797 336.318L212.455 335.241L210.13 335.071L208.07 337.206L208.43 339.89L209.507 342.649L210.659 343.008C209.274 341.312 209.568 340.051 209.916 338.561C209.99 338.242 210.067 337.912 210.13 337.566ZM233.488 327.474C233.583 325.15 236.172 325.244 236.172 325.244L236.966 327.115C235.718 325.868 233.659 328.192 233.659 328.192C233.488 327.833 233.488 327.474 233.488 327.474Z" fill="#F7E4CD"/>
<path d="M224.856 328.438C224.856 328.438 224.403 324.885 221.379 326.945C219.413 328.287 219.602 330.158 219.943 330.517C220.302 330.876 220.207 331.594 220.472 331.103C220.736 330.612 220.661 329.005 221.643 328.551C222.607 328.098 224.233 327.607 224.856 328.438Z" fill="#F7E4CD"/>
<path fill-rule="evenodd" clip-rule="evenodd" d="M216.469 352.553L208.077 356.294C208.077 356.294 211.555 370.128 209.778 374.418L208.531 373.965L208.436 368.692L206.112 358.713L205.129 355.954L213.879 350.058L216.468 352.552L216.469 352.553ZM217.323 360.207L218.513 361.662V367.01H217.096C217.096 367.01 216.926 363.268 216.926 362.815C216.926 362.361 217.096 360.755 217.096 360.755L217.323 360.207ZM213.332 367.993L217.357 367.823L217.338 369.26L214.485 368.806L213.332 367.993Z" fill="#49728B"/>
<path d="M231.086 366.935L234.393 366.841L235.206 375.043L231.823 375.496L231.086 366.935" fill="#335061"/>
<path d="M231.977 366.935L236.966 366.671C236.966 366.671 239.026 361.492 239.026 361.228C239.026 360.963 240.802 353.725 240.802 353.725L236.777 349.53L235.964 348.812L233.829 350.947V359.244L231.977 366.935" fill="#335061"/>
<path fill-rule="evenodd" clip-rule="evenodd" d="M240.552 355.331L234.297 350.682H234.297L235.998 348.83L240.723 353.196L240.552 355.331ZM231.082 366.934L234.2 366.311L234.654 368.541C234.654 368.541 232.688 369.958 231.536 369.429L231.082 366.934Z" fill="#49728B"/>
<path d="M220.445 384.511L218.593 377.008L217.667 371.471L217.516 367.37L225.888 366.917H231.085L230.613 376.29L231.425 383.528L231.331 384.87L224.546 385.4L220.445 384.511Z" fill="white"/>
<path d="M229.934 366.841C229.934 366.841 229.481 376.121 230.822 382.735C230.822 382.735 228.139 384.436 224.227 384.871L231.73 384.606L232.618 384.077L231.541 369.449L231.257 366.312" fill="#DCD9D8"/>
<path d="M235.34 374.343L238.817 373.36L245.413 373.001L246.395 369.959L244.619 364.686L242.559 364.421L239.705 365.31L236.984 366.652L235.529 366.387L234.395 366.84" fill="white"/>
<path d="M235.289 372.548C235.289 372.548 237.614 371.471 237.973 371.566L236.99 366.652L238.143 366.198C238.143 366.198 238.955 370.847 238.955 371.377C238.955 371.377 243.945 371.641 244.398 371.641C244.398 371.641 245.475 369.581 245.211 367.446L246.194 370.299L246.288 371.906L244.852 374.041L243.246 374.4L240.562 374.306L239.674 373.153L236.555 373.607L235.572 373.966" fill="#DCD9D8"/>
<path d="M231.772 366.217L229.806 361.228L227.746 358.279C227.746 358.279 228.2 357.032 228.823 357.032H230.883L232.849 357.75L232.679 361.058L231.772 366.217Z" fill="white"/>
<path d="M232.164 364.516C232.164 364.516 229.669 359.697 229.669 358.979C229.669 358.979 230.123 357.901 230.747 358.166C231.37 358.431 232.712 359.149 232.712 359.149V357.448L229.669 356.824L227.609 357.089L231.087 365.329L231.805 365.423" fill="#DCD9D8"/>
<path d="M221.246 352.743L218.77 352.478L216.445 351.76V352.572L217.579 353.82L221.151 355.426" fill="white"/>
<path d="M217.257 353.007C217.257 353.007 220.016 354.16 220.924 353.895L221.018 354.972L218.524 354.443L217.012 353.366L217.257 353.007Z" fill="#DCD9D8"/>
<path d="M235.34 357.335C233.828 357.297 232.448 357.108 231.258 356.768C231.333 356.276 231.182 355.804 231.314 355.445C231.655 355.199 232.203 355.199 232.713 355.142C232.278 354.934 231.655 354.84 231.163 354.972C231.144 354.632 230.993 354.424 230.898 354.16C231.749 353.857 233.752 351.873 234.886 352.515C235.434 352.837 235.661 354.613 235.699 355.502C235.737 356.22 235.623 356.938 235.34 357.335Z" fill="#D33833"/>
<path d="M235.34 357.335C233.828 357.297 232.448 357.108 231.258 356.768C231.333 356.276 231.182 355.804 231.314 355.445C231.655 355.199 232.203 355.199 232.713 355.142C232.278 354.934 231.655 354.84 231.163 354.972C231.144 354.632 230.993 354.424 230.898 354.16C231.749 353.857 233.752 351.873 234.886 352.515C235.434 352.837 235.661 354.613 235.699 355.502C235.737 356.22 235.623 356.938 235.34 357.335Z" fill="black" stroke="#D33833" stroke-width="0.5"/>
<path d="M228.102 354.859C228.102 354.972 228.102 355.086 228.083 355.199C227.61 355.502 226.854 355.502 226.325 355.766C227.081 355.804 227.686 355.993 228.215 356.238C228.196 356.522 228.196 356.825 228.177 357.108C227.308 357.694 226.514 358.582 225.494 359.149C225.002 359.414 223.32 360.094 222.81 359.962C222.526 359.886 222.489 359.527 222.375 359.187C222.13 358.469 221.563 357.297 221.506 356.201C221.449 354.821 221.298 352.497 222.791 352.78C224 353.007 225.399 353.555 226.325 354.065C226.911 354.405 227.232 354.783 228.102 354.859Z" fill="#D33833"/>
<path d="M228.102 354.859C228.102 354.972 228.102 355.086 228.083 355.199C227.61 355.502 226.854 355.502 226.325 355.766C227.081 355.804 227.686 355.993 228.215 356.238C228.196 356.522 228.196 356.825 228.177 357.108C227.308 357.694 226.514 358.582 225.494 359.149C225.002 359.414 223.32 360.094 222.81 359.962C222.526 359.886 222.489 359.527 222.375 359.187C222.13 358.469 221.563 357.297 221.506 356.201C221.449 354.821 221.298 352.497 222.791 352.78C224 353.007 225.399 353.555 226.325 354.065C226.911 354.405 227.232 354.783 228.102 354.859Z" fill="black" stroke="#D33833" stroke-width="0.5"/>
<path d="M228.958 356.503C228.825 355.747 228.674 355.539 228.731 354.877C230.753 353.535 231.112 357.183 228.958 356.503" fill="#D33833"/>
<path d="M228.958 356.503C228.825 355.747 228.674 355.539 228.731 354.877C230.753 353.535 231.112 357.183 228.958 356.503H228.958Z" fill="black" stroke="#D33833" stroke-width="0.5"/>
<path fill-rule="evenodd" clip-rule="evenodd" d="M231.687 355.954C231.234 356.219 231.857 357.107 231.857 357.107L230.629 356.654V354.688L230.799 353.705L234.182 351.74L235.259 352.099L235.788 353.705C235.618 353.271 234.371 353.441 233.917 353.535C233.464 353.63 233.029 353.724 232.934 354.253C232.895 354.473 232.918 354.647 232.939 354.808C232.969 355.035 232.995 355.235 232.84 355.501C232.686 355.765 232.474 355.785 232.235 355.809C232.063 355.825 231.877 355.844 231.687 355.954ZM222.413 359.171C222.437 359.465 222.461 359.76 222.485 360.055L222.825 359.961C222.733 359.777 222.621 359.565 222.498 359.331C222.47 359.279 222.442 359.225 222.413 359.171ZM222.304 357.831C222.34 358.277 222.377 358.724 222.413 359.171C221.386 357.222 219.741 353.963 221.823 352.553C222.768 351.91 224.809 352.59 225.698 353.044L227.795 354.121C227.971 354.213 228.284 354.22 228.601 354.227C229 354.236 229.405 354.244 229.553 354.424C230.026 355.841 227.965 356.843 226.813 356.219C226.037 355.794 226.11 355.679 226.235 355.483C226.332 355.33 226.461 355.127 226.246 354.688C226.151 354.48 224.734 354.159 224.45 354.159C224.196 354.159 223.964 354.152 223.753 354.145C222.462 354.106 221.982 354.091 222.145 355.879C222.198 356.532 222.251 357.182 222.304 357.831Z" fill="#EF3D3A"/>
<path fill-rule="evenodd" clip-rule="evenodd" d="M220.464 331.104C221.201 329.46 222.411 327.873 224.849 328.44C225.302 327.665 224.471 327.098 223.866 327.022C222.43 326.795 220.672 328.402 220.237 329.592C220.067 330.046 219.803 330.953 220.464 331.104ZM236.809 331.198H236.696V331.199C236.635 332.262 236.929 332.984 237.223 333.707L237.223 333.707C237.295 333.883 237.367 334.06 237.433 334.241C237.116 334.446 236.637 334.473 236.16 334.5C235.757 334.523 235.355 334.546 235.052 334.676C235.014 336.604 238.057 335.659 238.529 334.563C238.012 333.808 237.619 332.95 237.228 332.095L237.228 332.095L237.228 332.095L237.228 332.095L237.227 332.095L237.227 332.095L237.227 332.095C237.09 331.794 236.952 331.494 236.809 331.198ZM226.084 331.236C226.271 331.578 226.414 331.924 226.552 332.26C226.804 332.874 227.044 333.456 227.52 333.92C227.562 333.959 227.608 334 227.656 334.042C228.003 334.346 228.463 334.749 228.182 335.545C228.106 335.753 227.558 336.226 227.237 336.32C226.084 336.66 223.381 336.396 224.288 334.94C224.57 334.951 224.88 335.009 225.195 335.068C225.956 335.211 226.748 335.359 227.256 334.865C226.707 333.995 225.725 332.257 226.084 331.236ZM236.262 340.951L236.262 340.951V340.951L236.262 340.951ZM236.428 340.227C236.324 340.508 236.229 340.763 236.262 340.951C234.523 342.066 232.576 343.294 229.704 343.011C229.099 342.482 228.854 341.291 229.458 340.516C229.556 340.687 229.602 340.905 229.649 341.126C229.749 341.593 229.852 342.077 230.441 342.179C231.645 342.389 232.994 341.738 234.089 341.21L234.089 341.21L234.089 341.21L234.089 341.21C234.472 341.025 234.824 340.856 235.128 340.743C235.726 339.719 235.288 339.247 234.743 338.659L234.743 338.659C234.634 338.541 234.52 338.418 234.41 338.286C234.349 338.214 234.288 338.141 234.226 338.067C232.912 336.499 231.294 334.568 231.348 332.276C231.784 331.961 231.897 332.529 231.963 332.861C231.98 332.946 231.994 333.016 232.01 333.051C232.709 334.676 234.467 336.774 235.733 338.173C235.851 338.298 235.995 338.424 236.133 338.544C236.369 338.748 236.585 338.937 236.621 339.08C236.717 339.445 236.564 339.858 236.428 340.227ZM213.245 339.779C213.001 339.636 212.84 339.288 212.68 338.943C212.479 338.51 212.279 338.08 211.922 338.059C211.115 338.009 211.14 339.396 211.16 340.467C211.163 340.624 211.166 340.774 211.166 340.913C210.542 340.346 210.429 338.569 210.883 337.662C210.502 337.471 210.277 337.702 210.069 337.917C209.987 338.001 209.909 338.082 209.824 338.134C210.221 335.394 213.85 336.868 213.245 339.779H213.245ZM233.011 345.411C235.392 345.354 236.545 343.653 237.357 342.104C236.97 342.279 236.602 342.478 236.233 342.677C235.286 343.189 234.329 343.706 233.011 343.842C232.916 344.145 232.954 344.92 233.011 345.411ZM225.949 343.105C227.461 343.899 230.258 343.993 232.337 343.936C232.45 344.39 232.45 344.957 232.45 345.505C229.786 345.618 226.648 344.957 225.949 343.105ZM232.748 346.865C229.854 346.95 226.652 347.045 225.666 344.579C224.6 344.594 225.095 345.062 225.449 345.396C225.54 345.482 225.623 345.56 225.666 345.619C225.775 345.759 225.89 345.923 226.012 346.097C226.417 346.675 226.902 347.368 227.555 347.716C228.916 348.435 231.6 348.132 232.582 347.735C232.96 347.603 233.244 347.187 233.376 346.847C233.169 346.852 232.959 346.858 232.748 346.865Z" fill="#231F20"/>
<path d="M236.132 359.149C234.903 361.266 233.713 363.439 232.258 365.291C232.862 363.496 233.127 360.472 233.222 358.167C234.507 357.562 235.603 358.299 236.132 359.149" fill="#81B0C4"/>
<path fill-rule="evenodd" clip-rule="evenodd" d="M242.759 366.747C242.153 366.871 241.628 367.199 241.113 367.521C240.456 367.931 239.818 368.33 239.055 368.277C239.811 367.238 241.096 366.784 242.759 366.747ZM242.754 368.964L242.754 368.964L242.754 368.964C241.771 369.071 240.704 369.186 239.766 369.108C240.314 368.277 242.393 368.579 243.356 368.9C243.16 368.92 242.959 368.942 242.754 368.964ZM243.756 370.771C242.49 370.79 240.921 370.771 239.712 370.676C240.43 369.902 242.943 370.393 243.756 370.771Z" fill="#231F20"/>
<path d="M233.756 375.874C233.945 377.462 234.569 379.068 234.493 380.807C233.794 381.034 233.397 381.242 232.452 381.242C232.395 379.767 232.187 377.5 232.244 376.082C232.698 376.12 233.378 375.761 233.756 375.874Z" fill="#DCD9D8"/>
<path d="M231.72 352.44C231.077 352.855 230.548 353.365 229.924 353.819C228.563 353.895 227.826 353.725 226.844 352.95C226.863 352.893 226.957 352.912 226.957 352.836C228.412 353.479 230.264 352.572 231.72 352.439" fill="#F0D6B7"/>
<path d="M224.109 362.324C224.506 360.604 226.075 359.697 227.492 358.752C228.947 360.604 229.836 362.985 230.818 365.291C228.494 364.592 226.132 363.477 224.109 362.324Z" fill="#81B0C4"/>
<path fill-rule="evenodd" clip-rule="evenodd" d="M245.545 365.234C244.203 362.343 240.159 364.157 237.986 365.234C239.025 362.456 239.932 359.602 240.839 356.503C240.894 356.326 240.957 356.135 241.024 355.935C241.307 355.085 241.646 354.07 241.538 353.29C241.453 352.608 240.63 351.904 239.913 351.291C239.678 351.089 239.453 350.898 239.271 350.72C239.167 350.621 238.968 350.455 238.727 350.254C238.004 349.652 236.899 348.731 236.814 348.32C236.748 347.951 237.16 347.26 237.511 346.671C237.664 346.415 237.805 346.178 237.891 345.995C238.271 345.2 238.541 344.263 238.743 343.56C238.762 343.494 238.78 343.43 238.798 343.368C240.31 338.039 240.48 330.725 238.307 326.359C237.494 324.696 235.207 322.409 233.771 321.332C230.388 318.781 224.133 318.498 220.07 319.99C219.966 320.028 219.863 320.066 219.76 320.103C218.737 320.477 217.748 320.838 216.838 321.37C216.408 321.623 215.974 321.862 215.545 322.098C213.312 323.329 211.21 324.487 210.545 327.134C208.598 328.003 208.012 330.498 208.107 333.39C208.114 333.621 208.172 333.874 208.231 334.128C208.315 334.498 208.401 334.872 208.334 335.185C208.298 335.35 208.146 335.551 208.018 335.72C207.94 335.823 207.871 335.915 207.842 335.979C206.897 338.19 207.653 341.119 208.73 342.707C209.373 343.652 210.469 344.502 211.886 344.729C211.943 345.579 212.151 346.317 212.548 347.186C212.614 347.334 212.73 347.513 212.857 347.71C213.201 348.243 213.628 348.905 213.379 349.416C213.247 349.695 212.301 350.216 211.648 350.575C211.462 350.677 211.3 350.766 211.187 350.833C210.707 351.121 210.265 351.377 209.843 351.622C208.766 352.246 207.816 352.797 206.689 353.611C206.416 353.812 206.1 353.965 205.789 354.116C204.959 354.518 204.167 354.901 204.346 356.125C204.465 356.917 204.814 357.846 205.142 358.721C205.284 359.1 205.422 359.468 205.536 359.81C205.7 360.318 205.897 360.806 206.093 361.295C206.372 361.989 206.652 362.685 206.84 363.439C207.559 366.274 207.729 368.957 207.899 371.735C207.923 372.08 207.928 372.432 207.932 372.771C207.942 373.494 207.952 374.159 208.144 374.57C208.364 375.024 208.995 375.258 209.62 375.49C209.854 375.576 210.088 375.663 210.299 375.761C210.685 375.942 211.076 376.14 211.473 376.34C213.388 377.308 215.454 378.351 217.896 378.085C218.04 378.572 218.183 379.066 218.326 379.56C218.876 381.466 219.432 383.39 220.107 385.04C223.131 386.136 227.913 385.966 231.069 385.588C232.032 385.475 233.034 385.002 233.261 384.171C233.185 383.66 233.11 383.15 233.148 382.545C233.216 382.532 233.287 382.519 233.359 382.506C234.313 382.328 235.487 382.109 235.68 381.09C235.823 380.374 235.614 379.504 235.399 378.609C235.16 377.615 234.913 376.589 235.132 375.704C235.167 375.693 235.201 375.682 235.236 375.671C235.787 375.497 236.317 375.329 236.228 374.476C237.173 373.965 238.326 373.871 239.535 373.908C239.705 374.211 239.913 374.495 240.121 374.665C241.822 375.005 243.466 375.024 244.884 374.57C246.49 374.06 247.246 370.772 246.887 369.222C246.641 368.107 246.056 366.311 245.545 365.234ZM232.811 322.504C230.033 320.936 225.346 319.764 222.398 321.238C220.017 322.428 216.804 324.394 215.708 326.87C216.372 328.431 216.044 329.905 215.707 331.416C215.527 332.227 215.344 333.048 215.311 333.9C215.291 334.582 215.457 335.212 215.629 335.861C215.785 336.453 215.945 337.061 215.972 337.737C215.613 338.322 214.555 338.379 213.818 338.341C213.572 337.094 213.138 335.695 211.852 335.544C210.038 335.336 208.696 336.848 208.621 338.417C208.526 340.269 210.038 343.331 212.192 343.123C212.587 343.087 212.841 342.881 213.096 342.674C213.379 342.445 213.662 342.216 214.139 342.216C214.441 342.82 214.085 343.168 213.736 343.508C213.517 343.721 213.302 343.931 213.251 344.2C213.213 344.389 213.345 345.088 213.44 345.428C213.837 347.035 214.706 349.132 215.556 350.361C216.653 351.929 218.788 352.156 221.094 352.307C221.51 351.419 223.021 351.495 224.004 351.722C222.814 351.249 221.718 350.115 220.81 349.114C219.771 347.961 218.713 346.732 218.656 345.22L218.884 345.536C220.769 348.144 222.404 350.408 225.856 351.571C228.578 352.478 231.753 351.155 233.851 349.681C234.514 349.219 234.969 348.536 235.424 347.852L235.425 347.852C235.565 347.641 235.706 347.429 235.854 347.224C238.159 343.898 239.237 339.173 239.01 334.58C238.998 334.347 238.988 334.114 238.978 333.882L238.978 333.881C238.906 332.233 238.836 330.644 238.273 329.534C237.611 328.211 235.362 327.002 234.039 328.211C233.794 326.908 235.136 326.114 236.704 326.586C236.57 326.412 236.436 326.234 236.3 326.053L236.3 326.053L236.3 326.053C235.302 324.73 234.225 323.302 232.811 322.504ZM211.73 326.888C212.827 324.488 216.247 322.542 218.912 321.786C219.063 321.748 219.196 321.842 219.309 321.975C219.294 322.289 219.053 322.366 218.814 322.442C218.737 322.466 218.66 322.491 218.591 322.523C218.37 322.791 218.096 322.992 217.81 323.201C217.533 323.403 217.245 323.614 216.984 323.902C216.788 324.119 216.581 324.468 216.364 324.834C215.977 325.488 215.555 326.2 215.094 326.321C214.878 326.378 214.641 326.346 214.417 326.316C214.269 326.295 214.126 326.276 213.998 326.284C213.548 326.314 213.17 326.45 212.782 326.59C212.455 326.707 212.12 326.828 211.73 326.888ZM210.488 329.326C209.367 330.574 209.543 332.841 209.676 334.557L209.694 334.788C211.83 333.446 214.646 334.901 214.627 337.169C215.444 337.154 215.195 336.351 214.966 335.614C214.909 335.431 214.853 335.252 214.816 335.09C214.533 333.862 214.738 332.588 214.939 331.334C215.169 329.907 215.394 328.506 214.891 327.229C213.058 327.38 211.565 328.117 210.488 329.326V329.326ZM234.137 351.268L234.137 351.268V351.268L234.137 351.268ZM234.137 351.268C236.613 350.078 237.066 355.747 236.083 357.581C236.166 357.879 236.354 358.076 236.543 358.273C236.7 358.439 236.858 358.604 236.953 358.828C236.169 360.234 235.337 361.585 234.504 362.937L234.504 362.937L234.504 362.937C233.871 363.966 233.237 364.994 232.625 366.047C233.184 365.691 233.88 365.685 234.595 365.68C235.209 365.675 235.837 365.669 236.405 365.442C236.779 365.302 237.063 364.57 237.342 363.851L237.343 363.85L237.343 363.85L237.343 363.85L237.343 363.85C237.402 363.698 237.461 363.547 237.52 363.401C238.465 361.133 239.447 358.261 239.882 356.107C239.903 356 239.932 355.865 239.965 355.716C240.083 355.177 240.244 354.443 240.185 354.103C240.097 353.49 239.445 353 238.9 352.592C238.74 352.472 238.589 352.358 238.465 352.251C238.058 351.882 237.713 351.535 237.376 351.196C236.884 350.701 236.409 350.223 235.781 349.719C235.57 350.05 235.216 350.322 234.879 350.581C234.581 350.81 234.297 351.029 234.137 351.268ZM216.142 353.234C216.052 353.172 215.777 352.849 215.453 352.469L215.453 352.469C214.887 351.804 214.169 350.962 214.025 351.022C211.058 352.194 208.28 354.216 205.804 356.144C208.166 361.228 209.13 367.446 209.3 373.436C209.949 373.74 210.579 374.077 211.212 374.415C213.22 375.488 215.268 376.581 218.069 376.725C217.635 373.72 217.257 371.017 217.011 368.182C216.452 367.943 215.747 368 215.086 368.053C214.652 368.088 214.237 368.122 213.893 368.069C213.893 367.494 214.298 367.417 214.679 367.344C214.986 367.285 215.278 367.229 215.329 366.916C215.361 366.691 215.233 366.555 215.095 366.409C214.908 366.211 214.704 365.996 214.857 365.518C215.177 365.634 215.426 365.817 215.676 365.999C215.955 366.205 216.234 366.41 216.614 366.52C217.051 365.571 216.911 364.137 216.793 362.924C216.732 362.299 216.677 361.733 216.709 361.322C216.728 361.096 216.822 360.075 217.332 360.245C217.627 360.343 217.531 361.473 217.437 362.562C217.387 363.148 217.338 363.723 217.351 364.119C217.361 364.393 217.357 364.662 217.353 364.923C217.341 365.672 217.331 366.35 217.654 366.841C221.207 366.349 224.816 366.047 228.671 365.934C228.464 365.846 228.248 365.76 228.023 365.67C227.327 365.392 226.552 365.082 225.723 364.611C225.567 364.523 225.326 364.411 225.052 364.284L225.052 364.284C224.265 363.918 223.204 363.425 223.078 363.004C222.906 362.457 223.203 362.068 223.503 361.675C223.7 361.417 223.898 361.157 223.966 360.85C222.357 361.73 221.917 360.275 221.53 358.998L221.53 358.998C221.485 358.849 221.441 358.703 221.396 358.563C221.017 357.335 220.791 356.409 220.696 355.709C220.358 355.538 220.016 355.37 219.673 355.201C218.427 354.588 217.179 353.975 216.142 353.234ZM234.882 352.496C235.43 352.818 235.657 354.613 235.695 355.482C235.733 356.219 235.62 356.938 235.336 357.316C233.824 357.259 232.445 357.089 231.254 356.749C231.3 356.509 231.288 356.274 231.276 356.054C231.264 355.823 231.253 355.61 231.311 355.426C231.588 355.226 232.003 355.188 232.423 355.151C232.519 355.142 232.614 355.134 232.709 355.123C232.274 354.915 231.67 354.821 231.159 354.953C231.146 354.715 231.068 354.542 230.99 354.369C230.957 354.294 230.923 354.22 230.895 354.141C231.155 354.048 231.523 353.796 231.941 353.511C232.89 352.862 234.095 352.037 234.882 352.496ZM226.969 352.836V352.836L226.968 352.836H226.969ZM226.91 352.904C226.939 352.891 226.969 352.878 226.969 352.836C227.944 353.273 229.112 352.994 230.223 352.729L230.223 352.729C230.747 352.604 231.258 352.482 231.731 352.439C231.362 352.678 231.024 352.955 230.688 353.229L230.688 353.229L230.688 353.229L230.688 353.229L230.688 353.229L230.688 353.229L230.688 353.229L230.688 353.229C230.44 353.432 230.193 353.634 229.935 353.819C228.594 353.895 227.857 353.725 226.855 352.95C226.863 352.925 226.887 352.914 226.91 352.904ZM220.536 354.386C219.61 354.329 216.662 353.271 217.437 352.477C217.946 352.833 218.771 352.89 219.597 352.946H219.597C219.998 352.974 220.399 353.001 220.763 353.063C220.792 353.248 220.731 353.464 220.665 353.696C220.603 353.915 220.536 354.148 220.536 354.386ZM226.321 354.084C225.395 353.573 223.997 353.025 222.787 352.799C221.345 352.525 221.437 354.684 221.496 356.075L221.502 356.22C221.545 357.044 221.876 357.902 222.143 358.59C222.23 358.816 222.311 359.023 222.371 359.205C222.394 359.273 222.413 359.341 222.432 359.408C222.509 359.677 222.579 359.92 222.806 359.98C223.316 360.094 225.017 359.432 225.49 359.168C226.107 358.836 226.642 358.379 227.161 357.937L227.161 357.937C227.499 357.648 227.83 357.365 228.173 357.126C228.183 356.985 228.187 356.838 228.192 356.692L228.192 356.692L228.192 356.692C228.197 356.545 228.202 356.399 228.211 356.257C227.682 355.992 227.096 355.823 226.321 355.785C226.559 355.661 226.855 355.595 227.151 355.529C227.489 355.454 227.827 355.379 228.079 355.218C228.079 355.104 228.079 354.991 228.098 354.877C227.457 354.808 227.114 354.584 226.744 354.343C226.611 354.257 226.475 354.168 226.321 354.084ZM228.832 355.91C228.75 355.566 228.693 355.326 228.731 354.877C230.753 353.535 231.112 357.183 228.958 356.503C228.915 356.26 228.871 356.073 228.832 355.91L228.832 355.91ZM230.487 357.202C230.26 357.179 230.046 357.285 229.823 357.396C229.506 357.553 229.169 357.719 228.749 357.542C228.663 357.637 228.583 357.731 228.503 357.826L228.503 357.826L228.503 357.826C228.422 357.92 228.342 358.015 228.257 358.109C229.26 359.327 229.924 360.862 230.586 362.394C230.972 363.287 231.358 364.179 231.81 365.007C232.317 363.341 232.391 361.564 232.466 359.761L232.466 359.761L232.466 359.761L232.466 359.761L232.466 359.761L232.466 359.761L232.466 359.761L232.466 359.761L232.466 359.76L232.466 359.76L232.466 359.76L232.466 359.76C232.489 359.211 232.512 358.66 232.547 358.109C232.034 358.131 231.647 357.855 231.292 357.602C231.02 357.408 230.766 357.227 230.487 357.202V357.202ZM232.259 365.291C232.863 363.496 233.128 360.472 233.222 358.167L233.222 358.166C234.508 357.562 235.604 358.299 236.133 359.149C235.983 359.407 235.834 359.665 235.686 359.923L235.685 359.924C234.61 361.787 233.536 363.648 232.259 365.291ZM230.807 365.29C230.671 364.972 230.538 364.652 230.404 364.333C229.568 362.338 228.735 360.348 227.481 358.752C227.377 358.821 227.273 358.889 227.168 358.958L227.166 358.96L227.165 358.961C225.841 359.835 224.483 360.731 224.098 362.323C226.139 363.476 228.502 364.591 230.807 365.29ZM245.641 369.978C246.037 371.736 245.168 373.436 243.77 373.777V373.777C242.749 374.022 241.199 374.079 240.519 373.758C241.007 373.486 241.637 373.377 242.267 373.268L242.267 373.268C242.688 373.195 243.108 373.123 243.486 373.002C242.617 372.628 241.495 372.716 240.373 372.804C239.738 372.854 239.103 372.904 238.516 372.869C238.493 372.627 238.47 372.381 238.448 372.135L238.448 372.134V372.134C238.285 370.351 238.118 368.519 237.703 367.124C238.24 366.555 239.211 366.23 240.188 365.902C240.93 365.654 241.676 365.404 242.239 365.045C243.051 364.535 244.053 365.272 244.412 365.82C244.868 366.496 245.279 368.349 245.55 369.572C245.582 369.717 245.612 369.853 245.641 369.978ZM236.571 367.2C236.264 367.136 235.93 367.158 235.618 367.18C235.469 367.19 235.325 367.2 235.191 367.2C235.284 368.086 235.43 369.014 235.578 369.956L235.578 369.956L235.578 369.956L235.578 369.956L235.578 369.956L235.578 369.956L235.578 369.956L235.578 369.956L235.578 369.956L235.578 369.956C235.761 371.124 235.948 372.313 236.042 373.474C236.441 373.486 236.73 373.373 237.017 373.261C237.206 373.188 237.393 373.115 237.61 373.077C237.648 371.244 237.459 368.712 236.571 367.2ZM217.66 368.088C218.284 373.776 219.172 378.538 220.816 383.585C224.464 384.7 228.848 384.794 232.08 383.792C231.736 382.128 231.679 380.25 231.621 378.366C231.581 377.041 231.54 375.713 231.4 374.456C231.281 373.433 231.242 372.409 231.203 371.382C231.155 370.115 231.107 368.842 230.908 367.558C226.996 366.746 221.478 367.369 217.66 368.088ZM232.367 379.997L232.367 379.997L232.367 379.997C232.395 380.45 232.422 380.879 232.441 381.26C233.218 381.26 233.625 381.119 234.134 380.943C234.244 380.905 234.358 380.865 234.482 380.825C234.53 379.733 234.301 378.692 234.078 377.676L234.078 377.676L234.077 377.675C233.945 377.075 233.815 376.482 233.745 375.893C233.532 375.818 233.222 375.9 232.912 375.982C232.672 376.045 232.431 376.109 232.233 376.101C232.191 377.157 232.285 378.674 232.367 379.997L232.367 379.997ZM232.128 374.891C231.939 372.453 231.788 370.034 231.825 367.596V367.596C232.401 367.399 232.919 367.387 233.48 367.375L233.48 367.375C233.564 367.373 233.649 367.372 233.734 367.369C234.12 368.739 234.236 370.363 234.35 371.983L234.35 371.983C234.41 372.821 234.469 373.657 234.566 374.456C233.696 374.664 233.073 374.759 232.128 374.891Z" fill="#231F20"/>
<path d="M223.534 343.765C223.648 343.614 224.29 343.369 225.197 343.803C225.197 343.803 224.12 343.973 224.215 345.769L223.761 345.674C223.78 345.693 223.308 344.068 223.534 343.765Z" fill="#F7E4CD"/>
<path fill-rule="evenodd" clip-rule="evenodd" d="M230.862 359.603C231.127 359.603 231.354 359.376 231.354 359.112C231.354 358.847 231.146 358.62 230.862 358.62C230.598 358.62 230.371 358.847 230.371 359.112C230.371 359.376 230.598 359.603 230.862 359.603ZM231.351 361.889C231.616 361.889 231.842 361.662 231.842 361.398C231.842 361.114 231.634 360.906 231.351 360.906C231.086 360.906 230.859 361.133 230.859 361.398C230.859 361.662 231.086 361.889 231.351 361.889Z" fill="#1D1919"/>
<g filter="url(#filter6_d)">
<rect x="304" y="292" width="120" height="120" rx="6" fill="white"/>
</g>
<path fill-rule="evenodd" clip-rule="evenodd" d="M366.531 322.863L393.657 349.988C394.129 350.457 394.394 351.095 394.394 351.76C394.394 352.425 394.129 353.063 393.657 353.531L384.637 362.537L384.319 362.852L363.903 383.271L352.801 372.172L334.146 353.517C333.175 352.541 333.175 350.964 334.146 349.988L343.483 340.654L363.903 320.234L366.531 322.863ZM354.578 351.754L363.899 361.074L373.216 351.754L363.899 342.433L354.578 351.754Z" fill="#2684FF"/>
<path d="M363.899 342.433C357.797 336.332 357.767 326.448 363.832 320.311L343.438 340.696L354.536 351.795L363.899 342.433Z" fill="url(#paint1_linear)"/>
<path d="M373.249 351.728L363.906 361.073C370.033 367.202 370.033 377.137 363.906 383.266L384.357 362.827L373.249 351.728Z" fill="url(#paint2_linear)"/>
<g filter="url(#filter7_d)">
<rect x="444" y="292" width="120" height="120" rx="6" fill="white"/>
<rect x="444.5" y="292.5" width="119" height="119" rx="5.5" stroke="#4AC853" stroke-dasharray="5"/>
</g>
<path fill-rule="evenodd" clip-rule="evenodd" d="M504.418 334.354C494.454 334.354 486.348 342.46 486.348 352.425C486.348 362.389 494.454 370.495 504.418 370.495C514.383 370.495 522.489 362.388 522.489 352.425C522.489 342.461 514.383 334.354 504.418 334.354ZM504.42 367.696C496 367.696 489.148 360.846 489.148 352.425C489.148 344.004 496 337.154 504.42 337.154C512.839 337.154 519.691 344.004 519.691 352.425C519.691 360.846 512.84 367.696 504.42 367.696ZM505.825 350.898H511.424C512.198 350.898 512.824 351.526 512.824 352.298C512.824 353.071 512.198 353.698 511.424 353.698H505.825V359.297C505.825 360.07 505.2 360.697 504.425 360.697C503.651 360.697 503.026 360.07 503.026 359.297V353.698H497.427C496.653 353.698 496.027 353.071 496.027 352.298C496.027 351.526 496.653 350.898 497.427 350.898H503.026V345.3C503.026 344.527 503.651 343.9 504.425 343.9C505.2 343.9 505.825 344.527 505.825 345.3V350.898Z" fill="#4AC853"/>
<g filter="url(#filter8_d)">
<rect x="444" y="152" width="120" height="120" rx="6" fill="white"/>
</g>
<path fill-rule="evenodd" clip-rule="evenodd" d="M490.567 204.681L506.549 190.822L489.226 229.16H476.93L490.567 204.681ZM501.852 213.289L508.672 194.064L531.139 234.079H489.559L514.929 229.719L501.852 213.289Z" fill="#0072C6"/>
<g filter="url(#filter9_d)">
<rect x="584" y="152" width="120" height="120" rx="6" fill="white"/>
</g>
<path fill-rule="evenodd" clip-rule="evenodd" d="M634.383 195.168C634.381 192.771 636.321 190.826 638.718 190.824C641.117 190.827 643.058 192.773 643.057 195.17V199.512H638.72C636.323 199.51 634.381 197.565 634.383 195.168ZM627.157 202.41H638.719C641.116 202.412 643.058 204.357 643.056 206.756C643.058 209.153 641.116 211.098 638.719 211.1H627.155C624.758 211.096 622.817 209.151 622.82 206.754C622.819 204.357 624.76 202.412 627.157 202.41Z" fill="#36C5F0"/>
<path fill-rule="evenodd" clip-rule="evenodd" d="M654.617 195.168V206.754C654.619 209.153 652.677 211.098 650.28 211.1C647.883 211.096 645.942 209.151 645.945 206.754V195.168C645.944 192.771 647.885 190.826 650.282 190.824C652.679 190.827 654.619 192.773 654.617 195.168ZM661.845 202.41C664.242 202.411 666.183 204.357 666.182 206.754C666.183 209.152 664.242 211.098 661.845 211.099H657.508V206.754C657.506 204.357 659.448 202.411 661.845 202.41Z" fill="#2EB67D"/>
<path fill-rule="evenodd" clip-rule="evenodd" d="M661.844 222.685H650.28C647.883 222.683 645.944 220.738 645.945 218.339C645.944 215.942 647.885 213.997 650.282 213.995H661.846C664.243 213.999 666.184 215.944 666.181 218.341C666.183 220.738 664.241 222.683 661.844 222.685ZM654.619 229.929C654.621 232.326 652.679 234.271 650.282 234.273C647.885 234.269 645.944 232.324 645.945 229.929V225.585H650.282C652.679 225.587 654.621 227.532 654.619 229.929Z" fill="#ECB22E"/>
<path fill-rule="evenodd" clip-rule="evenodd" d="M627.157 222.685C624.76 222.683 622.819 220.738 622.82 218.341C622.819 215.944 624.76 213.999 627.157 213.997H631.494V218.341C631.496 220.738 629.554 222.683 627.157 222.685ZM634.391 229.927V218.341C634.389 215.944 636.329 213.999 638.728 213.999C641.125 214.002 643.066 215.947 643.063 218.344V229.929C643.065 232.326 641.123 234.271 638.726 234.273C636.329 234.27 634.387 232.324 634.391 229.927Z" fill="#E01E5A"/>
<defs>
<filter id="filter0_d" x="0" y="140" width="168" height="168" filterUnits="userSpaceOnUse" color-interpolation-filters="sRGB">
<feFlood flood-opacity="0" result="BackgroundImageFix"/>
<feColorMatrix in="SourceAlpha" type="matrix" values="0 0 0 0 0 0 0 0 0 0 0 0 0 0 0 0 0 0 127 0" result="hardAlpha"/>
<feOffset dy="12"/>
<feGaussianBlur stdDeviation="12"/>
<feColorMatrix type="matrix" values="0 0 0 0 0 0 0 0 0 0 0 0 0 0 0 0 0 0 0.0978201 0"/>
<feBlend mode="normal" in2="BackgroundImageFix" result="effect1_dropShadow"/>
<feBlend mode="normal" in="SourceGraphic" in2="effect1_dropShadow" result="shape"/>
</filter>
<filter id="filter1_d" x="140" y="0" width="168" height="168" filterUnits="userSpaceOnUse" color-interpolation-filters="sRGB">
<feFlood flood-opacity="0" result="BackgroundImageFix"/>
<feColorMatrix in="SourceAlpha" type="matrix" values="0 0 0 0 0 0 0 0 0 0 0 0 0 0 0 0 0 0 127 0" result="hardAlpha"/>
<feOffset dy="12"/>
<feGaussianBlur stdDeviation="12"/>
<feColorMatrix type="matrix" values="0 0 0 0 0 0 0 0 0 0 0 0 0 0 0 0 0 0 0.0978201 0"/>
<feBlend mode="normal" in2="BackgroundImageFix" result="effect1_dropShadow"/>
<feBlend mode="normal" in="SourceGraphic" in2="effect1_dropShadow" result="shape"/>
</filter>
<filter id="filter2_d" x="140" y="140" width="168" height="168" filterUnits="userSpaceOnUse" color-interpolation-filters="sRGB">
<feFlood flood-opacity="0" result="BackgroundImageFix"/>
<feColorMatrix in="SourceAlpha" type="matrix" values="0 0 0 0 0 0 0 0 0 0 0 0 0 0 0 0 0 0 127 0" result="hardAlpha"/>
<feOffset dy="12"/>
<feGaussianBlur stdDeviation="12"/>
<feColorMatrix type="matrix" values="0 0 0 0 0 0 0 0 0 0 0 0 0 0 0 0 0 0 0.0978201 0"/>
<feBlend mode="normal" in2="BackgroundImageFix" result="effect1_dropShadow"/>
<feBlend mode="normal" in="SourceGraphic" in2="effect1_dropShadow" result="shape"/>
</filter>
<filter id="filter3_d" x="280" y="0" width="168" height="168" filterUnits="userSpaceOnUse" color-interpolation-filters="sRGB">
<feFlood flood-opacity="0" result="BackgroundImageFix"/>
<feColorMatrix in="SourceAlpha" type="matrix" values="0 0 0 0 0 0 0 0 0 0 0 0 0 0 0 0 0 0 127 0" result="hardAlpha"/>
<feOffset dy="12"/>
<feGaussianBlur stdDeviation="12"/>
<feColorMatrix type="matrix" values="0 0 0 0 0 0 0 0 0 0 0 0 0 0 0 0 0 0 0.0978201 0"/>
<feBlend mode="normal" in2="BackgroundImageFix" result="effect1_dropShadow"/>
<feBlend mode="normal" in="SourceGraphic" in2="effect1_dropShadow" result="shape"/>
</filter>
<filter id="filter4_d" x="280" y="140" width="168" height="168" filterUnits="userSpaceOnUse" color-interpolation-filters="sRGB">
<feFlood flood-opacity="0" result="BackgroundImageFix"/>
<feColorMatrix in="SourceAlpha" type="matrix" values="0 0 0 0 0 0 0 0 0 0 0 0 0 0 0 0 0 0 127 0" result="hardAlpha"/>
<feOffset dy="12"/>
<feGaussianBlur stdDeviation="12"/>
<feColorMatrix type="matrix" values="0 0 0 0 0 0 0 0 0 0 0 0 0 0 0 0 0 0 0.0978201 0"/>
<feBlend mode="normal" in2="BackgroundImageFix" result="effect1_dropShadow"/>
<feBlend mode="normal" in="SourceGraphic" in2="effect1_dropShadow" result="shape"/>
</filter>
<filter id="filter5_d" x="140" y="280" width="168" height="168" filterUnits="userSpaceOnUse" color-interpolation-filters="sRGB">
<feFlood flood-opacity="0" result="BackgroundImageFix"/>
<feColorMatrix in="SourceAlpha" type="matrix" values="0 0 0 0 0 0 0 0 0 0 0 0 0 0 0 0 0 0 127 0" result="hardAlpha"/>
<feOffset dy="12"/>
<feGaussianBlur stdDeviation="12"/>
<feColorMatrix type="matrix" values="0 0 0 0 0 0 0 0 0 0 0 0 0 0 0 0 0 0 0.0978201 0"/>
<feBlend mode="normal" in2="BackgroundImageFix" result="effect1_dropShadow"/>
<feBlend mode="normal" in="SourceGraphic" in2="effect1_dropShadow" result="shape"/>
</filter>
<filter id="filter6_d" x="280" y="280" width="168" height="168" filterUnits="userSpaceOnUse" color-interpolation-filters="sRGB">
<feFlood flood-opacity="0" result="BackgroundImageFix"/>
<feColorMatrix in="SourceAlpha" type="matrix" values="0 0 0 0 0 0 0 0 0 0 0 0 0 0 0 0 0 0 127 0" result="hardAlpha"/>
<feOffset dy="12"/>
<feGaussianBlur stdDeviation="12"/>
<feColorMatrix type="matrix" values="0 0 0 0 0 0 0 0 0 0 0 0 0 0 0 0 0 0 0.0978201 0"/>
<feBlend mode="normal" in2="BackgroundImageFix" result="effect1_dropShadow"/>
<feBlend mode="normal" in="SourceGraphic" in2="effect1_dropShadow" result="shape"/>
</filter>
<filter id="filter7_d" x="420" y="280" width="168" height="168" filterUnits="userSpaceOnUse" color-interpolation-filters="sRGB">
<feFlood flood-opacity="0" result="BackgroundImageFix"/>
<feColorMatrix in="SourceAlpha" type="matrix" values="0 0 0 0 0 0 0 0 0 0 0 0 0 0 0 0 0 0 127 0" result="hardAlpha"/>
<feOffset dy="12"/>
<feGaussianBlur stdDeviation="12"/>
<feColorMatrix type="matrix" values="0 0 0 0 0 0 0 0 0 0 0 0 0 0 0 0 0 0 0.0978201 0"/>
<feBlend mode="normal" in2="BackgroundImageFix" result="effect1_dropShadow"/>
<feBlend mode="normal" in="SourceGraphic" in2="effect1_dropShadow" result="shape"/>
</filter>
<filter id="filter8_d" x="420" y="140" width="168" height="168" filterUnits="userSpaceOnUse" color-interpolation-filters="sRGB">
<feFlood flood-opacity="0" result="BackgroundImageFix"/>
<feColorMatrix in="SourceAlpha" type="matrix" values="0 0 0 0 0 0 0 0 0 0 0 0 0 0 0 0 0 0 127 0" result="hardAlpha"/>
<feOffset dy="12"/>
<feGaussianBlur stdDeviation="12"/>
<feColorMatrix type="matrix" values="0 0 0 0 0 0 0 0 0 0 0 0 0 0 0 0 0 0 0.0978201 0"/>
<feBlend mode="normal" in2="BackgroundImageFix" result="effect1_dropShadow"/>
<feBlend mode="normal" in="SourceGraphic" in2="effect1_dropShadow" result="shape"/>
</filter>
<filter id="filter9_d" x="560" y="140" width="168" height="168" filterUnits="userSpaceOnUse" color-interpolation-filters="sRGB">
<feFlood flood-opacity="0" result="BackgroundImageFix"/>
<feColorMatrix in="SourceAlpha" type="matrix" values="0 0 0 0 0 0 0 0 0 0 0 0 0 0 0 0 0 0 127 0" result="hardAlpha"/>
<feOffset dy="12"/>
<feGaussianBlur stdDeviation="12"/>
<feColorMatrix type="matrix" values="0 0 0 0 0 0 0 0 0 0 0 0 0 0 0 0 0 0 0.0978201 0"/>
<feBlend mode="normal" in2="BackgroundImageFix" result="effect1_dropShadow"/>
<feBlend mode="normal" in="SourceGraphic" in2="effect1_dropShadow" result="shape"/>
</filter>
<radialGradient id="paint0_radial" cx="0" cy="0" r="1" gradientUnits="userSpaceOnUse" gradientTransform="translate(67.1726 191.344) scale(48.4677 39.6431)">
<stop stop-color="white" stop-opacity="0.1"/>
<stop offset="1" stop-color="white" stop-opacity="0.01"/>
</radialGradient>
<linearGradient id="paint1_linear" x1="358.002" y1="322.989" x2="342.293" y2="329.622" gradientUnits="userSpaceOnUse">
<stop offset="0.18" stop-color="#0052CC"/>
<stop offset="1" stop-color="#2684FF"/>
</linearGradient>
<linearGradient id="paint2_linear" x1="361.474" y1="354.388" x2="377.153" y2="360.979" gradientUnits="userSpaceOnUse">
<stop offset="0.18" stop-color="#0052CC"/>
<stop offset="1" stop-color="#2684FF"/>
</linearGradient>
</defs>
</svg>