<svg width="1200" height="1200" viewBox="0 0 1200 1200" fill="none" xmlns="http://www.w3.org/2000/svg">
<rect width="1200" height="1200" rx="20" fill="url(#paint0_linear_246_2)"/>
<path d="M764.309 302.479H902.248V896.962H764.309V834.706C707.749 887.603 646.918 914.052 581.813 914.052C499.619 914.052 431.667 884.348 377.956 824.94C324.652 764.312 298 688.629 298 597.89C298 508.778 324.652 434.519 377.956 375.111C431.26 315.704 497.992 286 578.151 286C647.325 286 709.377 314.483 764.309 371.449V302.479ZM438.381 597.89C438.381 654.856 453.64 701.243 484.157 737.05C515.489 773.264 554.958 791.371 602.565 791.371C653.428 791.371 694.525 773.874 725.856 738.881C757.188 702.667 772.854 656.687 772.854 600.941C772.854 545.196 757.188 499.216 725.856 463.002C694.525 427.602 653.835 409.901 603.786 409.901C556.586 409.901 517.116 427.805 485.378 463.612C454.047 499.826 438.381 544.586 438.381 597.89Z" fill="white"/>
<defs>
<linearGradient id="paint0_linear_246_2" x1="0" y1="0" x2="1175.5" y2="1184" gradientUnits="userSpaceOnUse">
<stop stop-color="#7D7D7D"/>
<stop offset="1"/>
</linearGradient>
</defs>
</svg>
