<svg width="2000" height="686" viewBox="0 0 2000 686" fill="none" xmlns="http://www.w3.org/2000/svg">
<path d="M278.308 165.835H360.635V520.642H278.308V483.485C244.552 515.056 208.245 530.842 169.389 530.842C120.333 530.842 79.7768 513.113 47.7203 477.657C15.9068 441.472 0 396.302 0 342.146C0 288.961 15.9068 244.641 47.7203 209.185C79.5339 173.728 119.362 156 167.203 156C208.488 156 245.523 173 278.308 206.999V165.835ZM83.7838 342.146C83.7838 376.145 92.8908 403.83 111.105 425.201C129.804 446.815 153.361 457.622 181.774 457.622C212.131 457.622 236.659 447.179 255.359 426.294C274.058 404.68 283.408 377.238 283.408 343.967C283.408 310.697 274.058 283.254 255.359 261.64C236.659 240.512 212.374 229.948 182.503 229.948C154.332 229.948 130.776 240.634 111.833 262.005C93.1336 283.619 83.7838 310.332 83.7838 342.146Z" fill="url(#paint0_linear_233_2)"/>
<path d="M434.248 165.835H516.21V197.528C531.267 181.742 544.624 170.935 556.281 165.107C568.181 159.036 582.266 156 598.537 156C620.151 156 642.736 163.043 666.293 177.128L628.772 252.169C613.23 240.998 598.051 235.412 583.237 235.412C538.553 235.412 516.21 269.169 516.21 336.682V520.642H434.248V165.835Z" fill="url(#paint1_linear_233_2)"/>
<path d="M660.129 340.689C660.129 289.447 678.464 245.855 715.135 209.913C751.806 173.971 796.49 156 849.189 156C902.131 156 947.058 174.092 983.972 210.277C1020.4 246.462 1038.61 290.904 1038.61 343.603C1038.61 396.787 1020.28 441.351 983.607 477.293C946.694 512.992 901.402 530.842 847.732 530.842C794.547 530.842 749.984 512.628 714.042 476.2C678.1 440.258 660.129 395.087 660.129 340.689ZM743.913 342.146C743.913 377.602 753.384 405.652 772.327 426.294C791.755 447.179 817.375 457.622 849.189 457.622C881.245 457.622 906.866 447.301 926.052 426.658C945.237 406.016 954.83 378.452 954.83 343.967C954.83 309.482 945.237 281.919 926.052 261.276C906.623 240.391 881.003 229.948 849.189 229.948C817.861 229.948 792.483 240.391 773.055 261.276C753.627 282.161 743.913 309.118 743.913 342.146Z" fill="url(#paint2_linear_233_2)"/>
<path d="M1095.83 165.835H1177.8V198.62C1193.58 182.107 1207.06 170.935 1218.23 165.107C1230.13 159.036 1245.07 156 1263.04 156C1303.11 156 1334.8 173.485 1358.11 208.456C1383.86 173.485 1418.71 156 1462.66 156C1542.56 156 1582.51 204.449 1582.51 301.347V520.642H1500.18V323.568C1500.18 289.568 1496.05 265.526 1487.8 251.441C1479.3 237.112 1465.33 229.948 1445.9 229.948C1423.32 229.948 1406.81 238.448 1396.36 255.448C1386.16 272.447 1381.06 299.768 1381.06 337.41V520.642H1298.74V324.66C1298.74 261.519 1280.52 229.948 1244.09 229.948C1221.02 229.948 1204.15 238.57 1193.46 255.812C1183.02 273.055 1177.8 300.254 1177.8 337.41V520.642H1095.83V165.835Z" fill="url(#paint3_linear_233_2)"/>
<path d="M1917.67 165.835H2000V520.642H1917.67V483.485C1883.92 515.056 1847.61 530.842 1808.75 530.842C1759.7 530.842 1719.14 513.113 1687.09 477.657C1655.27 441.472 1639.37 396.302 1639.37 342.146C1639.37 288.961 1655.27 244.641 1687.09 209.185C1718.9 173.728 1758.73 156 1806.57 156C1847.85 156 1884.89 173 1917.67 206.999V165.835ZM1723.15 342.146C1723.15 376.145 1732.26 403.83 1750.47 425.201C1769.17 446.815 1792.73 457.622 1821.14 457.622C1851.5 457.622 1876.02 447.179 1894.72 426.294C1913.42 404.68 1922.77 377.238 1922.77 343.967C1922.77 310.697 1913.42 283.254 1894.72 261.64C1876.02 240.512 1851.74 229.948 1821.87 229.948C1793.7 229.948 1770.14 240.634 1751.2 262.005C1732.5 283.619 1723.15 310.332 1723.15 342.146Z" fill="url(#paint4_linear_233_2)"/>
<defs>
<linearGradient id="paint0_linear_233_2" x1="-41.2374" y1="155.977" x2="2043.2" y2="530.788" gradientUnits="userSpaceOnUse">
<stop stop-color="white"/>
<stop offset="1" stop-color="#6F6F6F"/>
</linearGradient>
<linearGradient id="paint1_linear_233_2" x1="-41.2374" y1="155.977" x2="2043.2" y2="530.788" gradientUnits="userSpaceOnUse">
<stop stop-color="white"/>
<stop offset="1" stop-color="#6F6F6F"/>
</linearGradient>
<linearGradient id="paint2_linear_233_2" x1="-41.2374" y1="155.977" x2="2043.2" y2="530.788" gradientUnits="userSpaceOnUse">
<stop stop-color="white"/>
<stop offset="1" stop-color="#6F6F6F"/>
</linearGradient>
<linearGradient id="paint3_linear_233_2" x1="-41.2374" y1="155.977" x2="2043.2" y2="530.788" gradientUnits="userSpaceOnUse">
<stop stop-color="white"/>
<stop offset="1" stop-color="#6F6F6F"/>
</linearGradient>
<linearGradient id="paint4_linear_233_2" x1="-41.2374" y1="155.977" x2="2043.2" y2="530.788" gradientUnits="userSpaceOnUse">
<stop stop-color="white"/>
<stop offset="1" stop-color="#6F6F6F"/>
</linearGradient>
</defs>
</svg>
