<svg width="2000" height="375" viewBox="0 0 2000 375" fill="none" xmlns="http://www.w3.org/2000/svg">
<path d="M278.308 9.83549H360.635V364.642H278.308V327.485C244.552 359.056 208.245 374.842 169.389 374.842C120.333 374.842 79.7768 357.113 47.7203 321.657C15.9068 285.472 0 240.302 0 186.146C0 132.961 15.9068 88.6409 47.7203 53.1845C79.5339 17.7282 119.362 0 167.203 0C208.488 0 245.523 16.9996 278.308 50.9989V9.83549ZM83.7838 186.146C83.7838 220.145 92.8908 247.83 111.105 269.201C129.804 290.815 153.361 301.622 181.774 301.622C212.131 301.622 236.659 291.179 255.359 270.294C274.058 248.68 283.408 221.238 283.408 187.967C283.408 154.697 274.058 127.254 255.359 105.64C236.659 84.5124 212.374 73.9483 182.503 73.9483C154.332 73.9483 130.776 84.6338 111.833 106.005C93.1336 127.619 83.7838 154.332 83.7838 186.146Z" fill="url(#paint0_linear_9_18)"/>
<path d="M434.248 9.83549H516.21V41.5276C531.267 25.7423 544.624 14.9354 556.281 9.10694C568.181 3.03565 582.266 0 598.537 0C620.151 0 642.736 7.0427 666.293 21.1281L628.772 96.1693C613.23 84.9981 598.051 79.4125 583.237 79.4125C538.553 79.4125 516.21 113.169 516.21 180.682V364.642H434.248V9.83549Z" fill="url(#paint1_linear_9_18)"/>
<path d="M660.129 184.689C660.129 133.447 678.464 89.8551 715.135 53.9131C751.806 17.971 796.49 0 849.189 0C902.131 0 947.058 18.0925 983.972 54.2773C1020.4 90.4622 1038.61 134.904 1038.61 187.603C1038.61 240.787 1020.28 285.351 983.607 321.293C946.694 356.992 901.402 374.842 847.732 374.842C794.547 374.842 749.984 356.628 714.042 320.2C678.1 284.258 660.129 239.087 660.129 184.689ZM743.913 186.146C743.913 221.602 753.384 249.652 772.327 270.294C791.755 291.179 817.376 301.622 849.189 301.622C881.245 301.622 906.866 291.301 926.052 270.658C945.237 250.016 954.83 222.452 954.83 187.967C954.83 153.482 945.237 125.919 926.052 105.276C906.623 84.391 881.003 73.9483 849.189 73.9483C817.861 73.9483 792.483 84.391 773.055 105.276C753.627 126.161 743.913 153.118 743.913 186.146Z" fill="url(#paint2_linear_9_18)"/>
<path d="M1095.83 9.83549H1177.8V42.6205C1193.58 26.1066 1207.06 14.9354 1218.23 9.10694C1230.13 3.03565 1245.07 0 1263.04 0C1303.11 0 1334.8 17.4853 1358.11 52.456C1383.86 17.4853 1418.71 0 1462.66 0C1542.56 0 1582.51 48.4489 1582.51 145.347V364.642H1500.18V167.568C1500.18 133.568 1496.05 109.526 1487.8 95.4407C1479.3 81.1125 1465.33 73.9483 1445.9 73.9483C1423.32 73.9483 1406.81 82.4481 1396.36 99.4478C1386.16 116.447 1381.06 143.768 1381.06 181.41V364.642H1298.74V168.66C1298.74 105.519 1280.52 73.9483 1244.1 73.9483C1221.02 73.9483 1204.15 82.5696 1193.46 99.812C1183.02 117.055 1177.8 144.254 1177.8 181.41V364.642H1095.83V9.83549Z" fill="url(#paint3_linear_9_18)"/>
<path d="M1917.67 9.83549H2000V364.642H1917.67V327.485C1883.92 359.056 1847.61 374.842 1808.75 374.842C1759.7 374.842 1719.14 357.113 1687.09 321.657C1655.27 285.472 1639.37 240.302 1639.37 186.146C1639.37 132.961 1655.27 88.6409 1687.09 53.1845C1718.9 17.7282 1758.73 0 1806.57 0C1847.85 0 1884.89 16.9996 1917.67 50.9989V9.83549ZM1723.15 186.146C1723.15 220.145 1732.26 247.83 1750.47 269.201C1769.17 290.815 1792.73 301.622 1821.14 301.622C1851.5 301.622 1876.02 291.179 1894.72 270.294C1913.42 248.68 1922.77 221.238 1922.77 187.967C1922.77 154.697 1913.42 127.254 1894.72 105.64C1876.02 84.5124 1851.74 73.9483 1821.87 73.9483C1793.7 73.9483 1770.14 84.6338 1751.2 106.005C1732.5 127.619 1723.15 154.332 1723.15 186.146Z" fill="url(#paint4_linear_9_18)"/>
<defs>
<linearGradient id="paint0_linear_9_18" x1="-41.2374" y1="-0.0228264" x2="2043.2" y2="374.788" gradientUnits="userSpaceOnUse">
<stop stop-color="#8D73E9" stop-opacity="0.8"/>
<stop offset="1" stop-color="#4423B8"/>
</linearGradient>
<linearGradient id="paint1_linear_9_18" x1="-41.2374" y1="-0.0228264" x2="2043.2" y2="374.788" gradientUnits="userSpaceOnUse">
<stop stop-color="#8D73E9" stop-opacity="0.8"/>
<stop offset="1" stop-color="#4423B8"/>
</linearGradient>
<linearGradient id="paint2_linear_9_18" x1="-41.2374" y1="-0.0228264" x2="2043.2" y2="374.788" gradientUnits="userSpaceOnUse">
<stop stop-color="#8D73E9" stop-opacity="0.8"/>
<stop offset="1" stop-color="#4423B8"/>
</linearGradient>
<linearGradient id="paint3_linear_9_18" x1="-41.2374" y1="-0.0228264" x2="2043.2" y2="374.788" gradientUnits="userSpaceOnUse">
<stop stop-color="#8D73E9" stop-opacity="0.8"/>
<stop offset="1" stop-color="#4423B8"/>
</linearGradient>
<linearGradient id="paint4_linear_9_18" x1="-41.2374" y1="-0.0228264" x2="2043.2" y2="374.788" gradientUnits="userSpaceOnUse">
<stop stop-color="#8D73E9" stop-opacity="0.8"/>
<stop offset="1" stop-color="#4423B8"/>
</linearGradient>
</defs>
</svg>
